<svg width="141" height="44" viewBox="0 0 141 44" fill="none" xmlns="http://www.w3.org/2000/svg">
<path d="M2.77197 3.61401C3.31862 3.65287 3.85075 3.68688 4.38288 3.72574C5.40844 3.7986 6.434 3.87147 7.45472 3.94919C8.62057 4.03177 9.79125 4.1192 10.9571 4.20178C11.944 4.27465 12.9308 4.34265 13.9128 4.41066C14.5853 4.45923 15.2577 4.50781 15.9301 4.55153C16.0414 4.55638 16.0897 4.61953 16.143 4.70211C17.2072 6.45084 18.2715 8.19957 19.3357 9.95316C19.9646 10.983 20.5887 12.0176 21.2224 13.0426C21.2853 13.1446 21.2756 13.198 21.1934 13.2806C20.6274 13.8392 20.0614 14.4027 19.5051 14.9759C19.4035 15.0779 19.3648 15.0633 19.2922 14.9565C17.5797 12.5228 15.8624 10.0989 14.1499 7.66524C14.0822 7.56809 14.0096 7.52437 13.8935 7.51951C12.7325 7.44179 11.5666 7.35921 10.4056 7.27663C9.08981 7.18434 7.774 7.07261 6.45818 6.99975C6.15342 6.98518 5.95024 6.8686 5.74706 6.66458C4.79407 5.67849 3.82172 4.71183 2.85421 3.73545C2.82519 3.70631 2.78165 3.68688 2.77197 3.61401Z" fill="#D81F28"/>
<path d="M40.1856 4.09004C36.6348 4.09004 33.0792 4.09004 29.5285 4.08518C29.4269 4.08518 29.364 4.11918 29.3011 4.19205C28.4158 5.23157 27.5257 6.27109 26.6404 7.31547C26.6114 7.34948 26.5679 7.36891 26.5776 7.44177C28.6093 7.44177 30.6411 7.44177 32.7164 7.44177C32.5277 7.65065 32.3633 7.83038 32.1988 8.00525C28.9431 11.5756 25.6874 15.141 22.4221 18.7065C22.2963 18.8425 22.2479 18.9785 22.2479 19.1631C22.2528 23.637 22.2528 28.1156 22.2528 32.5895C22.2528 32.7061 22.2286 32.8032 22.1754 32.9052C21.6191 34.0176 21.2562 34.9406 20.6999 36.0529V39.0501C20.6999 39.2249 20.6612 39.3852 20.5935 39.5358C21.7932 37.6219 22.9204 36.2181 24.1056 34.2799C24.1346 34.2313 24.1539 34.1828 24.1588 34.1245C24.2555 32.8129 24.3523 31.5062 24.449 30.1947C24.5313 29.0823 24.6087 27.9748 24.6909 26.8624C24.778 25.7014 24.8602 24.5405 24.9473 23.3795C24.9957 22.7334 25.044 22.0874 25.0876 21.4413C25.0924 21.3539 25.1166 21.2762 25.1795 21.2033C27.7579 18.2985 30.3315 15.3839 32.9099 12.4791C35.348 9.73455 37.7765 6.99002 40.2001 4.25034C40.2388 4.20662 40.3017 4.16776 40.3065 4.08032C40.2581 4.09004 40.2194 4.09004 40.1856 4.09004Z" fill="#D81F28"/>
<path d="M68.3835 18.8912C68.1949 18.7115 67.9191 18.624 67.5612 18.624C67.2032 18.624 66.9226 18.7115 66.7243 18.8912C66.5356 19.0563 66.4388 19.3089 66.4388 19.6441C66.4388 19.9647 66.5356 20.2173 66.7243 20.397C66.9274 20.5768 67.208 20.6642 67.5612 20.6642C67.9191 20.6642 68.19 20.5768 68.3835 20.397C68.5867 20.2173 68.6883 19.9647 68.6883 19.6441C68.6883 19.3089 68.5867 19.0612 68.3835 18.8912Z" fill="black"/>
<path d="M94.6852 20.3629C93.5678 19.2748 91.9714 18.7307 89.9009 18.7307H86.4566C86.1373 18.7307 85.8857 18.8181 85.7068 18.9979C85.5423 19.163 85.4552 19.4108 85.4552 19.7314V30.3598C85.4552 30.6804 85.5374 30.933 85.7068 31.1127C85.8857 31.2779 86.1373 31.3653 86.4566 31.3653H89.9009C90.9507 31.3653 91.8698 31.2293 92.668 30.9524C93.4662 30.6658 94.1386 30.2578 94.6852 29.7331C95.2464 29.1939 95.6673 28.5333 95.9527 27.7415C96.2381 26.9546 96.3832 26.0511 96.3832 25.0359C96.3832 22.9957 95.8172 21.4364 94.6852 20.3629ZM94.1676 27.1343C93.979 27.7318 93.6839 28.2273 93.292 28.6208C92.9002 29.0142 92.4116 29.3154 91.8262 29.5145C91.2554 29.704 90.5782 29.8011 89.7896 29.8011H87.308V20.29H89.7896C91.3377 20.29 92.4987 20.6835 93.2727 21.4752C94.0564 22.2622 94.453 23.4523 94.453 25.0407C94.453 25.8422 94.3563 26.5368 94.1676 27.1343Z" fill="black"/>
<path d="M75.5528 26.8574L78.049 23.7826C78.228 23.5689 78.3102 23.3648 78.3005 23.1754C78.3005 22.9714 78.228 22.8111 78.0877 22.6896C77.9571 22.5585 77.7829 22.4905 77.5701 22.4905C77.3572 22.4905 77.1734 22.5342 77.0186 22.6168C76.8783 22.6896 76.738 22.8159 76.6074 22.9908L74.5369 25.609L72.481 22.9908C72.3504 22.8111 72.2052 22.6848 72.0504 22.6168C71.9053 22.5342 71.7215 22.4905 71.499 22.4905C71.2958 22.4905 71.1216 22.5488 70.9813 22.6702C70.8362 22.7916 70.7588 22.9519 70.7491 23.156C70.7395 23.3454 70.8265 23.5494 71.0152 23.7632L73.4775 26.8477L70.8169 30.18C70.6524 30.4083 70.5653 30.6172 70.5653 30.8067C70.575 30.9961 70.6475 31.1613 70.7782 31.2924C70.9233 31.4139 71.0974 31.4722 71.3151 31.4722C71.528 31.4722 71.707 31.4284 71.8521 31.3459C72.0069 31.2487 72.1472 31.1224 72.2826 30.9718L74.5176 28.1301L76.767 30.9718C76.9073 31.137 77.0525 31.2633 77.1976 31.3459C77.3524 31.4284 77.5362 31.4722 77.7491 31.4722C77.9619 31.4722 78.1409 31.4139 78.286 31.2924C78.4263 31.1613 78.4989 31.001 78.4989 30.8067C78.5086 30.6026 78.4263 30.3938 78.2473 30.18L75.5528 26.8574Z" fill="black"/>
<path d="M67.5612 22.5293C67.2758 22.5293 67.0533 22.6119 66.8985 22.7819C66.7437 22.947 66.6663 23.1899 66.6663 23.5008V30.4909C66.6663 30.8018 66.7437 31.0446 66.8985 31.2244C67.0533 31.3895 67.2758 31.477 67.5612 31.477C67.8611 31.477 68.0837 31.3944 68.2385 31.2244C68.3933 31.0446 68.4707 30.8018 68.4707 30.4909V23.496C68.4707 23.1851 68.3884 22.947 68.2191 22.777C68.0691 22.6119 67.8466 22.5293 67.5612 22.5293Z" fill="black"/>
<path d="M44.3022 18.8912C44.1136 18.7115 43.8378 18.624 43.4799 18.624C43.1219 18.624 42.8413 18.7115 42.643 18.8912C42.4543 19.0563 42.3575 19.3089 42.3575 19.6441C42.3575 19.9647 42.4543 20.2173 42.643 20.397C42.8461 20.5768 43.1267 20.6642 43.4799 20.6642C43.8378 20.6642 44.1087 20.5768 44.3022 20.397C44.5054 20.2173 44.607 19.9647 44.607 19.6441C44.607 19.3089 44.5054 19.0612 44.3022 18.8912Z" fill="black"/>
<path d="M55.9849 18.8037C55.8543 18.6725 55.6656 18.6045 55.4141 18.6045C55.2012 18.6045 55.0223 18.6531 54.8771 18.7502C54.732 18.8328 54.5869 18.9834 54.4321 19.1971L51.1087 23.8264L47.7853 19.1971C47.6402 18.9931 47.4854 18.8425 47.3209 18.7502C47.1661 18.6531 46.9919 18.6045 46.8033 18.6045C46.5517 18.6045 46.3485 18.6774 46.1986 18.8182C46.0534 18.9494 45.976 19.1145 45.9664 19.3186C45.9567 19.508 46.0147 19.6926 46.1454 19.8723L50.146 25.4488V30.5201C50.146 30.831 50.2234 31.0691 50.3782 31.2391C50.5427 31.4042 50.7749 31.4917 51.0748 31.4917C51.6795 31.4917 51.9843 31.1711 51.9843 30.525V25.5023L55.9849 19.8966C56.1397 19.6829 56.2123 19.4789 56.1978 19.2894C56.1978 19.0854 56.1252 18.9202 55.9849 18.8037Z" fill="black"/>
<path d="M62.8107 22.8549C62.356 22.5926 61.7851 22.4614 61.0982 22.4614C60.3726 22.4614 59.7292 22.6363 59.168 22.9812C58.7326 23.2435 58.3892 23.603 58.1328 24.0693V23.4135C58.1328 23.1123 58.0554 22.8889 57.9006 22.7335C57.7555 22.578 57.5426 22.5003 57.2572 22.5003C56.9814 22.5003 56.7686 22.578 56.6138 22.7335C56.459 22.8889 56.3816 23.1172 56.3816 23.4135V30.5833C56.3816 30.8699 56.459 31.0982 56.6138 31.2634C56.7686 31.4188 56.9911 31.4965 57.2765 31.4965C57.8812 31.4965 58.186 31.1905 58.186 30.5833V26.4252C58.186 25.6626 58.3988 25.0505 58.8294 24.5988C59.2696 24.147 59.855 23.9187 60.5806 23.9187C61.1998 23.9187 61.6497 24.0936 61.9399 24.4385C62.2399 24.7834 62.385 25.3323 62.385 26.0852V30.5833C62.385 30.8699 62.4624 31.0982 62.6172 31.2634C62.772 31.4188 62.9994 31.4965 63.2944 31.4965C63.5799 31.4965 63.8024 31.4188 63.9572 31.2634C64.112 31.0982 64.1894 30.8699 64.1894 30.5833V25.9783C64.1894 25.1914 64.0781 24.5405 63.8508 24.0256C63.6186 23.4912 63.2751 23.1026 62.8107 22.8549Z" fill="black"/>
<path d="M43.4799 22.5293C43.1945 22.5293 42.972 22.6119 42.8172 22.7819C42.6624 22.947 42.585 23.1899 42.585 23.5008V30.4909C42.585 30.8018 42.6624 31.0446 42.8172 31.2244C42.972 31.3895 43.1945 31.477 43.4799 31.477C43.7798 31.477 44.0024 31.3944 44.1572 31.2244C44.312 31.0446 44.3894 30.8018 44.3894 30.4909V23.496C44.3894 23.1851 44.3071 22.947 44.1378 22.777C43.9879 22.6119 43.7653 22.5293 43.4799 22.5293Z" fill="black"/>
<path d="M122.898 29.8789C122.791 29.8886 122.656 29.9226 122.487 29.9663C122.332 30.0003 122.148 30.0197 121.935 30.0197C121.326 30.0197 120.885 29.8594 120.615 29.534C120.353 29.2134 120.223 28.7325 120.223 28.101V24.0158H122.313C122.55 24.0158 122.733 23.9575 122.864 23.836C122.995 23.7049 123.062 23.53 123.062 23.3163C123.062 23.088 122.995 22.9179 122.864 22.7965C122.733 22.6751 122.55 22.6168 122.313 22.6168H120.223V20.7709C120.223 20.4697 120.145 20.2463 119.99 20.0908C119.836 19.9354 119.613 19.8577 119.328 19.8577C119.042 19.8577 118.815 19.9354 118.65 20.0908C118.496 20.2463 118.418 20.4746 118.418 20.7709V22.6168H117.349C117.112 22.6168 116.928 22.6751 116.798 22.7965C116.667 22.9179 116.599 23.088 116.599 23.3163C116.599 23.53 116.667 23.7049 116.798 23.836C116.928 23.9575 117.112 24.0158 117.349 24.0158H118.418V28.2467C118.418 28.9511 118.539 29.5485 118.776 30.0392C119.013 30.5298 119.376 30.899 119.865 31.1516C120.353 31.4041 120.953 31.5256 121.669 31.5256C121.858 31.5256 122.075 31.5013 122.313 31.4527C122.564 31.4187 122.758 31.375 122.903 31.3264C123.067 31.2778 123.183 31.1758 123.241 31.0204C123.314 30.865 123.348 30.6998 123.348 30.5201C123.348 30.2675 123.304 30.1023 123.222 30.0197C123.135 29.9274 123.028 29.8789 122.898 29.8789Z" fill="black"/>
<path d="M130.043 22.8355C129.53 22.5829 128.877 22.4614 128.079 22.4614C127.629 22.4614 127.145 22.5149 126.632 22.6217C126.12 22.7286 125.602 22.9083 125.08 23.1609C124.891 23.2338 124.751 23.3406 124.668 23.4815C124.596 23.6272 124.562 23.773 124.562 23.9284C124.572 24.0741 124.62 24.2102 124.707 24.3413C124.789 24.4628 124.905 24.5405 125.046 24.5745C125.186 24.6085 125.36 24.5793 125.563 24.487C126.003 24.2587 126.424 24.0984 126.831 24.0013C127.247 23.9041 127.648 23.8556 128.026 23.8556C128.679 23.8556 129.148 24.0061 129.438 24.3024C129.724 24.5988 129.869 25.0894 129.869 25.7743V26.2406H129.259C127.972 26.2406 126.952 26.3232 126.187 26.4932C125.437 26.6487 124.896 26.9158 124.562 27.2996C124.243 27.6688 124.078 28.1788 124.078 28.8249C124.078 29.3398 124.214 29.7964 124.489 30.2044C124.765 30.6125 125.138 30.9331 125.612 31.1711C126.1 31.4091 126.647 31.5305 127.256 31.5305C127.745 31.5305 128.18 31.448 128.558 31.2779C128.94 31.1128 129.254 30.8699 129.506 30.559C129.661 30.3696 129.786 30.1558 129.883 29.9275V30.5784C129.883 30.865 129.961 31.0934 130.115 31.2585C130.27 31.414 130.478 31.4917 130.739 31.4917C131.015 31.4917 131.223 31.414 131.363 31.2585C131.504 31.0934 131.576 30.865 131.576 30.5784V25.9735C131.576 25.1622 131.451 24.4968 131.199 23.9819C130.957 23.4669 130.57 23.0881 130.043 22.8355ZM129.564 29.0726C129.375 29.4321 129.109 29.7187 128.78 29.9324C128.446 30.1364 128.059 30.2384 127.619 30.2384C127.073 30.2384 126.642 30.1024 126.332 29.8255C126.023 29.5389 125.868 29.1697 125.868 28.7131C125.868 28.3682 125.97 28.0962 126.173 27.9068C126.386 27.7028 126.744 27.5619 127.242 27.4745C127.74 27.3919 128.422 27.3482 129.278 27.3482H129.869V27.8339C129.864 28.3002 129.762 28.7131 129.564 29.0726Z" fill="black"/>
<path d="M99.5567 22.5293C99.2713 22.5293 99.0536 22.6119 98.8988 22.7819C98.744 22.9519 98.6666 23.1899 98.6666 23.5008V30.4909C98.6666 30.8018 98.744 31.0446 98.8988 31.2244C99.0536 31.3895 99.2713 31.477 99.5567 31.477C99.8567 31.477 100.079 31.3944 100.234 31.2244C100.389 31.0446 100.466 30.8018 100.466 30.4909V23.496C100.466 23.1851 100.384 22.947 100.215 22.777C100.065 22.6119 99.847 22.5293 99.5567 22.5293Z" fill="black"/>
<path d="M115.322 18.8912C115.134 18.7115 114.858 18.624 114.5 18.624C114.142 18.624 113.861 18.7115 113.663 18.8912C113.474 19.0563 113.378 19.3089 113.378 19.6441C113.378 19.9647 113.474 20.2173 113.663 20.397C113.866 20.5768 114.147 20.6642 114.5 20.6642C114.858 20.6642 115.129 20.5768 115.322 20.397C115.525 20.2173 115.627 19.9647 115.627 19.6441C115.627 19.3089 115.525 19.0612 115.322 18.8912Z" fill="black"/>
<path d="M138.136 30.1121C138.078 30.015 137.977 29.9761 137.831 29.9858C137.749 29.9955 137.667 30.0101 137.58 30.0198C137.498 30.0198 137.401 30.0198 137.294 30.0198C136.83 30.0198 136.472 29.8741 136.225 29.5875C135.988 29.2863 135.867 28.8394 135.867 28.2419V19.5177C135.867 19.2165 135.785 18.9931 135.616 18.8377C135.461 18.6822 135.238 18.6045 134.953 18.6045C134.668 18.6045 134.445 18.6822 134.29 18.8377C134.136 18.9931 134.058 19.2214 134.058 19.5177V28.3537C134.058 29.3835 134.29 30.1704 134.755 30.7193C135.229 31.2585 135.935 31.5257 136.864 31.5257C136.97 31.5257 137.086 31.5208 137.203 31.5062C137.323 31.5062 137.435 31.5014 137.541 31.4868C137.778 31.4528 137.952 31.3654 138.059 31.2342C138.165 31.0885 138.218 30.8942 138.218 30.6416C138.223 30.3744 138.194 30.1947 138.136 30.1121Z" fill="black"/>
<path d="M100.379 18.8912C100.19 18.7115 99.9147 18.624 99.5568 18.624C99.1988 18.624 98.9182 18.7115 98.7199 18.8912C98.5312 19.0563 98.4344 19.3089 98.4344 19.6441C98.4344 19.9647 98.5312 20.2173 98.7199 20.397C98.923 20.5768 99.2036 20.6642 99.5568 20.6642C99.9147 20.6642 100.186 20.5768 100.379 20.397C100.582 20.2173 100.684 19.9647 100.684 19.6441C100.684 19.3089 100.582 19.0612 100.379 18.8912Z" fill="black"/>
<path d="M114.505 22.5293C114.219 22.5293 113.997 22.6119 113.842 22.7819C113.687 22.9519 113.61 23.1899 113.61 23.5008V30.4909C113.61 30.8018 113.687 31.0446 113.842 31.2244C113.997 31.3895 114.214 31.477 114.505 31.477C114.8 31.477 115.027 31.3944 115.182 31.2244C115.337 31.0446 115.414 30.8018 115.414 30.4909V23.496C115.414 23.1851 115.332 22.947 115.163 22.777C115.008 22.6119 114.79 22.5293 114.505 22.5293Z" fill="black"/>
<path d="M110.185 22.4954C109.909 22.4954 109.691 22.5732 109.522 22.7286C109.367 22.884 109.29 23.1123 109.29 23.4087V24.0936C109.087 23.6661 108.777 23.3115 108.361 23.0346C107.8 22.6509 107.142 22.4614 106.378 22.4614C105.792 22.4614 105.26 22.5683 104.772 22.782C104.298 22.986 103.886 23.2775 103.538 23.6612C103.204 24.045 102.943 24.4968 102.754 25.0214C102.575 25.546 102.488 26.1386 102.488 26.7944C102.488 27.6688 102.648 28.4314 102.972 29.0872C103.291 29.7332 103.746 30.2384 104.327 30.6125C104.912 30.9719 105.594 31.1516 106.378 31.1516C107.127 31.1516 107.79 30.9622 108.361 30.5784C108.796 30.287 109.116 29.913 109.324 29.4612V30.8456C109.324 31.6714 109.116 32.2932 108.7 32.7109C108.284 33.1433 107.66 33.357 106.828 33.357C106.421 33.357 105.981 33.3036 105.507 33.1967C105.043 33.0995 104.549 32.9101 104.027 32.6235C103.872 32.5409 103.722 32.5166 103.582 32.5506C103.451 32.5846 103.34 32.6575 103.243 32.7644C103.146 32.8712 103.083 32.9975 103.045 33.1384C103.02 33.2841 103.04 33.4201 103.098 33.5513C103.156 33.697 103.277 33.8136 103.456 33.9108C103.944 34.2119 104.486 34.4257 105.081 34.5568C105.691 34.688 106.315 34.756 106.958 34.756C108.303 34.756 109.329 34.4111 110.03 33.7164C110.731 33.0218 111.085 31.9969 111.085 30.6319V23.4087C111.085 23.1075 111.007 22.884 110.852 22.7286C110.693 22.5732 110.47 22.4954 110.185 22.4954ZM109.009 28.3537C108.806 28.7957 108.521 29.1357 108.153 29.3738C107.785 29.6118 107.335 29.7332 106.813 29.7332C106.054 29.7332 105.444 29.4709 104.994 28.9463C104.544 28.4217 104.317 27.7028 104.317 26.7944C104.317 26.1969 104.418 25.682 104.622 25.2545C104.834 24.8125 105.125 24.4725 105.497 24.2344C105.865 23.9964 106.305 23.875 106.818 23.875C107.592 23.875 108.197 24.1373 108.637 24.6619C109.087 25.1865 109.314 25.9006 109.314 26.7944C109.309 27.3919 109.208 27.9116 109.009 28.3537Z" fill="black"/>
<path d="M19.3889 32.0309C18.91 32.0503 18.4795 31.7977 18.2424 31.3994V39.2493C18.2424 39.8808 18.7504 40.3908 19.3793 40.3908C19.7324 40.3908 20.0468 40.2305 20.2549 39.973C20.3032 39.8905 20.3564 39.8127 20.4048 39.7302C20.4725 39.5844 20.5112 39.4193 20.5112 39.2444V36.2473V31.448C20.2936 31.8123 19.9017 32.026 19.3889 32.0309Z" fill="black"/>
<path d="M19.3889 31.6374C19.8437 31.6374 20.192 31.4431 20.3855 31.1225C20.4919 30.9427 20.5548 30.7241 20.5596 30.4764C20.5693 29.8595 20.0033 29.2912 19.3647 29.3154C18.6585 29.3446 18.2037 29.9129 18.2037 30.4473C18.2037 30.6804 18.2666 30.899 18.3779 31.0788C18.5811 31.4285 18.9632 31.6519 19.3889 31.6374Z" fill="black"/>
</svg>
