<svg width="40" height="40" viewBox="0 0 40 40" fill="none" xmlns="http://www.w3.org/2000/svg">
<path d="M8.78871 31.6966C10.797 31.6966 12.4251 30.0685 12.4251 28.0602C12.4251 26.0519 10.797 24.4238 8.78871 24.4238C6.7804 24.4238 5.15234 26.0519 5.15234 28.0602C5.15234 30.0685 6.7804 31.6966 8.78871 31.6966Z" fill="black"/>
<path d="M10.7883 23.3936C10.5458 23.1512 10.5458 22.7875 10.7883 22.5451C10.9095 22.4239 11.0307 22.3633 11.2125 22.3633C11.3943 22.3633 11.5155 22.4239 11.6367 22.5451C11.758 22.6663 11.8186 22.8481 11.8186 22.9693C11.8186 23.1512 11.758 23.2724 11.6367 23.3936C11.5155 23.5148 11.3337 23.5754 11.2125 23.5754C11.0307 23.5754 10.9095 23.5148 10.7883 23.3936Z" fill="black"/>
<path d="M10.6671 39.0909C10.6671 39.3333 10.7277 39.5152 10.7883 39.697H2.18223C1.8792 39.697 1.57617 39.4545 1.57617 39.0909V37.5152C1.57617 34.4848 4.06102 32 7.09132 32C7.33375 32 7.57617 32.1212 7.63678 32.303L8.78829 34.6061L9.93981 32.303C10.061 32.1212 10.2428 32 10.4853 32C11.2125 32 11.8792 32.1212 12.4853 32.3636C11.3337 33.6364 10.6065 35.3333 10.6065 37.2121V39.0909H10.6671Z" fill="black"/>
<path d="M12.485 21.0908C12.6668 21.0908 12.788 21.1514 12.9092 21.2726C13.0304 21.3939 13.091 21.5757 13.091 21.6969C13.091 21.8787 13.0304 21.9999 12.9092 22.1211C12.788 22.2423 12.6668 22.3029 12.485 22.3029C12.3031 22.3029 12.1819 22.2423 12.0607 22.1211C11.8183 21.8787 11.8183 21.5151 12.0607 21.2726C12.1819 21.1514 12.3638 21.0908 12.485 21.0908Z" fill="black"/>
<path d="M13.819 19.8184C14.0008 19.8184 14.122 19.879 14.2432 20.0002C14.3644 20.1214 14.425 20.2426 14.425 20.4244C14.425 20.6062 14.3644 20.7275 14.2432 20.8487C14.122 20.9699 13.9402 21.0305 13.819 21.0305C13.6371 21.0305 13.5159 20.9699 13.3947 20.8487C13.1523 20.6062 13.1523 20.2426 13.3947 20.0002C13.4553 19.879 13.6371 19.8184 13.819 19.8184Z" fill="black"/>
<path d="M15.0914 18.5449C15.2732 18.5449 15.3944 18.6055 15.5157 18.7267C15.6369 18.848 15.6975 18.9692 15.6975 19.151C15.6975 19.3328 15.6369 19.454 15.5157 19.5752C15.3944 19.6964 15.2126 19.757 15.0914 19.757C14.9096 19.757 14.7884 19.6964 14.6672 19.5752C14.4247 19.3328 14.4247 18.9692 14.6672 18.7267C14.7884 18.6055 14.9096 18.5449 15.0914 18.5449Z" fill="black"/>
<path d="M23.6971 26.8486C23.6971 29.0304 21.9396 30.788 19.7578 30.788C17.5759 30.788 15.8184 29.0304 15.8184 26.8486C15.8184 24.6668 17.5759 22.9092 19.7578 22.9092C21.9396 22.9092 23.6971 24.7274 23.6971 26.8486Z" fill="black"/>
<path d="M24.485 18.5449C24.6668 18.5449 24.788 18.6055 24.9092 18.7267C25.0304 18.848 25.091 19.0298 25.091 19.151C25.091 19.3328 25.0304 19.454 24.9092 19.5752C24.788 19.6964 24.6062 19.757 24.485 19.757C24.3031 19.757 24.1819 19.6964 24.0607 19.5752C23.8183 19.3328 23.8183 18.9692 24.0607 18.7267C24.1819 18.6055 24.3031 18.5449 24.485 18.5449Z" fill="black"/>
<path d="M26.1826 20.0002C26.3039 20.1214 26.3645 20.3032 26.3645 20.4244C26.3645 20.6062 26.3039 20.7275 26.1826 20.8487C26.0614 20.9699 25.8796 21.0305 25.7584 21.0305C25.5766 21.0305 25.4554 20.9699 25.3342 20.8487C25.0917 20.6062 25.0917 20.2426 25.3342 20.0002C25.4554 19.879 25.6372 19.8184 25.7584 19.8184C25.9402 19.8184 26.0614 19.879 26.1826 20.0002Z" fill="black"/>
<path d="M27.5157 21.2726C27.6369 21.3939 27.6975 21.5757 27.6975 21.6969C27.6975 21.8787 27.6369 21.9999 27.5157 22.1211C27.3944 22.2423 27.2126 22.3029 27.0914 22.3029C26.9096 22.3029 26.7884 22.2423 26.6672 22.1211C26.4247 21.8787 26.4247 21.5151 26.6672 21.2726C26.7884 21.1514 26.9702 21.0908 27.0914 21.0908C27.2126 21.0908 27.3944 21.1514 27.5157 21.2726Z" fill="black"/>
<path d="M27.6971 37.2119V39.0906C27.6971 39.4543 27.4547 39.6967 27.091 39.6967H12.485C12.1213 39.6967 11.8789 39.4543 11.8789 39.0906V37.2119C11.8789 33.9391 14.5456 31.2725 17.8789 31.2725C18.1213 31.2725 18.3638 31.3937 18.485 31.5755L19.8183 34.1816L21.1516 31.5755C21.2728 31.3937 21.4547 31.2725 21.6971 31.2725C25.0304 31.2725 27.6971 33.9391 27.6971 37.2119Z" fill="black"/>
<path d="M28.3639 22.3633C28.5457 22.3633 28.6669 22.4239 28.7881 22.5451C28.9093 22.6663 28.9699 22.8481 28.9699 22.9693C28.9699 23.1512 28.9093 23.2724 28.7881 23.3936C28.6669 23.5148 28.5457 23.5754 28.3639 23.5754C28.1821 23.5754 28.0608 23.5148 27.9396 23.3936C27.6972 23.1512 27.6972 22.7875 27.9396 22.5451C28.0608 22.4239 28.1821 22.3633 28.3639 22.3633Z" fill="black"/>
<path d="M10.9097 11.5149C10.5461 8.42395 11.4552 5.39364 13.3945 3.21183C15.0915 1.33304 17.3339 0.302734 19.7582 0.302734C22.1824 0.302734 24.4855 1.33304 26.1218 3.21183C28.0612 5.39364 28.9703 8.42395 28.6067 11.5149C28.4249 13.2724 27.7582 15.3936 26.7885 17.333C26.6673 17.5149 26.4855 17.6967 26.243 17.6967H23.6976C23.5158 17.6967 23.2733 17.5755 23.1521 17.3936C23.0309 17.2118 23.0309 16.9694 23.1521 16.7876C24.1824 14.9694 24.9703 12.7876 25.1521 11.1512C25.3945 9.09061 24.7885 6.9694 23.5158 5.51486C22.4855 4.36334 21.1521 3.75728 19.6976 3.75728C18.243 3.75728 16.9097 4.36334 15.8794 5.51486C14.6067 6.9694 14.0006 9.03001 14.243 11.1512C14.4248 12.7876 15.2127 15.03 16.243 16.7876C16.3642 16.9694 16.3642 17.2118 16.243 17.3936C16.1218 17.5755 15.94 17.6967 15.6976 17.6967H13.1521C12.9097 17.6967 12.7279 17.5755 12.6067 17.333C11.7582 15.3936 11.0915 13.2724 10.9097 11.5149Z" fill="#D81F28"/>
<path d="M31.2125 31.6966C33.2208 31.6966 34.8489 30.0685 34.8489 28.0602C34.8489 26.0519 33.2208 24.4238 31.2125 24.4238C29.2042 24.4238 27.5762 26.0519 27.5762 28.0602C27.5762 30.0685 29.2042 31.6966 31.2125 31.6966Z" fill="black"/>
<path d="M38.4251 37.5152V39.0909C38.4251 39.4545 38.1826 39.697 37.819 39.697H28.7887C28.8493 39.5152 28.9099 39.3333 28.9099 39.0909V37.2121C28.9099 35.3939 28.2433 33.7576 27.1523 32.5455C27.8796 32.1818 28.6675 32 29.4554 32C29.6978 32 29.9402 32.1212 30.0008 32.303L31.1523 34.6061L32.3039 32.303C32.4251 32.1212 32.6069 32 32.8493 32H32.9099C35.9402 32 38.4251 34.4848 38.4251 37.5152Z" fill="black"/>
</svg>
