<svg width="40" height="41" viewBox="0 0 40 41" fill="none" xmlns="http://www.w3.org/2000/svg">
<path d="M12 13.3333V17.3333H1.33333V13.3333C1.33333 11.1333 3.13333 9.33333 5.33333 9.33333H8C10.2 9.33333 12 11.1333 12 13.3333ZM21.3333 9.33333H18.6667C16.4667 9.33333 14.6667 11.1333 14.6667 13.3333V17.3333H25.3333V13.3333C25.3333 11.1333 23.5333 9.33333 21.3333 9.33333ZM34.6667 9.33333H32C29.8 9.33333 28 11.1333 28 13.3333V17.3333H38.6667V13.3333C38.6667 11.1333 36.8667 9.33333 34.6667 9.33333ZM6.66667 8C8.872 8 10.6667 6.20533 10.6667 4C10.6667 1.79467 8.872 0 6.66667 0C4.46133 0 2.66667 1.79467 2.66667 4C2.66667 6.20533 4.46133 8 6.66667 8ZM20 8C22.2053 8 24 6.20533 24 4C24 1.79467 22.2053 0 20 0C17.7947 0 16 1.79467 16 4C16 6.20533 17.7947 8 20 8ZM33.3333 8C35.5387 8 37.3333 6.20533 37.3333 4C37.3333 1.79467 35.5387 0 33.3333 0C31.128 0 29.3333 1.79467 29.3333 4C29.3333 6.20533 31.128 8 33.3333 8ZM38.6667 20H1.33333C0.6 20 0 20.6 0 21.3333V26.6667C0 30.3467 2.98667 33.3333 6.66667 33.3333H12.12C12.7467 29.5467 16.04 26.6667 20 26.6667C23.96 26.6667 27.2533 29.5467 27.88 33.3333H33.3333C37.0133 33.3333 40 30.3467 40 26.6667V21.3333C40 20.6 39.4 20 38.6667 20ZM26 34.6667L19.3333 29.3333V33.3333H15.3333C14.5973 33.3333 14 33.9307 14 34.6667C14 35.4027 14.5973 36 15.3333 36H19.3333V40L26 34.6667Z" fill="black"/>
<path d="M25.8662 35.1995L19.1995 29.8662V33.8662H15.1995C14.4635 33.8662 13.8662 34.4635 13.8662 35.1995C13.8662 35.9355 14.4635 36.5329 15.1995 36.5329H19.1995V40.5329L25.8662 35.1995Z" fill="#D81F28"/>
</svg>
