<svg width="40" height="40" viewBox="0 0 40 40" fill="none" xmlns="http://www.w3.org/2000/svg">
<g clip-path="url(#clip0_563_1811)">
<rect x="7" y="22" width="27" height="11" fill="#D81F28"/>
<path d="M20 0C8.95626 0 0 8.95622 0 20C0 31.0438 8.95626 40 20 40C31.0437 40 40 31.0437 40 20C40 8.95626 31.0437 0 20 0ZM20 7.5C23.1125 7.5 25.7062 9.70623 26.325 12.6312H28.7438L29.5063 11.8687C29.6812 11.7 29.9625 11.7 30.1375 11.8687C30.3125 12.0437 30.3125 12.3312 30.1375 12.5063L29.5625 13.0812L30.1375 13.6562C30.3125 13.8313 30.3125 14.1125 30.1375 14.2875C30.05 14.375 29.9375 14.4187 29.8188 14.4187C29.7063 14.4187 29.5937 14.375 29.5063 14.2875L28.7438 13.525H20C19.7563 13.525 19.5562 13.725 19.5562 13.975C19.5562 14.2187 19.7563 14.4187 20 14.4187H22.525C22.3125 15.625 21.2625 16.5375 20 16.5375C18.5875 16.5375 17.4313 15.3875 17.4313 13.975C17.4313 12.5562 18.5875 11.4062 20 11.4062C20.925 11.4062 21.7313 11.9 22.1813 12.6312H23.1875C22.6625 11.3875 21.4312 10.5125 20 10.5125C18.0938 10.5125 16.5375 12.0687 16.5375 13.975C16.5375 15.8812 18.0938 17.4312 20 17.4312C21.7563 17.4312 23.2125 16.1187 23.4313 14.4187H26.4563C26.225 17.7812 23.4187 20.4437 20 20.4437C16.4312 20.4437 13.525 17.5437 13.525 13.975C13.525 10.4 16.4312 7.5 20 7.5ZM15.0875 31.0062V32.5H9.28749C9.03751 32.5 8.83751 32.3 8.83751 32.0562V31.0062C8.83751 29.9375 9.25624 28.9312 10.0188 28.1688C10.3688 27.8188 10.775 27.55 11.2062 27.35C10.4937 26.8375 10.0312 26.0062 10.0312 25.0562C10.0312 23.5 11.3 22.2313 12.8562 22.2313C14.4125 22.2313 15.6813 23.5 15.6813 25.0562C15.6813 26.0062 15.2187 26.8375 14.5063 27.35C15.0312 27.5875 15.4937 27.9312 15.8688 28.3562C15.3625 29.1438 15.0875 30.0562 15.0875 31.0062ZM24.0187 32.5H15.9812V31.0062C15.9812 29.9375 16.4 28.9312 17.1625 28.1688C17.5063 27.8188 17.9125 27.55 18.35 27.35C17.6875 26.8687 17.2375 26.1125 17.1812 25.2438C17.075 23.675 18.35 22.275 19.9187 22.2313C21.5125 22.1875 22.825 23.475 22.825 25.0562C22.825 26.0062 22.3625 26.8375 21.65 27.35C23.0437 27.9812 24.0187 29.3813 24.0187 31.0062L24.0187 32.5ZM31.1625 32.0562C31.1625 32.3 30.9625 32.5 30.7125 32.5H24.9125V31.0062C24.9125 30.0562 24.6312 29.1375 24.1312 28.3625C24.1813 28.2937 24.2437 28.2312 24.3063 28.1688C24.65 27.8188 25.0563 27.55 25.4937 27.35C24.7813 26.8375 24.3187 26.0062 24.3187 25.0562C24.3187 23.5 25.5875 22.2313 27.1437 22.2313C28.7 22.2313 29.9688 23.5 29.9688 25.0562C29.9688 26.0062 29.5063 26.8375 28.7938 27.35C30.1875 27.9812 31.1625 29.3813 31.1625 31.0062L31.1625 32.0562Z" fill="black"/>
</g>
<defs>
<clipPath id="clip0_563_1811">
<rect width="40" height="40" fill="white"/>
</clipPath>
</defs>
</svg>
