<svg width="104" height="104" viewBox="0 0 104 104" fill="none" xmlns="http://www.w3.org/2000/svg">
<circle cx="52" cy="52" r="49.5" stroke="#B8B8B8"/>
<g filter="url(#filter0_d_563_1867)">
<circle cx="51.8571" cy="51.8571" r="42.8571" fill="white"/>
</g>
<path d="M44.6442 42.1035H47.2596C47.7426 42.1035 48.1346 41.7115 48.1346 41.2285C48.1346 40.7455 47.7426 40.3535 47.2596 40.3535H44.6442C42.9773 40.3535 41.6211 41.7098 41.6211 43.3766V43.8903C41.6211 45.5571 42.9773 46.9134 44.6442 46.9134H45.1115C45.8132 46.9134 46.3846 47.4839 46.3846 48.1865C46.3846 48.8891 45.8132 49.4596 45.1115 49.4596H42.497C42.014 49.4596 41.622 49.8516 41.622 50.3346C41.622 50.8176 42.014 51.2096 42.497 51.2096H45.1115C46.7783 51.2096 48.1346 49.8534 48.1346 48.1865C48.1346 46.5196 46.7783 45.1634 45.1115 45.1634H44.6442C43.9425 45.1634 43.3711 44.592 43.3711 43.8903V43.3766C43.3711 42.6749 43.9425 42.1035 44.6442 42.1035Z" fill="#D81F28"/>
<path d="M55.2371 50.3346C55.2371 49.8516 54.8451 49.4596 54.3621 49.4596H51.7511C51.0371 49.4596 50.4561 48.8786 50.4561 48.1646V46.657H54.3621C54.8451 46.657 55.2371 46.265 55.2371 45.782C55.2371 45.299 54.8451 44.907 54.3621 44.907H50.4561V43.3985C50.4561 42.6845 51.0371 42.1035 51.7511 42.1035H54.3621C54.8451 42.1035 55.2371 41.7115 55.2371 41.2285C55.2371 40.7455 54.8451 40.3535 54.3621 40.3535H51.7511C50.0719 40.3535 48.7061 41.7203 48.7061 43.3985V48.1638C48.7061 49.8429 50.0728 51.2088 51.7511 51.2088H54.3621C54.8451 51.2096 55.2371 50.8176 55.2371 50.3346Z" fill="#D81F28"/>
<path d="M58.9805 51.2096H59.1284C60.9186 51.2096 62.3755 49.7528 62.3755 47.9616V43.6015C62.3755 41.8104 60.9186 40.3535 59.1284 40.3535H58.9805C57.1903 40.3535 55.7334 41.8104 55.7334 43.6015V47.9616C55.7334 49.7528 57.1903 51.2096 58.9805 51.2096ZM57.4834 43.6015C57.4834 42.7755 58.1554 42.1035 58.9805 42.1035H59.1284C59.9544 42.1035 60.6255 42.7755 60.6255 43.6015V47.9616C60.6255 48.7876 59.9535 49.4596 59.1284 49.4596H58.9805C58.1545 49.4596 57.4834 48.7876 57.4834 47.9616V43.6015Z" fill="#D81F28"/>
<path d="M51.9992 25.75C40.968 25.75 31.9932 34.7249 31.9932 45.756C31.9932 52.8286 39.8813 62.8334 45.8269 69.3705C42.1257 69.7616 35.7513 70.844 35.7513 73.6536C35.7513 77.2893 46.3799 78.25 52 78.25C57.6202 78.25 68.2479 77.2893 68.2479 73.6536C68.2479 70.844 61.8718 69.7616 58.1705 69.3705C64.1162 62.8334 72.0043 52.8277 72.0043 45.756C72.0043 34.7249 63.0294 25.75 51.9992 25.75ZM51.9992 27.5C62.0652 27.5 70.2552 35.6891 70.2552 45.756C70.2552 54.2435 56.9429 68.3091 52.8637 72.4181C52.6327 72.6509 52.3255 72.7786 52 72.7786C51.6745 72.7786 51.3674 72.6509 51.1364 72.4181C47.0563 68.31 33.744 54.2453 33.744 45.756C33.7432 35.6891 41.9323 27.5 51.9992 27.5ZM66.4979 73.6536C66.4979 74.505 61.5655 76.5 52 76.5C42.4345 76.5 37.5013 74.505 37.5013 73.6536C37.5013 73.0823 40.3433 71.5317 47.3258 70.9919C48.2813 72.0078 49.1554 72.9081 49.893 73.651C50.4548 74.2163 51.202 74.5286 51.9974 74.5286C52.7928 74.5286 53.5409 74.2171 54.1027 73.651C54.8403 72.9081 55.7153 72.0078 56.6699 70.9919C63.6559 71.5309 66.4979 73.0814 66.4979 73.6536Z" fill="#D81F28"/>
<path d="M67.019 45.7556C67.019 37.4737 60.2806 30.7354 51.9988 30.7354C43.7169 30.7354 36.9785 37.4737 36.9785 45.7556C36.9785 54.0375 43.716 60.7759 51.9988 60.7759C60.2815 60.7759 67.019 54.0375 67.019 45.7556ZM38.7285 45.7556C38.7285 38.438 44.6811 32.4854 51.9988 32.4854C59.3164 32.4854 65.269 38.438 65.269 45.7556C65.269 53.0732 59.3155 59.0259 51.9988 59.0259C44.682 59.0259 38.7285 53.0732 38.7285 45.7556Z" fill="#D81F28"/>
<defs>
<filter id="filter0_d_563_1867" x="0" y="0" width="103.714" height="103.714" filterUnits="userSpaceOnUse" color-interpolation-filters="sRGB">
<feFlood flood-opacity="0" result="BackgroundImageFix"/>
<feColorMatrix in="SourceAlpha" type="matrix" values="0 0 0 0 0 0 0 0 0 0 0 0 0 0 0 0 0 0 127 0" result="hardAlpha"/>
<feOffset/>
<feGaussianBlur stdDeviation="4.5"/>
<feComposite in2="hardAlpha" operator="out"/>
<feColorMatrix type="matrix" values="0 0 0 0 0 0 0 0 0 0 0 0 0 0 0 0 0 0 0.1 0"/>
<feBlend mode="normal" in2="BackgroundImageFix" result="effect1_dropShadow_563_1867"/>
<feBlend mode="normal" in="SourceGraphic" in2="effect1_dropShadow_563_1867" result="shape"/>
</filter>
</defs>
</svg>
