<svg width="40" height="40" viewBox="0 0 40 40" fill="none" xmlns="http://www.w3.org/2000/svg">
<rect x="12" y="6" width="16" height="10" fill="#D81F28"/>
<path d="M36.4288 29.1889H35.286V12.696C35.286 11.1174 34.0074 9.83887 32.4289 9.83887H31.586V11.2674H32.4289C33.2146 11.2674 33.8574 11.9103 33.8574 12.696V29.1889H25.3788C24.986 29.1889 24.6645 29.5103 24.6645 29.9032V31.3603H15.3289V29.9032C15.3289 29.5103 15.0074 29.1889 14.6146 29.1889H6.14312V12.696C6.14312 11.9103 6.78599 11.2674 7.57169 11.2674H8.42169V9.83887H7.57169C5.99315 9.83887 4.71455 11.1174 4.71455 12.696V29.1889H3.57171C3.17886 29.1889 2.85742 29.5103 2.85742 29.9032V32.5746C2.85742 34.4889 4.42171 36.046 6.33599 36.046H33.6717C35.586 36.046 37.1431 34.4889 37.1431 32.5746V29.9032C37.1431 29.5103 36.8288 29.1889 36.4288 29.1889Z" fill="black"/>
<path d="M16.3792 8.59961C15.7605 8.59961 15.2568 9.10324 15.2568 9.72266V10.7843H17.5022V9.72266C17.5022 9.42271 17.3857 9.1409 17.1737 8.92955C16.9609 8.7168 16.6784 8.59961 16.3792 8.59961Z" fill="black"/>
<path d="M24.0174 12.8616C24.489 12.3908 24.7485 11.7637 24.7485 11.0961C24.7485 9.71987 23.6282 8.59961 22.252 8.59961H22.1787V13.5926H22.252C22.9188 13.5926 23.5459 13.3331 24.0174 12.8616Z" fill="black"/>
<path d="M18.3353 27.6888H21.671C22.0639 27.6888 22.3853 27.3674 22.3853 26.9745V18.2388H27.6425C29.0282 18.2388 30.1567 17.1103 30.1567 15.7174V6.47453C30.1567 5.08171 29.0282 3.95312 27.6425 3.95312H12.3639C10.9782 3.95312 9.84961 5.08171 9.84961 6.47453V15.7174C9.84961 17.1103 10.9782 18.2388 12.3639 18.2388H17.621V26.9745C17.621 27.3674 17.9353 27.6888 18.3353 27.6888ZM20.7494 7.88527C20.7494 7.49046 21.0689 7.17099 21.4637 7.17099H22.2512C24.4157 7.17099 26.1763 8.93159 26.1763 11.0961C26.1763 12.1459 25.7682 13.1315 25.0267 13.8723C24.2853 14.6131 23.2996 15.0212 22.2512 15.0212H21.4637C21.0689 15.0212 20.7494 14.7017 20.7494 14.3069V7.88527ZM17.5023 14.3069V12.2128H15.2569V14.3069C15.2569 14.7017 14.9375 15.0212 14.5426 15.0212C14.1478 15.0212 13.8284 14.7017 13.8284 14.3069V9.7226C13.8284 8.31566 14.973 7.17099 16.3793 7.17099C17.0601 7.17099 17.7011 7.43675 18.1831 7.91875C18.6651 8.39936 18.9309 9.04041 18.9309 9.7226V14.3069C18.9309 14.7017 18.6114 15.0212 18.2166 15.0212C17.8218 15.0212 17.5023 14.7017 17.5023 14.3069Z" fill="black"/>
</svg>
