<svg width="40" height="40" viewBox="0 0 40 40" fill="none" xmlns="http://www.w3.org/2000/svg">
<circle cx="20" cy="24" r="9" fill="#D81F28"/>
<path d="M34.7059 1.875H5.28711C4.45831 1.875 3.66345 2.20424 3.0774 2.79029C2.49135 3.37634 2.16211 4.1712 2.16211 5V28.125C2.16211 28.9538 2.49135 29.7487 3.0774 30.3347C3.66345 30.9208 4.45831 31.25 5.28711 31.25H10.5621C11.6307 32.6765 12.9996 33.8508 14.5721 34.69C16.1446 35.5292 17.8822 36.0126 19.6621 36.1063V37.5C19.6621 37.6658 19.728 37.8247 19.8452 37.9419C19.9624 38.0592 20.1213 38.125 20.2871 38.125C20.4529 38.125 20.6118 38.0592 20.7291 37.9419C20.8463 37.8247 20.9121 37.6658 20.9121 37.5V36.1313C22.6923 36.0346 24.4293 35.5471 25.9999 34.7035C27.5705 33.8599 28.936 32.6808 29.9996 31.25H34.6934C35.1037 31.25 35.5101 31.1692 35.8892 31.0121C36.2684 30.8551 36.6129 30.6249 36.9031 30.3347C37.1933 30.0445 37.4234 29.7 37.5805 29.3209C37.7375 28.9417 37.8184 28.5354 37.8184 28.125V5C37.8184 4.17336 37.4908 3.38039 36.9075 2.7947C36.3241 2.20901 35.5325 1.87831 34.7059 1.875ZM27.9059 4.86875H33.3996C33.4817 4.86875 33.563 4.88492 33.6388 4.91633C33.7146 4.94773 33.7835 4.99377 33.8416 5.05181C33.8996 5.10984 33.9456 5.17874 33.977 5.25457C34.0084 5.3304 34.0246 5.41167 34.0246 5.49375C34.0246 5.57583 34.0084 5.6571 33.977 5.73293C33.9456 5.80876 33.8996 5.87766 33.8416 5.93569C33.7835 5.99373 33.7146 6.03977 33.6388 6.07117C33.563 6.10258 33.4817 6.11875 33.3996 6.11875H27.9059C27.7401 6.11875 27.5811 6.0529 27.4639 5.93569C27.3467 5.81848 27.2809 5.65951 27.2809 5.49375C27.2809 5.32799 27.3467 5.16902 27.4639 5.05181C27.5811 4.9346 27.7401 4.86875 27.9059 4.86875ZM12.5746 4.86875H13.2746C13.3567 4.86875 13.438 4.88492 13.5138 4.91633C13.5896 4.94773 13.6585 4.99377 13.7166 5.05181C13.7746 5.10984 13.8206 5.17874 13.852 5.25457C13.8834 5.3304 13.8996 5.41167 13.8996 5.49375C13.8996 5.57583 13.8834 5.6571 13.852 5.73293C13.8206 5.80876 13.7746 5.87766 13.7166 5.93569C13.6585 5.99373 13.5896 6.03977 13.5138 6.07117C13.438 6.10258 13.3567 6.11875 13.2746 6.11875H12.5746C12.4088 6.11875 12.2499 6.0529 12.1327 5.93569C12.0155 5.81848 11.9496 5.65951 11.9496 5.49375C11.9496 5.32799 12.0155 5.16902 12.1327 5.05181C12.2499 4.9346 12.4088 4.86875 12.5746 4.86875ZM9.87461 4.86875H10.5809C10.6629 4.86875 10.7442 4.88492 10.82 4.91633C10.8959 4.94773 10.9648 4.99377 11.0228 5.05181C11.0808 5.10984 11.1269 5.17874 11.1583 5.25457C11.1897 5.3304 11.2059 5.41167 11.2059 5.49375C11.2059 5.57583 11.1897 5.6571 11.1583 5.73293C11.1269 5.80876 11.0808 5.87766 11.0228 5.93569C10.9648 5.99373 10.8959 6.03977 10.82 6.07117C10.7442 6.10258 10.6629 6.11875 10.5809 6.11875H9.87461C9.70885 6.11875 9.54988 6.0529 9.43267 5.93569C9.31546 5.81848 9.24961 5.65951 9.24961 5.49375C9.24961 5.32799 9.31546 5.16902 9.43267 5.05181C9.54988 4.9346 9.70885 4.86875 9.87461 4.86875ZM7.18086 4.86875H7.88711C7.96919 4.86875 8.05046 4.88492 8.12629 4.91633C8.20212 4.94773 8.27101 4.99377 8.32905 5.05181C8.38709 5.10984 8.43313 5.17874 8.46453 5.25457C8.49594 5.3304 8.51211 5.41167 8.51211 5.49375C8.51211 5.57583 8.49594 5.6571 8.46453 5.73293C8.43313 5.80876 8.38709 5.87766 8.32905 5.93569C8.27101 5.99373 8.20212 6.03977 8.12629 6.07117C8.05046 6.10258 7.96919 6.11875 7.88711 6.11875H7.18086C7.0151 6.11875 6.85613 6.0529 6.73892 5.93569C6.62171 5.81848 6.55586 5.65951 6.55586 5.49375C6.55586 5.32799 6.62171 5.16902 6.73892 5.05181C6.85613 4.9346 7.0151 4.86875 7.18086 4.86875ZM12.1809 23.3687H12.0371C12.1902 21.4004 13.0436 19.5521 14.4424 18.1589C15.8413 16.7658 17.6932 15.92 19.6621 15.775V15.9187C19.6621 16.0845 19.728 16.2435 19.8452 16.3607C19.9624 16.4779 20.1213 16.5437 20.2871 16.5437C20.4529 16.5437 20.6118 16.4779 20.7291 16.3607C20.8463 16.2435 20.9121 16.0845 20.9121 15.9187V15.775C22.8766 15.9257 24.7225 16.774 26.1162 18.1666C27.51 19.5592 28.3598 21.4044 28.5121 23.3687H28.3684C28.2026 23.3687 28.0436 23.4346 27.9264 23.5518C27.8092 23.669 27.7434 23.828 27.7434 23.9937C27.7434 24.1595 27.8092 24.3185 27.9264 24.4357C28.0436 24.5529 28.2026 24.6187 28.3684 24.6187H28.5121C28.3612 26.5842 27.512 28.4309 26.1181 29.8248C24.7242 31.2187 22.8776 32.0678 20.9121 32.2188V32.075C20.9121 31.9092 20.8463 31.7503 20.7291 31.6331C20.6118 31.5158 20.4529 31.45 20.2871 31.45C20.1213 31.45 19.9624 31.5158 19.8452 31.6331C19.728 31.7503 19.6621 31.9092 19.6621 32.075V32.2188C17.6977 32.0664 15.8526 31.2166 14.46 29.8229C13.0673 28.4291 12.2191 26.5833 12.0684 24.6187H12.2121C12.3779 24.6187 12.5368 24.5529 12.6541 24.4357C12.7713 24.3185 12.8371 24.1595 12.8371 23.9937C12.8371 23.828 12.7713 23.669 12.6541 23.5518C12.5368 23.4346 12.3779 23.3687 12.2121 23.3687H12.1809ZM36.5559 28.15C36.5559 28.6473 36.3583 29.1242 36.0067 29.4758C35.6551 29.8275 35.1781 30.025 34.6809 30.025H30.8434C31.7884 28.3724 32.3302 26.5201 32.4246 24.6187H33.7934C33.9591 24.6187 34.1181 24.5529 34.2353 24.4357C34.3525 24.3185 34.4184 24.1595 34.4184 23.9937C34.4184 23.828 34.3525 23.669 34.2353 23.5518C34.1181 23.4346 33.9591 23.3687 33.7934 23.3687H32.4246C32.2635 20.3695 30.9984 17.536 28.8728 15.4139C26.7472 13.2917 23.9116 12.0312 20.9121 11.875V10.4938C20.9121 10.328 20.8463 10.169 20.7291 10.0518C20.6118 9.9346 20.4529 9.86875 20.2871 9.86875C20.1213 9.86875 19.9624 9.9346 19.8452 10.0518C19.728 10.169 19.6621 10.328 19.6621 10.4938V11.875C16.6637 12.0327 13.8296 13.2939 11.7054 15.4159C9.5811 17.5378 8.31681 20.3705 8.15586 23.3687H6.78711C6.62135 23.3687 6.46238 23.4346 6.34517 23.5518C6.22796 23.669 6.16211 23.828 6.16211 23.9937C6.16211 24.1595 6.22796 24.3185 6.34517 24.4357C6.46238 24.5529 6.62135 24.6187 6.78711 24.6187H8.15586C8.2514 26.5121 8.79322 28.356 9.73711 30H5.28711C4.78983 30 4.31291 29.8025 3.96128 29.4508C3.60965 29.0992 3.41211 28.6223 3.41211 28.125V9.10625H36.5809L36.5559 28.15Z" fill="black"/>
<path d="M20.2871 30.0003C21.2836 30.0043 22.2706 29.8059 23.1881 29.417C24.1056 29.028 24.9346 28.4568 25.6246 27.7378C25.7017 27.6556 25.7552 27.5542 25.7794 27.4442C25.8036 27.3342 25.7976 27.2197 25.7621 27.1128C25.4863 26.3442 25.0515 25.6425 24.4861 25.0534C23.9207 24.4643 23.2374 24.0011 22.4808 23.694C22.9783 23.2533 23.3298 22.6717 23.4888 22.0264C23.6478 21.3811 23.6068 20.7027 23.3711 20.0814C23.1354 19.46 22.7163 18.925 22.1693 18.5475C21.6224 18.17 20.9735 17.9678 20.309 17.9678C19.6444 17.9678 18.9955 18.17 18.4486 18.5475C17.9016 18.925 17.4825 19.46 17.2468 20.0814C17.0111 20.7027 16.9701 21.3811 17.1291 22.0264C17.2881 22.6717 17.6397 23.2533 18.1371 23.694C17.3805 24.0011 16.6972 24.4643 16.1318 25.0534C15.5664 25.6425 15.1316 26.3442 14.8558 27.1128C14.8195 27.2191 14.8125 27.3333 14.8356 27.4433C14.8587 27.5533 14.911 27.655 14.9871 27.7378C15.6734 28.4513 16.4964 29.0194 17.407 29.4081C18.3175 29.7968 19.297 29.9982 20.2871 30.0003ZM20.2871 19.2065C20.6853 19.2065 21.0746 19.3243 21.406 19.5451C21.7374 19.7658 21.9962 20.0796 22.1497 20.4471C22.3032 20.8145 22.3446 21.2191 22.2687 21.61C22.1928 22.0009 22.003 22.3606 21.7232 22.6439C21.4433 22.9272 21.086 23.1214 20.696 23.2021C20.3061 23.2828 19.901 23.2464 19.5317 23.0974C19.1624 22.9485 18.8454 22.6936 18.6206 22.3649C18.3958 22.0363 18.2733 21.6484 18.2683 21.2503C18.2667 20.9844 18.3177 20.7208 18.4185 20.4748C18.5193 20.2288 18.6678 20.0052 18.8555 19.8169C19.0433 19.6286 19.2664 19.4794 19.5121 19.3778C19.7578 19.2763 20.0212 19.2244 20.2871 19.2253V19.2065Z" fill="black"/>
</svg>
