<svg width="40" height="40" viewBox="0 0 40 40" fill="none" xmlns="http://www.w3.org/2000/svg">
<circle cx="20" cy="13" r="7" fill="#D81F28"/>
<path d="M15.8436 23.6183L14.6373 32.6183C14.5347 33.3828 14.5967 34.1604 14.8192 34.899C15.0416 35.6375 15.4195 36.32 15.9273 36.9006C16.4352 37.4812 17.0613 37.9464 17.7636 38.2652C18.466 38.584 19.2285 38.749 19.9998 38.749C20.7712 38.749 21.5336 38.584 22.236 38.2652C22.9384 37.9464 23.5645 37.4812 24.0723 36.9006C24.5802 36.32 24.958 35.6375 25.1805 34.899C25.403 34.1604 25.465 33.3828 25.3623 32.6183L24.1561 23.6183C26.679 22.6477 28.7826 20.8246 30.1022 18.4653C31.4217 16.106 31.8738 13.3593 31.3802 10.7016C30.8866 8.04381 29.4783 5.64264 27.3997 3.9145C25.321 2.18635 22.703 1.24023 19.9998 1.24023C17.2966 1.24023 14.6787 2.18635 12.6 3.9145C10.5213 5.64264 9.11307 8.04381 8.61945 10.7016C8.12582 13.3593 8.57798 16.106 9.89749 18.4653C11.217 20.8246 13.3206 22.6477 15.8436 23.6183ZM23.1311 36.0746C22.5432 36.7481 21.754 37.2143 20.8804 37.4041C20.0067 37.5939 19.0952 37.4972 18.2809 37.1283C17.4665 36.7593 16.7927 36.1378 16.3593 35.3559C15.926 34.5739 15.7561 33.6731 15.8748 32.787L17.0561 24.0058C18.9845 24.5391 21.0214 24.5391 22.9498 24.0058L24.1248 32.787C24.2036 33.3742 24.1556 33.9714 23.9842 34.5385C23.8128 35.1056 23.5219 35.6293 23.1311 36.0746ZM19.9998 2.49955C22.0428 2.49893 24.0401 3.10422 25.739 4.23885C27.4379 5.37348 28.7622 6.98648 29.5443 8.87383C30.3264 10.7612 30.5312 12.8381 30.1328 14.8418C29.7344 16.8456 28.7506 18.6862 27.306 20.1308C25.8614 21.5754 24.0209 22.5591 22.0171 22.9575C20.0134 23.3559 17.9365 23.1511 16.0491 22.369C14.1618 21.5869 12.5488 20.2627 11.4141 18.5637C10.2795 16.8648 9.67421 14.8675 9.67483 12.8245C9.6778 10.0871 10.7666 7.46263 12.7022 5.52696C14.6379 3.59129 17.2624 2.50253 19.9998 2.49955Z" fill="black"/>
<path d="M19.9996 21.5752C21.7305 21.5764 23.4228 21.0643 24.8625 20.1036C26.3023 19.1429 27.4248 17.7768 28.088 16.178C28.7512 14.5793 28.9254 12.8197 28.5885 11.122C28.2516 9.42424 27.4187 7.86456 26.1953 6.64023C24.9718 5.41589 23.4127 4.58191 21.7152 4.24379C20.0177 3.90566 18.258 4.07857 16.6588 4.74065C15.0596 5.40274 13.6927 6.52424 12.7309 7.96331C11.7692 9.40237 11.2559 11.0943 11.2559 12.8252C11.257 15.1444 12.1784 17.3684 13.8177 19.0089C15.4571 20.6494 17.6804 21.5724 19.9996 21.5752ZM22.3496 8.8877C22.2879 8.8286 22.2389 8.75747 22.2057 8.6787C22.1726 8.59993 22.1559 8.5152 22.1568 8.42973C22.1577 8.34427 22.1761 8.2599 22.2108 8.18182C22.2456 8.10375 22.296 8.03365 22.359 7.97584C22.4219 7.91803 22.4961 7.87374 22.5768 7.84572C22.6576 7.81769 22.7432 7.80653 22.8284 7.81291C22.9137 7.8193 22.9967 7.84309 23.0723 7.88283C23.148 7.92257 23.2147 7.9774 23.2684 8.04395L24.5934 9.5002C24.6186 9.53056 24.6396 9.56419 24.6559 9.6002C24.6768 9.6279 24.6956 9.65715 24.7121 9.6877C24.7683 9.83673 24.7683 10.0012 24.7121 10.1502C24.6956 10.1807 24.6768 10.21 24.6559 10.2377C24.6411 10.2745 24.6199 10.3083 24.5934 10.3377L23.2684 11.7939C23.2096 11.8578 23.138 11.9086 23.0584 11.9431C22.9787 11.9776 22.8927 11.9949 22.8059 11.9939C22.6505 11.996 22.5004 11.9377 22.3871 11.8314C22.3261 11.7765 22.2766 11.7099 22.2416 11.6356C22.2066 11.5613 22.1867 11.4808 22.1832 11.3987C22.1797 11.3166 22.1927 11.2347 22.2212 11.1577C22.2498 11.0807 22.2934 11.0101 22.3496 10.9502L22.7184 10.5439H18.4246C18.0859 10.5441 17.7611 10.6783 17.521 10.9172C17.2809 11.1561 17.1452 11.4803 17.1434 11.8189C17.1434 11.9847 17.0775 12.1437 16.9603 12.2609C16.8431 12.3781 16.6841 12.4439 16.5184 12.4439C16.3526 12.4439 16.1936 12.3781 16.0764 12.2609C15.9592 12.1437 15.8934 11.9847 15.8934 11.8189C15.8937 11.4869 15.9594 11.1582 16.0868 10.8516C16.2142 10.545 16.4008 10.2665 16.6359 10.032C16.8709 9.79754 17.1499 9.61167 17.4568 9.48502C17.7637 9.35838 18.0926 9.29345 18.4246 9.29395H22.7184L22.3496 8.8877ZM15.2871 15.5002C15.3022 15.4707 15.3211 15.4434 15.3434 15.4189C15.358 15.3802 15.3792 15.3443 15.4059 15.3127L16.7309 13.8627C16.7851 13.7995 16.8514 13.7479 16.9259 13.7108C17.0005 13.6737 17.0817 13.652 17.1648 13.6469C17.2479 13.6418 17.3311 13.6534 17.4096 13.6811C17.4881 13.7088 17.5603 13.7519 17.6218 13.808C17.6833 13.8641 17.733 13.9319 17.7678 14.0076C17.8026 14.0832 17.8218 14.165 17.8244 14.2482C17.827 14.3314 17.8129 14.4143 17.7829 14.4919C17.7528 14.5696 17.7075 14.6404 17.6496 14.7002L17.2809 15.1127H21.5746C21.9143 15.1122 22.2399 14.9771 22.48 14.7369C22.7202 14.4967 22.8554 14.1711 22.8559 13.8314C22.8559 13.6657 22.9217 13.5067 23.0389 13.3895C23.1561 13.2723 23.3151 13.2064 23.4809 13.2064C23.6466 13.2064 23.8056 13.2723 23.9228 13.3895C24.04 13.5067 24.1059 13.6657 24.1059 13.8314C24.1055 14.5027 23.8387 15.1463 23.3641 15.6209C22.8895 16.0956 22.2458 16.3624 21.5746 16.3627H17.2809L17.6496 16.7689C17.7058 16.8289 17.7494 16.8994 17.778 16.9764C17.8066 17.0534 17.8195 17.1354 17.816 17.2174C17.8125 17.2995 17.7927 17.3801 17.7577 17.4544C17.7226 17.5287 17.6732 17.5952 17.6121 17.6502C17.4988 17.7565 17.3487 17.8147 17.1934 17.8127C17.1066 17.8136 17.0205 17.7963 16.9409 17.7619C16.8612 17.7274 16.7896 17.6766 16.7309 17.6127L15.4059 16.1564C15.3806 16.1261 15.3596 16.0924 15.3434 16.0564C15.3224 16.0287 15.3036 15.9995 15.2871 15.9689C15.2576 15.8955 15.2427 15.8169 15.2434 15.7377C15.2421 15.6564 15.257 15.5757 15.2871 15.5002Z" fill="black"/>
</svg>
