<svg width="209" height="33" viewBox="0 0 209 33" fill="none" xmlns="http://www.w3.org/2000/svg">
<g clip-path="url(#clip0_261_8824)">
<path d="M16.5001 18.0462L0.0830078 12.576C0.217067 12.2357 0.521278 11.9877 0.882206 11.9367L11.0346 10.4414L16.5001 18.0462Z" fill="#FEC461"/>
<path d="M16.5004 18.0454V27.5172L7.42046 32.364C7.06984 32.5496 6.65271 32.5191 6.33252 32.2815L16.5004 18.0454Z" fill="#F7B84E"/>
<path d="M16.5001 18.0454L6.33175 32.2809C6.01774 32.0494 5.85739 31.6524 5.92493 31.2554L7.65687 20.9952L16.5001 18.0454Z" fill="#FEC461"/>
<path d="M16.5001 18.0463L7.65731 20.9961L0.314481 13.7255C0.0314103 13.447 -0.0722277 13.0289 0.0515192 12.653C0.062347 12.6272 0.0669875 12.6009 0.0829715 12.5762L16.5001 18.0463Z" fill="#F7B84E"/>
<path d="M16.5004 0.515625V18.0464L11.0349 10.4412L15.5775 1.09827C15.7476 0.741979 16.1085 0.515625 16.5004 0.515625Z" fill="#FEC461"/>
<path d="M21.9655 10.4412L16.5 18.0464V0.515625C16.8919 0.515625 17.2528 0.741979 17.4229 1.09827L21.9655 10.4412Z" fill="#F7B84E"/>
<path d="M32.9171 12.5751L16.5 18.0452L21.9655 10.4399L32.1179 11.9352C32.4788 11.9868 32.783 12.2343 32.9171 12.5751Z" fill="#FEC461"/>
<path d="M32.6902 13.7255L25.3427 20.9961L16.5 18.0463L32.9171 12.5762C32.9326 12.6014 32.9377 12.6277 32.9485 12.653C33.0718 13.0294 32.9686 13.447 32.6902 13.7255Z" fill="#F7B84E"/>
<path d="M26.6679 32.2809L16.5 18.0454L25.3427 20.9952L27.0752 31.2554C27.1422 31.6529 26.9824 32.0494 26.6679 32.2809Z" fill="#FEC461"/>
<path d="M26.6679 32.2809C26.3482 32.5186 25.9305 32.5496 25.5804 32.3634L16.5 27.5172V18.0454L26.6679 32.2809Z" fill="#F7B84E"/>
</g>
<g clip-path="url(#clip1_261_8824)">
<path d="M60.5001 18.0462L44.083 12.576C44.2171 12.2357 44.5213 11.9877 44.8822 11.9367L55.0346 10.4414L60.5001 18.0462Z" fill="#FEC461"/>
<path d="M60.5004 18.0454V27.5172L51.4205 32.364C51.0698 32.5496 50.6527 32.5191 50.3325 32.2815L60.5004 18.0454Z" fill="#F7B84E"/>
<path d="M60.5001 18.0454L50.3318 32.2809C50.0177 32.0494 49.8574 31.6524 49.9249 31.2554L51.6569 20.9952L60.5001 18.0454Z" fill="#FEC461"/>
<path d="M60.5001 18.0463L51.6573 20.9961L44.3145 13.7255C44.0314 13.447 43.9278 13.0289 44.0515 12.653C44.0623 12.6272 44.067 12.6009 44.083 12.5762L60.5001 18.0463Z" fill="#F7B84E"/>
<path d="M60.5004 0.515625V18.0464L55.0349 10.4412L59.5775 1.09827C59.7476 0.741979 60.1085 0.515625 60.5004 0.515625Z" fill="#FEC461"/>
<path d="M65.9655 10.4412L60.5 18.0464V0.515625C60.8919 0.515625 61.2528 0.741979 61.4229 1.09827L65.9655 10.4412Z" fill="#F7B84E"/>
<path d="M76.9171 12.5751L60.5 18.0452L65.9655 10.4399L76.1179 11.9352C76.4788 11.9868 76.783 12.2343 76.9171 12.5751Z" fill="#FEC461"/>
<path d="M76.6902 13.7255L69.3427 20.9961L60.5 18.0463L76.9171 12.5762C76.9326 12.6014 76.9377 12.6277 76.9485 12.653C77.0718 13.0294 76.9686 13.447 76.6902 13.7255Z" fill="#F7B84E"/>
<path d="M70.6679 32.2809L60.5 18.0454L69.3427 20.9952L71.0752 31.2554C71.1422 31.6529 70.9824 32.0494 70.6679 32.2809Z" fill="#FEC461"/>
<path d="M70.6679 32.2809C70.3482 32.5186 69.9305 32.5496 69.5804 32.3634L60.5 27.5172V18.0454L70.6679 32.2809Z" fill="#F7B84E"/>
</g>
<g clip-path="url(#clip2_261_8824)">
<path d="M104.5 18.0462L88.083 12.576C88.2171 12.2357 88.5213 11.9877 88.8822 11.9367L99.0346 10.4414L104.5 18.0462Z" fill="#FEC461"/>
<path d="M104.5 18.0454V27.5172L95.4205 32.364C95.0698 32.5496 94.6527 32.5191 94.3325 32.2815L104.5 18.0454Z" fill="#F7B84E"/>
<path d="M104.5 18.0454L94.3318 32.2809C94.0177 32.0494 93.8574 31.6524 93.9249 31.2554L95.6569 20.9952L104.5 18.0454Z" fill="#FEC461"/>
<path d="M104.5 18.0463L95.6573 20.9961L88.3145 13.7255C88.0314 13.447 87.9278 13.0289 88.0515 12.653C88.0623 12.6272 88.067 12.6009 88.083 12.5762L104.5 18.0463Z" fill="#F7B84E"/>
<path d="M104.5 0.515625V18.0464L99.0349 10.4412L103.577 1.09827C103.748 0.741979 104.109 0.515625 104.5 0.515625Z" fill="#FEC461"/>
<path d="M109.965 10.4412L104.5 18.0464V0.515625C104.892 0.515625 105.253 0.741979 105.423 1.09827L109.965 10.4412Z" fill="#F7B84E"/>
<path d="M120.917 12.5751L104.5 18.0452L109.965 10.4399L120.118 11.9352C120.479 11.9868 120.783 12.2343 120.917 12.5751Z" fill="#FEC461"/>
<path d="M120.69 13.7255L113.343 20.9961L104.5 18.0463L120.917 12.5762C120.933 12.6014 120.938 12.6277 120.949 12.653C121.072 13.0294 120.969 13.447 120.69 13.7255Z" fill="#F7B84E"/>
<path d="M114.668 32.2809L104.5 18.0454L113.343 20.9952L115.075 31.2554C115.142 31.6529 114.982 32.0494 114.668 32.2809Z" fill="#FEC461"/>
<path d="M114.668 32.2809C114.348 32.5186 113.931 32.5496 113.58 32.3634L104.5 27.5172V18.0454L114.668 32.2809Z" fill="#F7B84E"/>
</g>
<g clip-path="url(#clip3_261_8824)">
<path d="M148.5 18.0462L132.083 12.576C132.217 12.2357 132.521 11.9877 132.882 11.9367L143.035 10.4414L148.5 18.0462Z" fill="#FEC461"/>
<path d="M148.5 18.0454V27.5172L139.42 32.364C139.07 32.5496 138.653 32.5191 138.333 32.2815L148.5 18.0454Z" fill="#F7B84E"/>
<path d="M148.5 18.0454L138.332 32.2809C138.018 32.0494 137.857 31.6524 137.925 31.2554L139.657 20.9952L148.5 18.0454Z" fill="#FEC461"/>
<path d="M148.5 18.0463L139.657 20.9961L132.314 13.7255C132.031 13.447 131.928 13.0289 132.052 12.653C132.062 12.6272 132.067 12.6009 132.083 12.5762L148.5 18.0463Z" fill="#F7B84E"/>
<path d="M148.5 0.515625V18.0464L143.035 10.4412L147.577 1.09827C147.748 0.741979 148.109 0.515625 148.5 0.515625Z" fill="#FEC461"/>
<path d="M153.965 10.4412L148.5 18.0464V0.515625C148.892 0.515625 149.253 0.741979 149.423 1.09827L153.965 10.4412Z" fill="#F7B84E"/>
<path d="M164.917 12.5751L148.5 18.0452L153.965 10.4399L164.118 11.9352C164.479 11.9868 164.783 12.2343 164.917 12.5751Z" fill="#FEC461"/>
<path d="M164.69 13.7255L157.343 20.9961L148.5 18.0463L164.917 12.5762C164.933 12.6014 164.938 12.6277 164.949 12.653C165.072 13.0294 164.969 13.447 164.69 13.7255Z" fill="#F7B84E"/>
<path d="M158.668 32.2809L148.5 18.0454L157.343 20.9952L159.075 31.2554C159.142 31.6529 158.982 32.0494 158.668 32.2809Z" fill="#FEC461"/>
<path d="M158.668 32.2809C158.348 32.5186 157.931 32.5496 157.58 32.3634L148.5 27.5172V18.0454L158.668 32.2809Z" fill="#F7B84E"/>
</g>
<g clip-path="url(#clip4_261_8824)">
<path d="M192.5 18.0462L176.083 12.576C176.217 12.2357 176.521 11.9877 176.882 11.9367L187.035 10.4414L192.5 18.0462Z" fill="#FEC461"/>
<path d="M192.5 18.0454V27.5172L183.42 32.364C183.07 32.5496 182.653 32.5191 182.333 32.2815L192.5 18.0454Z" fill="#F7B84E"/>
<path d="M192.5 18.0454L182.332 32.2809C182.018 32.0494 181.857 31.6524 181.925 31.2554L183.657 20.9952L192.5 18.0454Z" fill="#FEC461"/>
<path d="M192.5 18.0463L183.657 20.9961L176.314 13.7255C176.031 13.447 175.928 13.0289 176.052 12.653C176.062 12.6272 176.067 12.6009 176.083 12.5762L192.5 18.0463Z" fill="#F7B84E"/>
<path d="M192.5 0.515625V18.0464L187.035 10.4412L191.577 1.09827C191.748 0.741979 192.109 0.515625 192.5 0.515625Z" fill="#FEC461"/>
<path d="M197.965 10.4412L192.5 18.0464V0.515625C192.892 0.515625 193.253 0.741979 193.423 1.09827L197.965 10.4412Z" fill="#F7B84E"/>
<path d="M208.917 12.5751L192.5 18.0452L197.965 10.4399L208.118 11.9352C208.479 11.9868 208.783 12.2343 208.917 12.5751Z" fill="#FEC461"/>
<path d="M208.69 13.7255L201.343 20.9961L192.5 18.0463L208.917 12.5762C208.933 12.6014 208.938 12.6277 208.949 12.653C209.072 13.0294 208.969 13.447 208.69 13.7255Z" fill="#F7B84E"/>
<path d="M202.668 32.2809L192.5 18.0454L201.343 20.9952L203.075 31.2554C203.142 31.6529 202.982 32.0494 202.668 32.2809Z" fill="#FEC461"/>
<path d="M202.668 32.2809C202.348 32.5186 201.931 32.5496 201.58 32.3634L192.5 27.5172V18.0454L202.668 32.2809Z" fill="#F7B84E"/>
</g>
<defs>
<clipPath id="clip0_261_8824">
<rect width="33" height="33" fill="white"/>
</clipPath>
<clipPath id="clip1_261_8824">
<rect width="33" height="33" fill="white" transform="translate(44)"/>
</clipPath>
<clipPath id="clip2_261_8824">
<rect width="33" height="33" fill="white" transform="translate(88)"/>
</clipPath>
<clipPath id="clip3_261_8824">
<rect width="33" height="33" fill="white" transform="translate(132)"/>
</clipPath>
<clipPath id="clip4_261_8824">
<rect width="33" height="33" fill="white" transform="translate(176)"/>
</clipPath>
</defs>
</svg>
