<svg width="104" height="104" viewBox="0 0 104 104" fill="none" xmlns="http://www.w3.org/2000/svg">
<circle cx="52" cy="52" r="49.5" stroke="#B8B8B8"/>
<g filter="url(#filter0_d_563_1840)">
<circle cx="51.8571" cy="51.8571" r="42.8571" fill="white"/>
</g>
<g clip-path="url(#clip0_563_1840)">
<path d="M44.8964 27.3371L44.8633 30.1141L43.9231 30.468C43.4029 30.6674 42.662 30.977 42.2633 31.1652L41.5442 31.5079L39.5747 29.5496L37.6164 27.6025L32.615 32.6145L27.603 37.6159L29.5501 39.5742L31.5085 41.5437L31.1657 42.2627C30.9776 42.6609 30.6679 43.4023 30.4685 43.9226L30.1146 44.8628L27.3376 44.8959L24.5605 44.9183V52V59.0812L27.3376 59.1036L30.1146 59.1367L30.4685 60.0769C30.6679 60.5971 30.9776 61.338 31.1657 61.7367L31.5085 62.4558L29.5501 64.4253L27.603 66.3836L32.615 71.385L37.6164 76.397L39.5747 74.4387C41.3449 72.6797 41.5661 72.4915 41.7654 72.6019C41.8869 72.6791 42.6396 73 43.4253 73.3209L44.8639 73.9072L44.8969 76.6731L44.9193 79.4395H52H59.0812L59.1036 76.6731L59.1366 73.9072L60.5753 73.3209C61.3721 73 62.113 72.6791 62.2351 72.6019C62.4345 72.491 62.6557 72.6791 64.4258 74.4387L66.3841 76.397L71.3855 71.385L76.3975 66.3836L74.4392 64.4253C72.6802 62.6551 72.4921 62.4339 72.6024 62.2346C72.6797 62.1131 73.0006 61.3604 73.3214 60.5747L73.9077 59.1361L76.2312 59.1031L78.5546 59.0807V58.6383C78.5546 58.1959 78.5546 58.1959 78.997 58.1959H79.4394V51.5576V44.9188L76.673 44.8964L73.9072 44.8634L73.3209 43.4247C73 42.6278 72.6791 41.887 72.6018 41.7649C72.491 41.5655 72.6791 41.3443 74.4386 39.5742L76.3969 37.6159L71.3849 32.6145L66.3836 27.6025L64.4253 29.5496L62.4557 31.5079L61.7367 31.1652C61.3386 30.977 60.5971 30.6674 60.0769 30.468L59.1366 30.1141L59.1036 27.3371L59.0812 24.56H52H44.9188L44.8964 27.3371ZM57.311 28.8642V31.387L58.7385 31.863C59.5241 32.1172 60.7522 32.6263 61.4713 32.9807L62.7772 33.6443L64.5809 31.8406L66.3847 30.0368L70.1468 33.7989L73.9089 37.561L72.1152 39.3535L70.3226 41.1461L71.0086 42.5069C71.3738 43.2595 71.894 44.4983 72.1482 45.2733L72.613 46.6895H75.147H77.6698V52V57.3111H75.147H72.6242L72.1376 58.7497C71.8834 59.5354 71.3743 60.7635 71.0092 61.4825L70.3674 62.7772L72.16 64.581L73.9525 66.3954L70.2017 70.1463L66.4508 73.8971L65.6651 73.1557C65.2445 72.7575 64.4258 71.9607 63.8613 71.3962C63.2969 70.8317 62.8102 70.3675 62.799 70.3675C62.7772 70.3675 62.1797 70.6553 61.4713 71.0204C60.7522 71.3743 59.5241 71.8834 58.7385 72.1382L57.311 72.6142V75.137V77.671H52H46.6889V75.1482V72.6254L45.2839 72.1494C44.4982 71.8951 43.2589 71.3749 42.5069 70.9986L41.1461 70.3238L39.3535 72.1152L37.5609 73.9078L33.7989 70.1457L30.0368 66.3836L31.8405 64.5799L33.6443 62.7761L32.9807 61.4702C32.6268 60.7511 32.1177 59.5231 31.8629 58.7374L31.3869 57.3099H28.8641H26.3301V52V46.689H28.8529H31.3757L31.8405 45.2727C32.106 44.4982 32.6038 43.2702 32.9689 42.5511C33.6107 41.2788 33.6219 41.2234 33.4449 41.0134C33.3341 40.8919 32.5265 40.0731 31.6412 39.199L30.0368 37.6164L33.8319 33.8325L37.6158 30.0374L39.1978 31.6418C40.072 32.5271 40.8907 33.3346 41.0122 33.4455C41.2222 33.6225 41.2777 33.6113 42.55 32.9695C43.269 32.6044 44.4971 32.1066 45.2828 31.8411L46.6878 31.3763V28.8535V26.3307H52H57.311V28.8642Z" fill="#D81F28"/>
<path d="M50.5614 37.0192C47.0318 37.4728 44.0996 38.8336 41.6216 41.2018C40.5038 42.2753 39.5306 43.4922 38.8776 44.643C38.6564 45.0524 38.391 45.3844 38.247 45.4287C38.1143 45.4729 37.7268 45.772 37.3841 46.1035C35.7024 47.7079 35.68 50.0313 37.3174 51.6469C38.2028 52.5099 38.9437 52.7977 40.5038 52.8862C41.6546 52.9416 41.8428 52.9747 42.2298 53.2401C42.8827 53.6719 43.1812 54.3579 43.1258 55.2539C43.0703 56.1392 42.7052 56.7474 42.0192 57.0795C41.5544 57.3007 41.3556 57.3119 38.7992 57.3119H36.0664V58.1972V59.0826H37.3729H38.6788L39.3648 60.1337C41.5779 63.5083 45.2846 65.9868 49.3121 66.7944C50.6398 67.0486 53.3508 67.0598 54.6786 66.7944C57.5665 66.2192 60.222 64.8579 62.3018 62.8777C63.4084 61.8154 64.1829 60.8864 64.8134 59.8459C65.2452 59.1487 65.2452 59.1375 65.9312 59.0048C67.4135 58.7063 68.631 57.7324 69.2946 56.338L69.6485 55.5966V52.0003V48.4045L69.2946 47.6631C68.6304 46.2692 67.4135 45.2954 65.9312 44.9964C65.2452 44.8636 65.2452 44.8524 64.8134 44.1552C62.7112 40.6922 58.8276 38.0143 54.7558 37.2286C53.8369 37.0522 51.3141 36.9301 50.5614 37.0192ZM54.2238 38.8996C58.0414 39.5414 61.1611 41.6436 63.33 45.0406L63.5182 45.3391L63.0315 45.6157C62.3455 46.0139 61.6595 46.8108 61.2614 47.6625L60.9074 48.404V52.0003V55.596L61.2614 56.3375C61.6595 57.1892 62.3455 57.9861 63.0315 58.3843L63.5182 58.6609L63.297 59.0148C61.3056 62.157 58.3398 64.2374 54.7665 65.0119C53.4499 65.2997 50.5508 65.2997 49.2342 65.0119C46.6896 64.4586 44.4989 63.286 42.6839 61.4822C41.9755 60.785 40.8253 59.3469 40.8253 59.17C40.8253 59.1369 41.0577 59.0815 41.3562 59.0372C42.1194 58.9376 43.1263 58.4067 43.7238 57.798C45.284 56.1824 45.2616 53.9256 43.6684 52.3542C42.783 51.4912 42.0422 51.2034 40.4926 51.1149C39.0434 51.0483 38.5898 50.8607 38.1468 50.1411C37.9368 49.809 37.8926 49.5766 37.8926 48.8906C37.8926 48.1716 37.9368 47.9946 38.1916 47.6071C38.3686 47.3416 38.6782 47.065 38.9661 46.9211C39.4309 46.6999 39.6297 46.6887 42.1861 46.6887H44.9189V45.8033V44.918H42.8721C41.7437 44.918 40.8253 44.8849 40.8253 44.8513C40.8253 44.6632 41.943 43.2469 42.6621 42.5279C45.6267 39.5638 50.0087 38.1918 54.2238 38.8996ZM66.2067 46.8108C66.8042 46.9765 67.5457 47.6961 67.7557 48.3155C68.0099 49.0569 68.0099 54.9319 67.7669 55.6733C67.1806 57.3662 64.7132 57.8752 63.3743 56.5693C62.677 55.8833 62.6222 55.5736 62.6222 52.0109C62.6222 50.0744 62.6664 48.6806 62.7437 48.4152C62.8988 47.8619 63.6621 47.0544 64.2266 46.855C64.7574 46.6674 65.6204 46.645 66.2067 46.8108Z" fill="#D81F28"/>
<path d="M48.459 51.9999V59.0811H52.8847H57.3103V58.1957V57.3103H53.7695H50.2286V55.0972V52.8841H53.7695H57.3103V51.9999V51.1145H53.7695H50.2286V48.9014V46.6883H53.7695H57.3103V45.8029V44.9175H52.8847H48.459V51.9999Z" fill="#D81F28"/>
</g>
<defs>
<filter id="filter0_d_563_1840" x="0" y="0" width="103.714" height="103.714" filterUnits="userSpaceOnUse" color-interpolation-filters="sRGB">
<feFlood flood-opacity="0" result="BackgroundImageFix"/>
<feColorMatrix in="SourceAlpha" type="matrix" values="0 0 0 0 0 0 0 0 0 0 0 0 0 0 0 0 0 0 127 0" result="hardAlpha"/>
<feOffset/>
<feGaussianBlur stdDeviation="4.5"/>
<feComposite in2="hardAlpha" operator="out"/>
<feColorMatrix type="matrix" values="0 0 0 0 0 0 0 0 0 0 0 0 0 0 0 0 0 0 0.1 0"/>
<feBlend mode="normal" in2="BackgroundImageFix" result="effect1_dropShadow_563_1840"/>
<feBlend mode="normal" in="SourceGraphic" in2="effect1_dropShadow_563_1840" result="shape"/>
</filter>
<clipPath id="clip0_563_1840">
<rect width="56" height="56" fill="white" transform="translate(24 24)"/>
</clipPath>
</defs>
</svg>
