<svg width="104" height="104" viewBox="0 0 104 104" fill="none" xmlns="http://www.w3.org/2000/svg">
<circle cx="52" cy="52" r="49.5" stroke="#B8B8B8"/>
<g filter="url(#filter0_d_563_1849)">
<circle cx="51.8571" cy="51.8571" r="42.8571" fill="white"/>
</g>
<path d="M74.909 25.0605H29.0909C26.8678 25.0605 25.0605 26.8678 25.0605 29.0909V35.8872V74.909C25.0605 77.1321 26.8678 78.9393 29.0909 78.9393H74.909C77.1321 78.9393 78.9393 77.1321 78.9393 74.909V35.8872V29.0909C78.9393 26.8678 77.1321 25.0605 74.909 25.0605ZM26.3333 29.0909C26.3333 27.5721 27.5721 26.3333 29.0909 26.3333H74.909C76.4278 26.3333 77.6666 27.5721 77.6666 29.0909V35.2509H26.3333V29.0909ZM77.6666 74.909C77.6666 76.4278 76.4278 77.6666 74.909 77.6666H29.0909C27.5721 77.6666 26.3333 76.4278 26.3333 74.909V36.5236H77.6666V74.909Z" fill="#D81F28"/>
<path d="M43.1673 28.4541C41.8776 28.4541 40.834 29.4977 40.834 30.7874C40.834 32.0771 41.8776 33.1208 43.1673 33.1208C44.457 33.1208 45.5007 32.0771 45.5007 30.7874C45.5007 29.4977 44.457 28.4541 43.1673 28.4541ZM43.1673 31.848C42.5819 31.848 42.1067 31.3729 42.1067 30.7874C42.1067 30.202 42.5819 29.7268 43.1673 29.7268C43.7528 29.7268 44.2279 30.2105 44.2279 30.7874C44.2279 31.3644 43.7528 31.848 43.1673 31.848Z" fill="#D81F28"/>
<path d="M36.973 28.4541C35.6833 28.4541 34.6396 29.4977 34.6396 30.7874C34.6396 32.0771 35.6833 33.1208 36.973 33.1208C38.2627 33.1208 39.3063 32.0771 39.3063 30.7874C39.3063 29.4977 38.2627 28.4541 36.973 28.4541ZM36.973 31.848C36.3875 31.848 35.9124 31.3729 35.9124 30.7874C35.9124 30.202 36.3875 29.7268 36.973 29.7268C37.5584 29.7268 38.0336 30.2105 38.0336 30.7874C38.0336 31.3644 37.5584 31.848 36.973 31.848Z" fill="#D81F28"/>
<path d="M30.7874 28.4541C29.4977 28.4541 28.4541 29.5062 28.4541 30.7874C28.4541 32.0686 29.4977 33.1208 30.7874 33.1208C32.0771 33.1208 33.1208 32.0771 33.1208 30.7874C33.1208 29.4977 32.0771 28.4541 30.7874 28.4541ZM30.7874 31.848C30.202 31.848 29.7268 31.3729 29.7268 30.7874C29.7268 30.202 30.202 29.7268 30.7874 29.7268C31.3729 29.7268 31.848 30.2105 31.848 30.7874C31.848 31.3644 31.3729 31.848 30.7874 31.848Z" fill="#D81F28"/>
<path d="M41.4876 62.3942C46.6295 62.3942 50.821 58.2112 50.821 53.0609C50.821 47.9106 46.6379 43.7275 41.4876 43.7275C36.3373 43.7275 32.1543 47.9106 32.1543 53.0609C32.1543 58.2112 36.3373 62.3942 41.4876 62.3942ZM41.4876 45.0088C45.9337 45.0088 49.5482 48.6233 49.5482 53.0694C49.5482 57.5154 45.9337 61.13 41.4876 61.13C37.0416 61.13 33.427 57.5154 33.427 53.0694C33.427 48.6233 37.0416 45.0088 41.4876 45.0088Z" fill="#D81F28"/>
<path d="M41.4872 56.5389C40.7066 56.5389 40.0618 55.9026 40.0618 55.1135C40.0618 54.7656 39.7733 54.4771 39.4254 54.4771C39.0775 54.4771 38.7891 54.7656 38.7891 55.1135C38.7891 56.3777 39.6715 57.4383 40.8509 57.7268V58.6177C40.8509 58.9656 41.1394 59.2541 41.4872 59.2541C41.8351 59.2541 42.1236 58.9656 42.1236 58.6177V57.7268C43.303 57.4383 44.1854 56.3777 44.1854 55.1135C44.1854 53.6286 42.9806 52.4153 41.4872 52.4153C40.7066 52.4153 40.0618 51.7789 40.0618 50.9898C40.0618 50.2008 40.6982 49.5644 41.4872 49.5644C42.2763 49.5644 42.9127 50.2008 42.9127 50.9898C42.9127 51.3377 43.2012 51.6262 43.5491 51.6262C43.8969 51.6262 44.1854 51.3377 44.1854 50.9898C44.1854 49.7256 43.303 48.665 42.1236 48.3765V47.5026C42.1236 47.1547 41.8351 46.8662 41.4872 46.8662C41.1394 46.8662 40.8509 47.1547 40.8509 47.5026V48.3935C39.6715 48.682 38.7891 49.7426 38.7891 51.0068C38.7891 52.4917 39.9939 53.705 41.4872 53.705C42.2679 53.705 42.9127 54.3414 42.9127 55.1305C42.9127 55.9195 42.2679 56.5389 41.4872 56.5389Z" fill="#D81F28"/>
<path d="M41.4873 66.0848C44.0667 66.0848 46.6461 65.3127 48.8606 63.7939L50.1928 65.126L49.777 65.5418C49.5309 65.7878 49.5309 66.1951 49.777 66.4411L56.4376 73.1018C57.1418 73.806 58.0582 74.1539 58.9831 74.1539C59.9079 74.1539 60.8243 73.806 61.5285 73.1018C62.9285 71.7018 62.9285 69.4193 61.5285 68.0108L54.8679 61.3502C54.6303 61.1127 54.2061 61.1127 53.9685 61.3502L53.5528 61.766L52.2206 60.4339C55.7079 55.3599 55.2073 48.3515 50.7018 43.846C45.6194 38.7636 37.3552 38.7636 32.2728 43.846C27.1903 48.9284 27.1903 57.1927 32.2728 62.2751C34.8097 64.8121 38.1443 66.0848 41.4873 66.0848ZM60.6291 68.9187C61.537 69.8266 61.537 71.303 60.6291 72.2108C59.7212 73.1187 58.2449 73.1187 57.337 72.2108L51.1261 65.9999L51.5418 65.5757L53.994 63.1236L54.4097 62.7078L60.6291 68.9187ZM52.6534 62.6739L51.1006 64.2266L49.8873 63.0133C50.1673 62.7757 50.4388 62.5381 50.7018 62.2751C50.9649 62.0121 51.2025 61.7405 51.44 61.4605L52.6534 62.6739ZM33.1722 44.7454C37.754 40.1636 45.2122 40.1636 49.8025 44.7454C54.3843 49.3272 54.3843 56.7854 49.8025 61.3757C45.2206 65.9575 37.754 65.9575 33.1722 61.3757C28.5903 56.7939 28.5903 49.3357 33.1722 44.7454Z" fill="#D81F28"/>
<path d="M65.4821 49.3439H74.9087C75.2566 49.3439 75.5451 49.0554 75.5451 48.7076V39.2809C75.5451 38.933 75.2566 38.6445 74.9087 38.6445H65.4821C65.1342 38.6445 64.8457 38.933 64.8457 39.2809V48.7076C64.8457 49.0639 65.1257 49.3439 65.4821 49.3439ZM66.1184 39.9173H74.2724V48.0712H66.1184V39.9173Z" fill="#D81F28"/>
<path d="M71.7699 42.1321L69.3857 44.5163L68.622 43.7527C68.376 43.5066 67.9687 43.5066 67.7226 43.7527C67.4766 43.9987 67.4766 44.406 67.7226 44.6521L68.936 45.8654C69.0632 45.9927 69.2245 46.0521 69.3857 46.0521C69.5469 46.0521 69.7081 45.9927 69.8354 45.8654L72.6693 43.0315C72.9154 42.7854 72.9154 42.3781 72.6693 42.1321C72.4232 41.886 72.016 41.8775 71.7699 42.1321Z" fill="#D81F28"/>
<path d="M65.4821 62.4445H74.9087C75.2566 62.4445 75.5451 62.156 75.5451 61.8081V52.3815C75.5451 52.0336 75.2566 51.7451 74.9087 51.7451H65.4821C65.1342 51.7451 64.8457 52.0336 64.8457 52.3815V61.8081C64.8457 62.156 65.1257 62.4445 65.4821 62.4445ZM66.1184 53.0178H74.2724V61.1718H66.1184V53.0178Z" fill="#D81F28"/>
<path d="M71.7699 55.2327L69.3857 57.6169L68.622 56.8533C68.376 56.6072 67.9687 56.6072 67.7226 56.8533C67.4766 57.0993 67.4766 57.5066 67.7226 57.7527L68.936 58.966C69.0632 59.0933 69.2245 59.1527 69.3857 59.1527C69.5469 59.1527 69.7081 59.0933 69.8354 58.966L72.6693 56.1321C72.9154 55.886 72.9154 55.4787 72.6693 55.2327C72.4232 54.9866 72.016 54.9781 71.7699 55.2327Z" fill="#D81F28"/>
<path d="M65.4821 75.5451H74.9087C75.2566 75.5451 75.5451 75.2566 75.5451 74.9087V65.4821C75.5451 65.1342 75.2566 64.8457 74.9087 64.8457H65.4821C65.1342 64.8457 64.8457 65.1342 64.8457 65.4821V74.9087C64.8457 75.2566 65.1257 75.5451 65.4821 75.5451ZM66.1184 66.1184H74.2724V74.2724H66.1184V66.1184Z" fill="#D81F28"/>
<path d="M71.7699 68.3332L69.3857 70.7175L68.622 69.9539C68.376 69.7078 67.9687 69.7078 67.7226 69.9539C67.4766 70.1999 67.4766 70.6072 67.7226 70.8532L68.936 72.0666C69.0632 72.1939 69.2245 72.2532 69.3857 72.2532C69.5469 72.2532 69.7081 72.1939 69.8354 72.0666L72.6693 69.2326C72.9154 68.9866 72.9154 68.5793 72.6693 68.3332C72.4232 68.0872 72.016 68.0787 71.7699 68.3332Z" fill="#D81F28"/>
<defs>
<filter id="filter0_d_563_1849" x="0" y="0" width="103.714" height="103.714" filterUnits="userSpaceOnUse" color-interpolation-filters="sRGB">
<feFlood flood-opacity="0" result="BackgroundImageFix"/>
<feColorMatrix in="SourceAlpha" type="matrix" values="0 0 0 0 0 0 0 0 0 0 0 0 0 0 0 0 0 0 127 0" result="hardAlpha"/>
<feOffset/>
<feGaussianBlur stdDeviation="4.5"/>
<feComposite in2="hardAlpha" operator="out"/>
<feColorMatrix type="matrix" values="0 0 0 0 0 0 0 0 0 0 0 0 0 0 0 0 0 0 0.1 0"/>
<feBlend mode="normal" in2="BackgroundImageFix" result="effect1_dropShadow_563_1849"/>
<feBlend mode="normal" in="SourceGraphic" in2="effect1_dropShadow_563_1849" result="shape"/>
</filter>
</defs>
</svg>
