<svg width="14" height="26" viewBox="0 0 14 26" fill="none" xmlns="http://www.w3.org/2000/svg">
<path d="M1.75336 8.71007L9.61204 0.761141C10.0942 0.273628 10.7482 -0.000162456 11.4299 7.23195e-08C12.1117 0.000162601 12.7655 0.274264 13.2475 0.762007C13.7295 1.24975 14.0002 1.91118 14 2.60079C13.9998 3.2904 13.7288 3.9517 13.2466 4.43921L5.38796 12.3864C5.30817 12.4669 5.24486 12.5626 5.20166 12.6678C5.15847 12.7731 5.13624 12.886 5.13624 13C5.13624 13.114 5.15847 13.2269 5.20166 13.3322C5.24486 13.4374 5.30817 13.5331 5.38796 13.6136L13.2466 21.5608C13.7288 22.0483 13.9998 22.7096 14 23.3992C14.0002 24.0888 13.7295 24.7502 13.2475 25.238C12.7655 25.7257 12.1117 25.9998 11.4299 26C10.7482 26.0002 10.0942 25.7264 9.61204 25.2389L1.75336 17.2899C0.630535 16.1511 0 14.6084 0 13C0 11.3916 0.630535 9.84891 1.75336 8.71007Z" fill="black"/>
</svg>
