<svg width="14" height="26" viewBox="0 0 14 26" fill="none" xmlns="http://www.w3.org/2000/svg">
<path d="M12.2466 8.71007L4.38796 0.761141C3.90575 0.273628 3.25183 -0.000162456 2.57005 7.23195e-08C1.88827 0.000162601 1.23448 0.274264 0.752499 0.762007C0.270521 1.24975 -0.000160612 1.91118 7.14984e-08 2.60079C0.000160755 3.2904 0.271152 3.9517 0.753357 4.43921L8.61204 12.3864C8.69183 12.4669 8.75514 12.5626 8.79834 12.6678C8.84153 12.7731 8.86376 12.886 8.86376 13C8.86376 13.114 8.84153 13.2269 8.79834 13.3322C8.75514 13.4374 8.69183 13.5331 8.61204 13.6136L0.753357 21.5608C0.271152 22.0483 0.000160755 22.7096 7.14984e-08 23.3992C-0.000160612 24.0888 0.270521 24.7502 0.752499 25.238C1.23448 25.7257 1.88827 25.9998 2.57005 26C3.25183 26.0002 3.90575 25.7264 4.38796 25.2389L12.2466 17.2899C13.3695 16.1511 14 14.6084 14 13C14 11.3916 13.3695 9.84891 12.2466 8.71007Z" fill="black"/>
</svg>
