<svg width="40" height="40" viewBox="0 0 40 40" fill="none" xmlns="http://www.w3.org/2000/svg">
<g clip-path="url(#clip0_563_1925)">
<path fill-rule="evenodd" clip-rule="evenodd" d="M22.5 3.75C23.1904 3.75 23.75 4.30965 23.75 5V7.5H26.25C26.7809 7.5 27.2539 7.83531 27.4296 8.33624C27.6053 8.83718 27.4454 9.39446 27.0309 9.72609L20.7809 14.7261C20.3244 15.0913 19.6757 15.0913 19.2192 14.7261L12.9692 9.72609C12.5547 9.39446 12.3948 8.83718 12.5706 8.33624C12.7463 7.8353 13.2192 7.5 13.7501 7.5H16.2501V5C16.2501 4.30965 16.8097 3.75 17.5001 3.75H22.5Z" fill="#D81F28"/>
<path fill-rule="evenodd" clip-rule="evenodd" d="M7.5 21.25C8.72914 21.25 9.8892 21.5456 10.913 22.0697C12.4959 18.6345 15.9695 16.25 20 16.25C24.0305 16.25 27.5041 18.6345 29.087 22.0697C30.1108 21.5456 31.2709 21.25 32.5 21.25C36.6421 21.25 40 24.6079 40 28.75C40 32.8921 36.6421 36.25 32.5 36.25C30.2076 36.25 28.1555 35.2215 26.7797 33.6009C24.9976 35.2454 22.6161 36.25 20 36.25C17.3839 36.25 15.0024 35.2454 13.2202 33.6009C11.8445 35.2215 9.79236 36.25 7.5 36.25C3.35786 36.25 0 32.8921 0 28.75C0 24.6079 3.35786 21.25 7.5 21.25ZM20 18.75C15.8579 18.75 12.5 22.1079 12.5 26.25C12.5 27.9379 13.0576 29.4956 13.9986 30.7489C14.7656 28.9106 16.3525 27.5 18.3025 26.9739C17.5159 26.4331 17 25.5268 17 24.5C17 22.8431 18.3431 21.5 20 21.5C21.6569 21.5 23 22.8431 23 24.5C23 25.5268 22.4841 26.4331 21.6975 26.9739C23.6475 27.5 25.2344 28.9106 26.0014 30.7489C26.9424 29.4956 27.5 27.9379 27.5 26.25C27.5 22.1079 24.1421 18.75 20 18.75ZM10 26.25C10 25.6564 10.0517 25.075 10.1509 24.5097C9.38241 24.0284 8.47371 23.75 7.5 23.75C4.73857 23.75 2.5 25.9886 2.5 28.75C2.5 29.6608 2.74349 30.5146 3.16891 31.25C3.7191 30.2989 4.57358 29.5459 5.59923 29.124C5.22563 28.6871 5 28.1199 5 27.5C5 26.1193 6.11929 25 7.5 25C8.88071 25 10 26.1193 10 27.5C10 28.1199 9.77437 28.6871 9.40077 29.124C9.86886 29.3165 10.3013 29.578 10.6854 29.8959C10.2429 28.7663 10 27.5365 10 26.25ZM30 26.25C30 25.6564 29.9482 25.075 29.8491 24.5097C30.6176 24.0284 31.5263 23.75 32.5 23.75C35.2614 23.75 37.5 25.9886 37.5 28.75C37.5 29.6608 37.2565 30.5146 36.8311 31.25C36.2809 30.2989 35.4264 29.5459 34.4007 29.124C34.7744 28.6871 35 28.1199 35 27.5C35 26.1193 33.8807 25 32.5 25C31.1192 25 30 26.1193 30 27.5C30 28.1199 30.2256 28.6871 30.5993 29.124C30.1311 29.3165 29.6987 29.578 29.3146 29.8959C29.7571 28.7663 30 27.5365 30 26.25Z" fill="black"/>
</g>
<defs>
<clipPath id="clip0_563_1925">
<rect width="40" height="40" fill="white"/>
</clipPath>
</defs>
</svg>
