<svg width="26" height="26" viewBox="0 0 26 26" fill="none" xmlns="http://www.w3.org/2000/svg">
<g clip-path="url(#clip0_261_9007)">
<path d="M22.6421 16.6945L13.5746 25.762C13.4222 25.9144 13.2156 26 13.0001 26C12.7846 26 12.578 25.9144 12.4256 25.762L3.35803 16.6945C3.20719 16.5418 3.12289 16.3357 3.12354 16.121C3.12419 15.9064 3.20974 15.7008 3.36151 15.549C3.51328 15.3972 3.71894 15.3117 3.93357 15.311C4.1482 15.3104 4.35437 15.3947 4.50706 15.5455L12.1876 23.226V0.8125C12.1876 0.597012 12.2732 0.390349 12.4255 0.237976C12.5779 0.0856024 12.7846 0 13.0001 0C13.2156 0 13.4222 0.0856024 13.5746 0.237976C13.727 0.390349 13.8126 0.597012 13.8126 0.8125V23.226L21.4931 15.5455C21.6459 15.3954 21.8519 15.3117 22.0661 15.3127C22.2803 15.3137 22.4855 15.3992 22.6369 15.5507C22.7884 15.7022 22.8739 15.9073 22.8749 16.1216C22.8759 16.3358 22.7922 16.5417 22.6421 16.6945Z" fill="#D81F28"/>
</g>
<defs>
<clipPath id="clip0_261_9007">
<rect width="26" height="26" fill="white"/>
</clipPath>
</defs>
</svg>
