<svg width="1920" height="974" viewBox="0 0 1920 974" fill="none" xmlns="http://www.w3.org/2000/svg">
<path d="M-179.999 -52.4818C105.682 -56.6521 391.354 -61.6429 677.033 -66.0183C934.072 -69.9414 1191.04 -74.342 1448.08 -78.1967C1619.55 -80.7684 1791.1 -83.8882 1962.58 -86.3231M-179.577 -12.8944C8.22882 -11.6893 195.673 -30.9936 383.623 -29.654C485.563 -28.9391 587.618 -30.8929 689.503 -28.6043C814.895 -25.798 939.742 -33.9244 1065.17 -34.3327C1192.81 -34.776 1320.22 -37.5405 1447.77 -32.922C1529.09 -29.9666 1611.1 -29.2788 1692.41 -33.8455C1782.65 -38.8267 1872.46 -50.7078 1962.9 -49.1959M-179.156 26.6245C-74.8697 26.2767 29.1809 10.5462 132.791 0.430187C212.426 -7.32404 291.823 -10.5612 371.783 -7.92629C430.949 -5.98869 489.994 -1.9293 549.145 -1.42751C608.224 -0.924593 666.366 -1.1591 725.278 3.72301C786.978 8.83461 848.444 12.1719 910.403 8.11605C968.864 4.25219 1026.69 1.21894 1085.35 2.27561C1139.79 3.26208 1194.17 5.27525 1248.59 4.07383C1315.36 2.67725 1380.67 11.0143 1446.62 19.3412C1527.66 29.5496 1609.21 34.3476 1690.59 23.0098C1781.6 10.3575 1870.68 -15.8727 1963.33 -15.5581M-178.734 66.2118C-81.9022 63.4515 13.339 38.8336 108.308 22.1525C150.73 14.7125 193.658 7.81153 236.787 6.30973C277.131 4.9203 317.724 6.80933 357.961 8.84075C437.65 12.8476 517.154 19.6611 596.965 21.7513C629.333 22.6078 661.889 21.0678 694.2 23.3612C720.507 25.2707 746.552 29.3726 772.598 33.6113C833.064 43.5293 892.766 48.9459 954.221 44.4193C1006.9 40.5101 1058.2 35.46 1111.09 38.4541C1157.19 41.0767 1202.87 43.8429 1249.08 43.66C1316.22 43.3517 1380.55 60.047 1445.14 75.2337C1526.99 94.4559 1605.17 104.504 1688.25 84.3184C1780.15 61.9414 1867.71 19.6653 1963.75 16.4387M-178.312 105.731C-88.2191 100.752 -2.28865 67.1177 83.8955 43.8737C122.714 33.4134 162.54 23.621 202.873 21.206C249.63 18.4159 297.536 22.7881 344.212 25.6752C444.352 31.8208 544.313 41.1833 644.571 44.9337C678.872 46.2382 713.568 44.3909 747.613 48.4349C772.073 51.331 795.852 57.3151 819.562 63.5054C878.585 78.9168 936.303 85.7325 997.753 80.7957C1044.36 77.0507 1089.91 68.8089 1136.62 74.636C1174.53 79.3712 1211.07 82.6919 1249.43 83.1801C1317.3 83.9545 1380.71 109.144 1443.45 130.993C1481.73 144.338 1520.8 156.988 1561.43 162.09C1604.49 167.565 1645.05 159.47 1685.75 145.424C1778.13 113.603 1863.94 55.2841 1964.02 48.3013M-177.89 145.318C-92.0896 139.723 -14.2433 98.2159 64.8827 69.5443C100.817 56.531 138.406 44.654 176.878 41.8581C228.126 38.1765 281.336 44.3112 332.446 47.7437C449.034 55.5443 565.446 66.972 682.22 72.1711C717.381 73.7356 753.642 71.2482 788.417 76.8534C811.314 80.5264 832.897 88.1864 854.481 96.0515C912.136 117.092 968.355 124 1030.23 118.304C1070.9 114.584 1115.48 101.503 1156.3 111.389C1187.95 119.027 1216.77 122.196 1249.71 122.77C1318.73 124.005 1381.14 156.116 1442.22 183.121C1479.68 199.693 1518.21 215.77 1559.21 222.371C1603.08 229.474 1643.54 219.125 1683.86 202.076C1776.16 163.075 1860.68 90.6216 1964.23 82.0793M-177.469 184.837C-92.3592 181.441 -19.2834 134.675 56.7373 102.839C91.7254 88.1993 128.453 75.9256 166.789 73.8157C219.261 70.9354 272.822 76.5175 325.077 80.1371C450.174 88.829 575.03 101.628 700.381 107.307C734.756 108.884 770.723 105.58 804.577 111.884C826.335 115.917 846.143 124.631 865.954 133.686C922.589 159.53 978.721 165.003 1041.36 158.064C1072.83 154.558 1104.1 146.815 1135.81 145.563C1145.8 145.131 1155.31 145.665 1164.7 149.209C1193.39 159.971 1218.92 162.235 1250.28 162.423C1320.71 162.815 1381.59 197.892 1442.12 227.982C1478.96 246.274 1517.3 264.268 1558.66 270.864C1602.59 277.897 1643.49 267.883 1683.37 249.678C1774.99 207.885 1859.18 124.769 1964.7 119.478M-177.047 224.425C-91.5028 221.569 -18.3739 173.093 57.6388 140.504C92.6233 125.523 129.349 113.044 167.829 111C219.872 108.195 272.572 113.38 324.339 118.102C443.815 128.865 562.859 145.927 682.715 152.104C717.592 153.878 753.908 149.817 788.329 155.701C811.658 159.709 833.255 168.668 854.643 178.177C911.844 203.533 967.027 213.876 1030.54 207.676C1072.35 203.597 1114.61 194.244 1156.92 196.175C1188.29 197.662 1219.4 200.932 1250.84 201.803C1320.79 203.776 1381.35 235.78 1442.66 264.558C1479.7 281.958 1518.1 298.858 1559.17 305.458C1603.03 312.492 1643.78 302.207 1683.88 284.819C1776.17 244.862 1860.86 168.576 1965.29 161.319M-176.625 264.012C-90.2267 260.869 -16.9097 209.928 59.017 175.973C93.9235 160.378 130.784 147.144 169.548 144.959C218.663 142.2 268.382 149.142 316.811 155.763C425.76 170.659 533.866 193.57 643.609 202.641C678.07 205.516 713.602 201.672 747.599 207.974C773.079 212.7 796.687 222.79 819.873 233.433C877.657 259.874 933.125 276.709 998.368 272.533C1045.34 269.535 1091.9 262.234 1137.65 251.801C1175.13 243.277 1212.61 240.839 1251.05 241.462C1319.92 242.494 1381.16 271.684 1442.8 297.654C1480.11 313.408 1518.63 328.596 1559.26 334.314C1602.69 340.467 1643.52 331.547 1684 316.069C1776.91 280.478 1862.98 213.128 1965.56 206.858M-176.204 303.531C-88.8128 299.689 -15.3115 245.941 60.7398 210.274C95.5669 193.928 132.701 179.596 171.749 177.27C216.651 174.577 262.542 184.247 306.068 193.27C402.071 213.294 496.462 242.918 594.033 255.943C627.439 260.407 661.836 257.333 694.84 264.266C722.617 270.05 748.385 281.679 773.658 293.794C832.102 321.865 888.788 345.861 955.851 344.802C1010.92 343.932 1062.28 331.154 1113.07 311.478C1158.17 294.011 1202.54 281.549 1251.54 280.912C1319.03 280.051 1381.46 306.213 1443.2 328.762C1480.85 342.528 1519.34 355.528 1559.61 360.089C1602.38 364.953 1643.66 358.078 1684.38 345.057C1777.78 315.203 1865.53 257.811 1966.14 253.897M-175.782 343.118C-87.3975 338.645 -13.6411 282.021 62.4634 244.644C97.1396 227.548 134.62 212.185 173.952 209.649C214.854 207.02 256.843 219.281 295.397 230.844C378.596 255.926 458.774 292.476 544.599 309.242C576.954 315.569 610.214 313.129 642.223 320.556C672.299 327.535 700.296 340.564 727.514 354.221C786.617 383.787 844.947 414.459 913.334 417.071C976.148 419.498 1033.06 397.537 1088.35 371.225C1140.38 346.469 1192.84 322.732 1251.89 320.5C1318.15 318.018 1381.61 340.881 1443.53 360.008C1481.44 371.718 1520.06 382.597 1559.89 386.002C1602.14 389.643 1643.8 384.677 1684.69 374.252C1778.51 350.272 1867.94 302.701 1966.64 301.073M-175.361 382.637C-86.1935 377.878 -12.2484 318.858 63.8408 280.045C98.5112 262.401 136.126 246.216 175.671 243.608C214.217 241.085 253.005 254.559 288.012 268.503C360.896 297.509 428.998 340.404 505.921 359.636C537.578 367.547 570.266 364.979 601.99 372.547C634.145 380.246 664.154 394.406 693.312 409.126C752.994 439.366 812.809 475.349 881.735 481.577C949.374 487.689 1011.83 456.887 1069.58 426.639C1126.63 396.743 1185.91 363.188 1252.38 360.086C1317.85 357.069 1381.71 376.849 1443.96 393.099C1524.54 414.187 1602.42 422.531 1685.1 405.497C1779.11 386.095 1869.91 347.324 1967.19 346.471M-174.939 422.225C-85.3372 418.006 -11.1967 357.204 64.7438 317.847C99.4106 299.861 136.952 283.54 176.712 280.929C215.543 278.401 253.034 290.802 287.489 306.533C355.107 337.468 415.832 385.13 488.967 404.285C521.058 412.668 554.234 408.93 586.527 416.215C620.252 423.82 651.979 438.295 682.641 453.402C742.673 483.021 803.091 522.003 871.545 530.769C940.427 539.597 1004.28 505.149 1062.08 473.395C1120.74 441.149 1183.11 401.595 1252.8 399.537C1318 397.687 1381.69 415.213 1444.28 429.884C1482.52 438.854 1521.18 447.064 1560.57 449.793C1602.53 452.755 1644.2 448.472 1685.4 440.846C1779.51 423.563 1871.17 391.069 1967.57 388.248M-174.517 461.743C-87.2953 455.442 -15.7923 401.863 59.6723 364.769C94.1365 347.882 131.404 332.59 170.373 329.581C208.058 326.661 246.625 339.524 280.564 353.827C345.788 381.312 405.022 423.117 474.64 440.617C506.727 448.658 539.694 445.471 571.774 452.897C607.219 461.021 640.598 476.291 672.909 491.987C736.095 522.582 800.972 564.434 872.714 573.422C942.881 582.161 1010.06 545.198 1069.81 514.508C1131.12 482.972 1199.02 440.322 1270.72 438.916C1332.57 437.734 1392.45 452.927 1451.96 466.758C1487.9 475.148 1524.13 482.372 1561.15 484.933C1603.47 487.889 1645.21 483.468 1686.92 476.382C1780.69 460.403 1872.39 431.875 1967.99 427.903M-174.095 501.331C-92.2888 496.278 -24.5411 452.263 48.1958 420.615C81.827 405.997 117.555 393.739 154.602 391.307C190.506 388.894 227.178 398.162 260.659 409.669C321.241 430.526 377.305 463.217 440.871 475.821C473.37 482.283 506.625 479.296 538.851 486.993C577.88 496.292 614.775 513.079 650.671 530.018C720.883 563.101 793.588 608.863 872.562 619.515C947.673 629.68 1024.38 588.054 1089.62 557.55C1129 539.148 1168.16 520.066 1208.7 504.176C1242.28 490.995 1277.93 478.67 1314.57 477.886C1368.56 476.692 1420.11 487.981 1472.1 499.948C1544.85 516.715 1615.65 517.58 1689.82 507.177C1782.83 494.082 1874.37 470.959 1968.63 467.556M-173.673 540.918C-98.8396 538.437 -35.3341 505.225 33.4798 480.82C99.4472 457.416 166.124 453.696 234.296 469.51C289.004 482.186 341.164 503.655 397.45 510.22C430.85 514.137 463.894 511.427 496.769 519.661C540.315 530.53 581.657 549.093 622.07 567.602C666.073 587.832 709.448 609.44 753.941 628.705C791.402 645.004 830.575 661.071 871.571 667.262C909.276 672.958 946.328 664.303 982.21 653.069C1027.7 638.81 1071.58 620.132 1115.31 601.525C1161.1 582.065 1206.68 561.924 1253.5 544.841C1291.06 531.118 1330.57 517.911 1371.05 516.52C1414.75 515.009 1456.04 521.674 1498.22 531.128C1562.16 545.505 1628.26 541.999 1693.2 535.434C1785.17 526.049 1876.35 509.086 1969.05 507.075M-173.252 580.437C-105.538 580.188 -45.633 557.633 18.7624 540.888C79.952 524.945 145.152 523.368 207.931 529.215C256.767 533.778 304.799 543.276 353.957 544.551C388.611 545.44 420.734 543.497 454.686 552.261C502.749 564.7 548.539 585.038 593.47 605.186C642.851 627.382 691.533 650.958 741.333 672.191C782.594 689.866 825.57 707.582 870.508 715.01C911.153 721.685 951.262 711.683 990.069 700.129C1041.34 684.822 1091.2 665.092 1140.85 645.571C1192.99 624.985 1244.98 603.785 1298.07 585.577C1339.5 571.383 1383.06 556.95 1427.33 555.225C1460.53 553.948 1491.91 555.778 1524.19 562.448C1579.39 573.885 1640.68 567.31 1696.5 563.829C1787.51 558.152 1878.12 547.421 1969.4 546.663M-172.83 620.024C-110.894 620.482 -53.1793 606.92 7.28514 596.665C66.6805 586.631 127.976 587.373 188.024 584.92C232.078 583.13 276.137 581.819 320.188 579.687C355.528 577.966 387.164 577.193 421.691 586.358C473.339 600.04 522.644 621.759 571.16 643.217C624.916 666.986 678.044 692.201 732.219 715.143C776.419 733.797 822.268 752.973 870.143 761.175C912.58 768.505 954.678 757.446 995.341 745.726C1051.31 729.524 1105.95 709.035 1160.38 688.686C1217.8 667.264 1274.99 645.162 1333.29 625.983C1377.42 611.472 1423.84 596.242 1470.74 594.202C1495.23 593.131 1519.8 592.264 1543.98 595.643C1557.07 597.488 1570.42 597.072 1583.56 596.865C1622.06 596.256 1660.63 595.784 1699.11 594.629C1789.3 591.905 1879.39 586.585 1969.68 586.321M-172.409 659.543C-113.491 658.339 -56.0754 650.184 2.35581 643.517C61.8576 636.764 121.886 639.235 181.313 632.142C223.047 627.175 264.173 618.73 306.217 616.014C340.98 613.755 373.484 613.994 407.295 622.965C460.662 637.098 511.547 659.614 561.713 681.661C617.979 706.416 673.616 732.481 730.372 756.339C775.576 775.32 822.576 795.229 871.524 803.551C913.53 810.683 955.482 799.284 995.647 787.845C1054.04 771.126 1111.18 750.187 1168.17 729.524C1228.51 707.578 1288.71 685.086 1349.85 665.315C1394.2 651.006 1441.39 634.943 1488.52 633.31C1509.51 632.636 1530.66 632.644 1551.65 632.312L1970.17 625.702M-171.987 699.131C-111.209 698.171 -52.1611 689.032 7.97903 681.859C68.0478 674.688 128.571 676.672 188.721 670.388C232.887 665.724 276.666 658.263 321.067 655.51C355.974 653.318 388.548 653.487 422.575 662.523C474.367 676.339 523.606 698.607 572.055 720.476C625.817 744.861 678.88 770.624 733.132 794.111C777.194 813.178 823.119 832.763 871.065 840.895C913.429 848.09 955.597 836.893 996.117 825.244C1052.87 808.961 1108.37 788.39 1163.73 768.095C1222.14 746.589 1280.34 724.539 1339.57 705.277C1383.56 690.973 1430.6 674.981 1477.45 673.489C1501.01 672.706 1524.38 673.91 1547.77 670.463C1560.18 668.626 1572.83 668.7 1585.33 668.571C1623.96 667.961 1662.54 667.967 1701.1 666.742C1790.93 663.956 1880.66 658.572 1970.52 658.316M-171.565 738.718C-106.932 737.56 -44.0433 726.857 19.8719 718.667C82.7172 710.631 145.877 711.958 208.968 706.859C257.856 702.873 306.507 696.839 355.482 694.287C390.107 692.509 422.603 691.996 456.203 701.244C504.56 714.499 550.294 736.206 595.025 757.724C644.422 781.425 693.05 806.643 742.938 829.448C783.997 848.22 826.987 867.235 872.143 875.002C913.076 882.014 954.106 871.314 993.273 860.027C1046.9 844.478 1099.26 824.709 1151.34 805.081C1206.26 784.382 1261.04 763.138 1316.84 744.682C1359.19 730.679 1404.11 715.677 1449.24 714.144C1478.94 713.128 1507.23 713.023 1536.23 706.41C1552.05 702.81 1568.4 701.936 1584.61 701.406C1623.59 700.107 1662.45 700.108 1701.35 697.579C1791.15 691.784 1880.61 680.729 1970.68 679.991M-171.143 778.237C-101.514 776.727 -33.7887 764.101 34.9705 754.672C101.661 745.481 168.528 746.203 235.633 742.407C290.317 739.355 344.913 734.8 399.679 732.704C433.667 731.415 466.154 730.082 499.112 739.477C543.104 751.98 584.403 773.142 624.484 794.05C668.588 817.014 711.779 841.497 756.444 863.494C793.498 881.783 832.696 900.243 874.059 907.385C912.704 914.092 951.742 904.175 988.7 893.334C1038.47 878.734 1086.85 859.849 1135.08 841.17C1185.8 821.495 1236.3 801.209 1287.9 783.776C1327.9 770.288 1369.9 756.564 1412.53 755.07C1450.09 753.793 1484.7 750.442 1520.96 741.253C1579.51 726.378 1641.86 731.89 1701.65 725.475C1791.48 715.85 1880.3 698.377 1970.85 696.331M-170.721 817.824C-96.1683 815.826 -23.5328 801.481 49.9985 790.746C120.606 780.467 191.111 780.653 262.3 778.093C322.851 775.905 383.32 772.83 443.877 771.258C477.155 770.391 509.777 768.303 541.952 777.915C581.651 789.734 618.371 810.216 653.875 830.581C692.613 852.809 730.439 876.556 769.81 897.749C802.858 915.553 838.192 933.39 875.907 939.975C912.261 946.307 949.38 937.173 984.128 926.846C1029.98 913.197 1074.44 895.262 1118.75 877.466C1165.19 858.748 1211.49 839.485 1258.89 823.008C1296.61 809.966 1335.48 797.864 1375.75 796.134C1420.87 794.19 1462.23 787.656 1505.69 776.233C1569.94 759.285 1636.55 763.293 1702.02 753.506C1791.88 740.052 1879.92 716.163 1971.1 712.808M-170.3 857.343C-91.8205 855.146 -15.345 839.168 61.962 827.484C135.417 816.34 208.49 816.143 282.618 814.494C347.891 813.052 413.087 811.134 478.363 810.034C511.216 809.515 544.046 806.808 575.651 816.567C612.058 827.822 645.2 847.745 676.914 867.691C738.399 906.245 802.483 960.829 876.984 974.013C911.908 980.163 947.818 971.595 981.212 961.562C1023.93 948.647 1065.25 931.514 1106.29 914.385C1182.02 882.895 1263.43 840.442 1347.4 836.859C1398.38 834.687 1445.13 825.263 1494.07 812.181C1562.59 793.867 1632.84 796.997 1702.21 784.344C1792.04 767.881 1879.23 738.398 1971.19 734.484M-169.878 896.931C-89.6101 894.979 -11.36 877.946 67.7274 865.756C141.823 854.328 215.463 853.78 290.239 852.599C358.015 851.529 425.792 850.458 493.569 849.388C526.565 848.867 559.465 846.09 591.286 855.982C626.189 866.851 657.685 886.458 687.541 906.365C745.455 944.976 804.955 998.401 876.666 1011.15C911.876 1017.36 948.145 1009 981.823 998.753C1022.91 986.274 1062.51 969.509 1101.91 952.749C1175.51 921.429 1254.36 880.248 1336.25 876.835C1389.8 874.621 1438.76 863.932 1490.19 850.127C1520.32 841.992 1550.75 835.494 1582.01 832.812C1622.76 829.296 1662.4 828.875 1702.74 820.852C1792.62 803.021 1879.13 769.514 1971.67 766.753M-169.457 936.45C-88.9658 935.315 -11.0255 916.031 67.9059 902.612C140.135 890.325 212.195 888.981 285.217 890.768C350.808 892.399 416.337 894.852 481.953 892.106C518.009 890.579 552.953 885.172 588.064 895.422C622.744 905.474 654.369 923.848 684.499 942.656C743.537 979.471 803.214 1029.41 874.288 1042.78C909.575 1049.4 945.628 1040.83 979.45 1030.79C1020.04 1018.8 1059.23 1002.86 1098.2 986.862C1171.88 956.636 1249.55 918.14 1330.86 913.642C1383.9 910.684 1435.67 902.207 1487.93 892.902C1519.08 887.35 1550.32 882.617 1581.94 879.792C1622.61 876.209 1662.25 875.925 1702.38 867.017C1792.45 846.994 1878.24 806.797 1972.09 806.067M-169.035 976.037C-88.1903 974.555 -10.8571 951.929 67.6917 936.123C137.758 922.024 207.227 918.806 278.301 925.48C340.937 931.329 402.508 937.742 465.69 934.487C504.169 932.443 541.803 924.737 579.756 933.574C614.2 941.578 646.158 957.691 676.694 974.373C737.119 1007.34 797.597 1051.92 867.724 1063.54C902.715 1069.34 938.35 1061.74 972.11 1052.52C1011.71 1041.7 1050.13 1027.08 1088.4 1012.46C1161.39 984.497 1237.38 949.925 1316.84 945.73C1371.6 942.813 1426.44 941.332 1481.21 939.373C1554.04 936.718 1630.51 940.228 1701.09 920.787C1791.54 895.834 1876.38 846.421 1972.43 844.835M-168.613 1015.62C-87.3493 1013.25 -10.8439 986.668 67.3879 967.926C134.861 951.748 202.078 945.079 270.509 958.427C329.992 970.002 385.814 979.993 447.138 976.631C487.759 974.416 528.37 964.543 568.942 971.151C603.073 976.698 635.429 989.864 666.509 1003.94C728.31 1031.96 789.863 1070.24 859.031 1078.99C931.775 1088.24 1008.23 1057.28 1075.34 1033.93C1146.73 1009.07 1221.54 977.734 1298.37 975.563C1356.64 973.891 1414.51 981.183 1472.22 987.657C1548.53 996.23 1625.47 1003.63 1699.49 978.323C1790.3 947.21 1874.03 887.215 1972.92 883.259M-168.191 1055.14C-86.4375 1051.87 -10.6886 1021.34 67.084 999.729C130.969 981.966 198.415 969.96 262.645 991.375C284.008 998.491 304.603 1007.33 326.658 1012.45C359.884 1020.13 394.535 1020.75 428.515 1018.78C471.562 1016.32 514.798 1004.76 557.985 1008.73C591.805 1011.89 624.558 1022.04 656.181 1033.51C719.284 1056.31 781.915 1088.48 850.267 1094.45C922.265 1100.76 994.724 1076.51 1062.29 1055.47C1132.06 1033.79 1205.62 1005.89 1279.91 1005.6C1342.48 1005.37 1403.16 1021.78 1463.24 1036.21C1499.69 1045.01 1536.56 1052.9 1574.1 1056.14C1618 1059.89 1657.14 1052.78 1697.82 1036.13C1788.78 998.932 1871.54 928.42 1973.4 921.956M-167.769 1094.73C-85.4485 1091.04 -10.4496 1057.17 66.8691 1033.17C126.033 1014.8 197.554 996.438 255.657 1026.02C273.755 1035.17 290.234 1046.47 309.802 1052.79C342.416 1063.42 378.131 1063.34 412.109 1061.16C457.937 1058.25 503.514 1045.15 549.535 1046.95C583.192 1048.2 616.134 1056.02 648.233 1065.22C712.432 1083.63 775.866 1110.74 843.558 1115.14C914.539 1119.76 984.687 1099.85 1052.2 1081.07C1121 1061.93 1193.24 1037.33 1265.61 1037.76C1331.97 1038.15 1394.8 1062.25 1456.38 1082.89C1494.02 1095.49 1532.36 1107.27 1572.05 1112.18C1616.76 1117.76 1656.02 1108.8 1696.54 1090.11C1787.31 1048.33 1869.46 968.321 1973.74 960.724M-167.348 1134.25C-84.59 1131.37 -10.045 1095.11 67.0462 1069.89C120.647 1052.36 200.105 1027.99 250.633 1063.98C265.821 1074.82 278.459 1087.75 296.322 1094.92C328.533 1107.95 366.233 1106.47 400.42 1103.74C449.166 1099.89 497.299 1085.32 546.309 1086.12C579.816 1086.68 612.887 1093.14 645.187 1101.11C710.074 1117.04 773.832 1141.06 841.175 1146.15C911.091 1151.41 981.527 1131.83 1048.49 1114.57C1117.3 1096.79 1188.29 1075.02 1260.07 1074.09C1328.56 1073.22 1392.01 1101.62 1454.05 1125.53C1492.06 1140.18 1531.07 1154.2 1571.99 1159.23C1616.47 1164.75 1656.31 1155.64 1696.25 1136.27C1743.36 1113.44 1785.82 1082.75 1830.25 1055.51C1874.25 1028.49 1921.11 1002.59 1974.3 999.831M-166.926 1173.84C-85.0403 1169.53 -9.73746 1137.37 67.7342 1114.33C126.834 1096.71 198.493 1077.87 256.313 1107.66C274.269 1116.88 290.676 1128.18 310.103 1134.64C342.647 1145.34 378.433 1145.26 412.482 1143.01C458.523 1140.02 503.898 1128.09 550.199 1129.41C583.496 1130.32 616.488 1136.16 648.851 1143.24C713.576 1157.47 777.444 1178.34 844.072 1183.44C913.132 1188.78 983.79 1169.82 1050.34 1154.13C1118.6 1138.01 1189.67 1117.26 1260.45 1116.42C1327.87 1115.63 1392.8 1142.36 1454.96 1163.67C1493.38 1176.88 1532.52 1189.39 1573.22 1194.49C1617.56 1200.02 1657.03 1190.37 1697.34 1172.29C1788.48 1131.46 1871.03 1055.49 1974.66 1046.6M-166.505 1213.36C-85.6123 1209.69 -9.17258 1183.65 68.7728 1164.85C132.682 1149.41 200.483 1137.19 264.144 1158.75C285.364 1165.94 305.817 1174.85 327.802 1180.04C361.029 1187.86 395.679 1188.41 429.66 1186.5C473.064 1183.97 515.821 1174.47 559.403 1175.29C592.34 1175.93 625.104 1180.47 657.451 1186.12C721.859 1197.34 785.609 1213.91 851.224 1217.8C919.27 1221.78 988.183 1206.74 1054.48 1193.66C1122.12 1180.35 1191.59 1163.66 1260.87 1162.84C1327.72 1161.99 1393.02 1183.05 1456.49 1200.17C1495.53 1210.7 1535 1220.6 1575.54 1224.48C1618.87 1228.65 1658.79 1221.11 1699.49 1206.31C1791 1173 1875.28 1111.83 1975.28 1104.58M-166.083 1252.94C-19.1887 1249.19 125.556 1184.47 272.874 1213.8C332.217 1225.65 387.826 1235.72 449.149 1232.28C489.984 1230.07 530.192 1222.59 571.122 1222.63C603.695 1222.66 636.157 1225.64 668.413 1229.44C732.354 1237.04 795.909 1248.69 860.433 1250.68C927.172 1252.77 993.855 1242.9 1059.75 1233.24C1126.51 1223.43 1193.75 1212.32 1261.38 1211.25C1328.09 1210.2 1393.38 1223.8 1458.51 1235.69C1540.32 1250.61 1620.28 1260.15 1702.13 1239.23C1793.45 1215.84 1879.98 1171.46 1975.88 1168.17M-165.661 1292.53C-15.6636 1291.73 131.302 1254.47 281.677 1268.98C344.244 1275.04 405.602 1281.59 468.712 1278.27C506.906 1276.3 544.707 1270.85 582.987 1270.18C615.197 1269.67 647.427 1271 679.521 1273.03C742.923 1277.02 806.211 1283.68 869.786 1283.84C935.148 1284.03 1000.1 1279.18 1065.11 1273.16C1130.69 1267.06 1196.06 1261.24 1261.98 1260.13C1328.68 1259.01 1394.39 1265.22 1460.61 1271.63C1541.62 1279.45 1623.82 1284.3 1704.84 1272.49C1795.63 1259.23 1884.2 1231.84 1976.64 1232.23M-165.24 1332.05C-13.5159 1332.39 137.676 1316.32 289.51 1320.35C355.031 1322.05 420.419 1324.71 485.963 1321.9C553.577 1318.99 620.465 1314.92 688.264 1315.9C815.503 1317.72 942.157 1318.39 1069.32 1312.62C1200.47 1306.65 1331.02 1304.52 1462.21 1307.92C1543.59 1309.98 1625.68 1310.94 1706.99 1306.31C1797.15 1301.12 1886.81 1288.77 1977.18 1290.42M-164.818 1371.64C120.863 1367.4 406.606 1362.41 692.285 1358.1C949.253 1354.18 1206.22 1349.91 1463.19 1345.92C1634.66 1343.28 1806.21 1340.16 1977.69 1337.8" stroke="#EE5566" stroke-opacity="0.18" stroke-width="3" stroke-miterlimit="10"/>
</svg>
