<svg width="1920" height="782" viewBox="0 0 1920 782" fill="none" xmlns="http://www.w3.org/2000/svg">
<path d="M-179.999 -43.1172C105.682 -46.5432 391.354 -50.6434 677.033 -54.2379C934.072 -57.4609 1191.04 -61.0761 1448.08 -64.2429C1619.55 -66.3557 1791.1 -68.9187 1962.58 -70.9191M-179.577 -10.5946C8.22885 -9.6046 195.673 -25.4638 383.623 -24.3633C485.563 -23.7759 587.618 -25.3811 689.503 -23.5009C814.895 -21.1954 939.742 -27.8716 1065.17 -28.207C1192.81 -28.5712 1320.22 -30.8423 1447.77 -27.048C1529.09 -24.6201 1611.1 -24.0551 1692.42 -27.8068C1782.65 -31.899 1872.46 -41.6598 1962.9 -40.4177M-179.156 21.8717C-74.8696 21.5859 29.181 8.66273 132.791 0.35203C212.426 -6.01836 291.823 -8.67782 371.783 -6.51313C430.949 -4.92132 489.994 -1.58638 549.145 -1.17414C608.224 -0.760973 666.367 -0.95363 725.278 3.0572C786.978 7.25657 848.444 9.99831 910.403 6.66625C968.865 3.49195 1026.69 1.00002 1085.35 1.86811C1139.79 2.67854 1194.17 4.33243 1248.59 3.34541C1315.36 2.19807 1380.67 9.04727 1446.62 15.8881C1527.66 24.2747 1609.21 28.2165 1690.59 18.9021C1781.6 8.50766 1870.68 -13.0414 1963.33 -12.783M-178.734 54.3941C-81.9022 52.1264 13.339 31.9019 108.308 18.1977C150.73 12.0855 193.658 6.41608 236.787 5.1823C277.131 4.04082 317.724 5.59274 357.961 7.26162C437.65 10.5534 517.154 16.151 596.965 17.8681C629.333 18.5717 661.889 17.3066 694.2 19.1907C720.507 20.7594 746.552 24.1293 772.599 27.6116C833.064 35.7595 892.767 40.2095 954.221 36.4908C1006.9 33.2792 1058.2 29.1303 1111.09 31.5901C1157.19 33.7447 1202.87 36.0172 1249.08 35.8669C1316.22 35.6137 1380.55 49.3295 1445.14 61.8059C1526.99 77.5977 1605.17 85.8529 1688.25 69.2693C1780.15 50.8858 1867.71 16.1544 1963.75 13.5037M-178.312 86.8605C-88.2191 82.7701 -2.28862 55.1383 83.8955 36.0425C122.714 27.449 162.54 19.4041 202.873 17.4201C249.631 15.128 297.536 18.7199 344.212 21.0917C444.352 26.1406 544.313 33.8322 644.571 36.9133C678.872 37.9851 713.568 36.4674 747.613 39.7897C772.073 42.1689 795.852 47.0851 819.562 52.1707C878.586 64.8317 936.303 70.4311 997.753 66.3753C1044.36 63.2986 1089.91 56.5277 1136.62 61.3149C1174.53 65.205 1211.07 67.9332 1249.43 68.3342C1317.3 68.9704 1380.71 89.6643 1443.45 107.614C1481.73 118.578 1520.8 128.97 1561.43 133.162C1604.49 137.659 1645.05 131.01 1685.75 119.47C1778.13 93.3276 1863.94 45.4166 1964.02 39.6799M-177.89 119.383C-92.0896 114.786 -14.2433 80.6866 64.8827 57.1319C100.817 46.4409 138.406 36.6835 176.878 34.3866C228.126 31.3621 281.336 36.4019 332.446 39.2219C449.034 45.6303 565.446 55.0186 682.22 59.2899C717.381 60.5752 753.642 58.5317 788.417 63.1366C811.314 66.1541 832.897 72.447 854.482 78.9085C912.137 96.194 968.355 101.869 1030.23 97.1898C1070.9 94.1339 1115.48 83.3869 1156.3 91.5089C1187.95 97.7835 1216.77 100.387 1249.71 100.859C1318.73 101.873 1381.14 128.254 1442.22 150.439C1479.68 164.054 1518.21 177.262 1559.21 182.685C1603.08 188.52 1643.54 180.018 1683.86 166.011C1776.16 133.971 1860.68 74.4477 1964.23 67.4298M-177.469 151.849C-92.3592 149.06 -19.2834 110.64 56.7373 84.4846C91.7255 72.4577 128.453 62.3744 166.789 60.641C219.261 58.2747 272.822 62.8606 325.077 65.8342C450.175 72.975 575.03 83.4896 700.381 88.1552C734.757 89.4507 770.723 86.7369 804.577 91.9155C826.335 95.2287 846.143 102.387 865.955 109.827C922.589 131.058 978.721 135.555 1041.36 129.854C1072.83 126.974 1104.1 120.613 1135.81 119.584C1145.8 119.229 1155.31 119.668 1164.7 122.58C1193.39 131.421 1218.92 133.281 1250.28 133.435C1320.71 133.757 1381.59 162.574 1442.12 187.294C1478.96 202.322 1517.3 217.105 1558.66 222.523C1602.59 228.302 1643.49 220.074 1683.37 205.119C1775 170.784 1859.18 102.501 1964.7 98.1539M-177.047 184.372C-91.5028 182.026 -18.3739 142.201 57.6388 115.428C92.6233 103.12 129.349 92.8683 167.829 91.1892C219.872 88.8847 272.572 93.1446 324.339 97.0235C443.815 105.866 562.859 119.883 682.715 124.957C717.593 126.415 753.908 123.079 788.329 127.913C811.658 131.206 833.255 138.566 854.643 146.378C911.844 167.209 967.028 175.706 1030.54 170.612C1072.35 167.261 1114.61 159.578 1156.92 161.164C1188.29 162.386 1219.4 165.072 1250.84 165.788C1320.79 167.408 1381.35 193.701 1442.66 217.343C1479.7 231.638 1518.1 245.522 1559.17 250.944C1603.03 256.723 1643.78 248.273 1683.88 233.988C1776.17 201.162 1860.87 138.49 1965.29 132.528M-176.625 216.894C-90.2267 214.313 -16.9097 172.462 59.017 144.567C93.9235 131.755 130.784 120.883 169.548 119.088C218.663 116.822 268.382 122.525 316.812 127.964C425.76 140.202 533.866 159.024 643.61 166.476C678.07 168.838 713.602 165.68 747.599 170.857C773.079 174.74 796.687 183.029 819.873 191.773C877.657 213.495 933.125 227.326 998.368 223.895C1045.34 221.431 1091.91 215.434 1137.65 206.863C1175.13 199.86 1212.61 197.857 1251.05 198.369C1319.92 199.217 1381.16 223.197 1442.8 244.532C1480.11 257.475 1518.63 269.953 1559.26 274.65C1602.69 279.705 1643.52 272.377 1684 259.661C1776.91 230.422 1862.98 175.092 1965.56 169.94M-176.204 249.361C-88.8128 246.204 -15.3115 202.048 60.7398 172.747C95.5669 159.318 132.701 147.544 171.749 145.632C216.651 143.421 262.542 151.364 306.068 158.777C402.071 175.228 496.462 199.565 594.033 210.265C627.439 213.933 661.836 211.408 694.84 217.103C722.617 221.855 748.385 231.408 773.658 241.361C832.102 264.423 888.789 284.137 955.851 283.266C1010.92 282.552 1062.28 272.054 1113.07 255.889C1158.17 241.54 1202.54 231.302 1251.54 230.778C1319.03 230.071 1381.46 251.564 1443.2 270.089C1480.85 281.398 1519.34 292.078 1559.61 295.825C1602.38 299.821 1643.66 294.173 1684.38 283.476C1777.78 258.95 1865.53 211.8 1966.14 208.584M-175.782 281.883C-87.3975 278.208 -13.6411 231.689 62.4634 200.983C97.1397 186.938 134.62 174.316 173.952 172.233C214.854 170.073 256.843 180.146 295.397 189.646C378.596 210.252 458.774 240.279 544.599 254.052C576.954 259.251 610.215 257.246 642.224 263.347C672.299 269.081 700.296 279.785 727.514 291.005C786.618 315.294 844.947 340.492 913.334 342.638C976.148 344.632 1033.06 326.59 1088.35 304.974C1140.38 284.636 1192.84 265.135 1251.89 263.302C1318.15 261.262 1381.61 280.045 1443.53 295.759C1481.44 305.379 1520.06 314.316 1559.89 317.114C1602.14 320.105 1643.8 316.025 1684.69 307.461C1778.51 287.76 1867.94 248.679 1966.64 247.342M-175.361 314.349C-86.1935 310.44 -12.2484 261.952 63.8408 230.066C98.5112 215.571 136.126 202.274 175.671 200.132C214.217 198.059 253.005 209.128 288.012 220.584C360.896 244.414 428.998 279.653 505.921 295.453C537.578 301.952 570.266 299.843 601.991 306.06C634.145 312.385 664.155 324.018 693.313 336.111C752.994 360.955 812.809 390.515 881.735 395.632C949.374 400.653 1011.83 375.349 1069.59 350.498C1126.63 325.938 1185.91 298.371 1252.38 295.823C1317.85 293.344 1381.71 309.594 1443.96 322.944C1524.54 340.269 1602.42 347.124 1685.1 333.129C1779.11 317.191 1869.91 285.338 1967.19 284.638M-174.939 346.872C-85.3372 343.406 -11.1967 293.455 64.7438 261.122C99.4106 246.346 136.952 232.938 176.712 230.793C215.543 228.716 253.034 238.903 287.489 251.827C355.107 277.242 415.832 316.397 488.967 332.134C521.058 339.021 554.234 335.95 586.527 341.935C620.252 348.183 651.979 360.074 682.641 372.486C742.674 396.819 803.092 428.844 871.545 436.045C940.427 443.298 1004.28 414.997 1062.08 388.91C1120.74 362.419 1183.11 329.924 1252.8 328.233C1318 326.713 1381.69 341.111 1444.28 353.164C1482.52 360.533 1521.18 367.279 1560.57 369.521C1602.53 371.954 1644.2 368.435 1685.4 362.17C1779.51 347.972 1871.17 321.277 1967.57 318.959M-174.517 379.338C-87.2953 374.161 -15.7923 330.144 59.6724 299.67C94.1365 285.796 131.404 273.234 170.373 270.762C208.058 268.363 246.625 278.93 280.564 290.681C345.788 313.261 405.022 347.605 474.64 361.982C506.727 368.588 539.694 365.97 571.775 372.07C607.22 378.745 640.598 391.289 672.909 404.185C736.095 429.32 800.972 463.702 872.714 471.086C942.881 478.265 1010.06 447.9 1069.81 422.686C1131.12 396.778 1199.02 361.74 1270.72 360.585C1332.57 359.614 1392.45 372.095 1451.96 383.458C1487.9 390.351 1524.13 396.285 1561.15 398.389C1603.47 400.818 1645.21 397.186 1686.93 391.364C1780.69 378.237 1872.39 354.8 1967.99 351.537M-174.095 411.861C-92.2888 407.709 -24.5411 371.549 48.1958 345.549C81.827 333.54 117.555 323.47 154.602 321.472C190.506 319.49 227.178 327.104 260.659 336.557C321.241 353.692 377.306 380.549 440.871 390.904C473.37 396.212 506.625 393.758 538.851 400.081C577.88 407.721 614.775 421.512 650.671 435.428C720.884 462.607 793.588 500.203 872.562 508.953C947.673 517.304 1024.38 483.107 1089.62 458.047C1129 442.929 1168.16 427.253 1208.7 414.198C1242.28 403.37 1277.93 393.244 1314.57 392.6C1368.56 391.619 1420.11 400.894 1472.1 410.725C1544.85 424.5 1615.65 425.21 1689.82 416.663C1782.83 405.906 1874.37 386.909 1968.63 384.113M-173.673 444.383C-98.8396 442.345 -35.3341 415.06 33.4799 395.01C99.4472 375.783 166.124 372.727 234.296 385.719C289.004 396.133 341.164 413.77 397.45 419.163C430.85 422.382 463.894 420.155 496.769 426.92C540.315 435.849 581.657 451.099 622.071 466.305C666.074 482.925 709.449 500.676 753.941 516.504C791.402 529.894 830.575 543.093 871.571 548.179C909.276 552.859 946.328 545.749 982.21 536.519C1027.7 524.805 1071.58 509.461 1115.31 494.174C1161.1 478.187 1206.68 461.64 1253.5 447.606C1291.06 436.332 1330.57 425.482 1371.05 424.339C1414.75 423.098 1456.04 428.573 1498.22 436.341C1562.16 448.151 1628.27 445.271 1693.2 439.878C1785.17 432.168 1876.35 418.232 1969.05 416.579M-173.252 476.849C-105.538 476.645 -45.633 458.115 18.7625 444.358C79.952 431.261 145.152 429.965 207.931 434.769C256.767 438.517 304.799 446.321 353.957 447.368C388.611 448.098 420.734 446.502 454.686 453.701C502.749 463.92 548.539 480.63 593.47 497.181C642.851 515.417 691.533 534.785 741.333 552.229C782.594 566.75 825.571 581.304 870.509 587.406C911.153 592.89 951.262 584.673 990.069 575.181C1041.34 562.606 1091.2 546.397 1140.85 530.359C1192.99 513.447 1244.98 496.031 1298.07 481.072C1339.5 469.411 1383.06 457.554 1427.33 456.137C1460.53 455.088 1491.91 456.591 1524.19 462.071C1579.39 471.467 1640.68 466.065 1696.5 463.206C1787.51 458.542 1878.12 449.725 1969.4 449.103M-172.83 509.372C-110.894 509.748 -53.1793 498.606 7.28517 490.181C66.6805 481.938 127.977 482.547 188.024 480.532C232.078 479.062 276.137 477.985 320.188 476.233C355.528 474.82 387.164 474.184 421.691 481.714C473.339 492.954 522.644 510.797 571.16 528.426C624.916 547.953 678.044 568.668 732.219 587.515C776.42 602.841 822.269 618.594 870.144 625.332C912.581 631.355 954.679 622.269 995.341 612.64C1051.31 599.33 1105.95 582.497 1160.38 565.78C1217.8 548.181 1274.99 530.023 1333.29 514.267C1377.42 502.346 1423.84 489.834 1470.74 488.158C1495.23 487.278 1519.8 486.566 1543.98 489.342C1557.07 490.858 1570.42 490.516 1583.56 490.345C1622.06 489.846 1660.63 489.458 1699.11 488.509C1789.3 486.271 1879.39 481.9 1969.68 481.683M-172.409 541.838C-113.491 540.849 -56.0754 534.149 2.35584 528.672C61.8576 523.124 121.886 525.154 181.313 519.327C223.047 515.246 264.173 508.308 306.217 506.077C340.98 504.222 373.484 504.418 407.295 511.788C460.662 523.399 511.547 541.896 561.713 560.009C617.979 580.346 673.616 601.759 730.372 621.36C775.576 636.953 822.576 653.309 871.524 660.146C913.53 666.005 955.482 656.641 995.647 647.243C1054.04 633.508 1111.18 616.306 1168.17 599.33C1228.51 581.3 1288.71 562.823 1349.85 546.58C1394.2 534.825 1441.39 521.628 1488.52 520.286C1509.51 519.733 1530.66 519.739 1551.65 519.467L1970.17 514.036M-171.987 574.361C-111.209 573.572 -52.1611 566.064 7.97906 560.172C68.0478 554.28 128.571 555.91 188.721 550.748C232.887 546.916 276.667 540.786 321.067 538.525C355.974 536.724 388.549 536.863 422.575 544.286C474.367 555.637 523.606 573.93 572.055 591.897C625.817 611.93 678.88 633.095 733.132 652.391C777.194 668.055 823.119 684.145 871.065 690.826C913.429 696.737 955.597 687.538 996.117 677.967C1052.87 664.59 1108.37 647.69 1163.73 631.017C1222.14 613.349 1280.34 595.234 1339.57 579.41C1383.56 567.659 1430.6 554.521 1477.45 553.295C1501.01 552.652 1524.38 553.641 1547.77 550.809C1560.18 549.3 1572.83 549.361 1585.33 549.255C1623.96 548.753 1662.54 548.758 1701.1 547.752C1790.93 545.463 1880.66 541.04 1970.52 540.83M-171.565 606.883C-106.932 605.932 -44.0433 597.139 19.8719 590.41C82.7172 583.809 145.877 584.899 208.968 580.71C257.856 577.435 306.507 572.478 355.482 570.382C390.107 568.921 422.603 568.499 456.203 576.097C504.561 586.986 550.294 604.82 595.025 622.498C644.422 641.969 693.05 662.686 742.938 681.421C783.997 696.843 826.987 712.465 872.143 718.845C913.076 724.606 954.107 715.815 993.274 706.543C1046.9 693.769 1099.26 677.528 1151.34 661.403C1206.26 644.398 1261.04 626.946 1316.84 611.783C1359.19 600.279 1404.11 587.954 1449.24 586.695C1478.94 585.86 1507.23 585.774 1536.23 580.341C1552.05 577.383 1568.4 576.665 1584.61 576.23C1623.59 575.162 1662.45 575.164 1701.36 573.086C1791.15 568.325 1880.61 559.243 1970.68 558.636M-171.143 639.35C-101.514 638.109 -33.7887 627.736 34.9706 619.99C101.661 612.439 168.528 613.032 235.633 609.914C290.317 607.407 344.914 603.665 399.679 601.943C433.667 600.884 466.154 599.788 499.112 607.507C543.104 617.778 584.403 635.164 624.485 652.34C668.588 671.206 711.779 691.32 756.444 709.392C793.498 724.416 832.696 739.582 874.06 745.45C912.704 750.959 951.743 742.812 988.7 733.906C1038.47 721.912 1086.85 706.397 1135.08 691.052C1185.8 674.888 1236.3 658.221 1287.9 643.9C1327.9 632.819 1369.9 621.544 1412.53 620.317C1450.09 619.268 1484.7 616.515 1520.96 608.966C1579.51 596.746 1641.86 601.274 1701.65 596.004C1791.48 588.096 1880.3 573.742 1970.85 572.061M-170.721 671.872C-96.1683 670.231 -23.5327 658.445 49.9985 649.626C120.606 641.182 191.111 641.334 262.3 639.231C322.851 637.434 383.32 634.908 443.877 633.616C477.155 632.904 509.777 631.188 541.952 639.085C581.651 648.795 618.371 665.622 653.875 682.352C692.613 700.613 730.44 720.122 769.81 737.533C802.858 752.16 838.192 766.814 875.907 772.223C912.262 777.426 949.38 769.922 984.128 761.437C1029.98 750.224 1074.44 735.49 1118.75 720.87C1165.2 705.492 1211.49 689.667 1258.89 676.131C1296.61 665.416 1335.48 655.474 1375.75 654.052C1420.87 652.456 1462.23 647.088 1505.69 637.704C1569.94 623.78 1636.55 627.073 1702.02 619.032C1791.88 607.979 1879.92 588.353 1971.1 585.597M-170.3 704.338C-91.8204 702.534 -15.345 689.406 61.9621 679.808C135.418 670.652 208.49 670.491 282.618 669.136C347.891 667.952 413.087 666.375 478.364 665.472C511.216 665.046 544.046 662.822 575.651 670.839C612.058 680.086 645.201 696.453 676.914 712.839C738.399 744.513 802.484 789.356 876.984 800.187C911.908 805.239 947.818 798.2 981.213 789.958C1023.93 779.347 1065.25 765.272 1106.29 751.2C1182.02 725.33 1263.43 690.454 1347.4 687.51C1398.38 685.725 1445.13 677.983 1494.07 667.236C1562.59 652.19 1632.84 654.761 1702.21 644.367C1792.04 630.842 1879.23 606.621 1971.19 603.405M-169.878 736.861C-89.61 735.257 -11.36 721.265 67.7274 711.25C141.823 701.861 215.463 701.411 290.239 700.441C358.016 699.562 425.792 698.682 493.569 697.803C526.565 697.375 559.465 695.094 591.286 703.22C626.189 712.149 657.685 728.257 687.541 744.611C745.455 776.332 804.956 820.222 876.666 830.696C911.876 835.801 948.145 828.926 981.823 820.512C1022.91 810.259 1062.51 796.487 1101.91 782.718C1175.51 756.987 1254.36 723.155 1336.25 720.351C1389.8 718.533 1438.76 709.751 1490.19 698.41C1520.32 691.727 1550.75 686.388 1582.01 684.185C1622.76 681.297 1662.4 680.951 1702.74 674.36C1792.63 659.71 1879.13 632.183 1971.67 629.915M-169.457 769.327C-88.9658 768.395 -11.0255 752.552 67.906 741.528C140.135 731.434 212.195 730.33 285.217 731.798C350.808 733.138 416.337 735.153 481.953 732.897C518.009 731.643 552.953 727.201 588.064 735.621C622.744 743.879 654.369 758.974 684.5 774.426C743.537 804.671 803.215 845.694 874.289 856.682C909.575 862.123 945.628 855.082 979.451 846.834C1020.04 836.982 1059.23 823.889 1098.2 810.743C1171.88 785.911 1249.55 754.285 1330.86 750.59C1383.9 748.16 1435.67 741.196 1487.93 733.552C1519.09 728.99 1550.32 725.101 1581.94 722.781C1622.61 719.838 1662.25 719.604 1702.38 712.286C1792.45 695.836 1878.24 662.813 1972.09 662.213M-169.035 801.85C-88.1903 800.632 -10.8571 782.044 67.6918 769.059C137.758 757.476 207.227 754.833 278.301 760.315C340.937 765.12 402.508 770.388 465.69 767.715C504.169 766.036 541.803 759.705 579.756 766.965C614.2 773.541 646.158 786.777 676.694 800.482C737.12 827.563 797.597 864.194 867.724 873.734C902.716 878.504 938.35 872.255 972.11 864.682C1011.71 855.798 1050.13 843.782 1088.4 831.769C1161.39 808.8 1237.38 780.398 1316.84 776.951C1371.6 774.555 1426.44 773.338 1481.21 771.728C1554.04 769.547 1630.51 772.432 1701.09 756.46C1791.54 735.96 1876.38 695.365 1972.44 694.062M-168.613 834.372C-87.3492 832.419 -10.8439 810.584 67.3879 795.187C134.861 781.895 202.078 776.416 270.509 787.382C329.992 796.891 385.815 805.099 447.138 802.337C487.759 800.518 528.37 792.407 568.942 797.836C603.074 802.393 635.429 813.209 666.509 824.772C728.31 847.79 789.864 879.238 859.031 886.431C931.775 894.026 1008.23 868.596 1075.34 849.41C1146.73 828.99 1221.54 803.244 1298.37 801.46C1356.64 800.086 1414.51 806.077 1472.22 811.396C1548.53 818.439 1625.47 824.519 1699.49 803.728C1790.31 778.167 1874.03 728.879 1972.92 725.629M-168.191 866.838C-86.4375 864.148 -10.6886 839.064 67.0841 821.314C130.969 806.721 198.415 796.857 262.645 814.45C284.008 820.297 304.603 827.558 326.658 831.766C359.884 838.076 394.535 838.582 428.515 836.961C471.562 834.942 514.798 825.448 557.985 828.708C591.805 831.303 624.558 839.642 656.181 849.063C719.284 867.794 781.915 894.229 850.267 899.128C922.266 904.318 994.724 884.389 1062.29 867.108C1132.06 849.292 1205.62 826.372 1279.91 826.138C1342.48 825.944 1403.16 839.426 1463.24 851.287C1499.69 858.511 1536.56 864.998 1574.1 867.657C1618 870.74 1657.14 864.895 1697.82 851.221C1788.79 820.658 1871.54 762.731 1973.4 757.42M-167.769 899.361C-85.4485 896.326 -10.4495 868.499 66.8691 848.788C126.033 833.695 197.554 818.61 255.657 842.912C273.756 850.43 290.234 859.71 309.802 864.906C342.417 873.64 378.131 873.57 412.109 871.78C457.937 869.388 503.514 858.628 549.535 860.11C583.192 861.133 616.134 867.56 648.233 875.121C712.432 890.243 775.866 912.51 843.559 916.126C914.539 919.924 984.687 903.564 1052.2 888.137C1121 872.413 1193.24 852.206 1265.61 852.559C1331.97 852.878 1394.8 872.681 1456.38 889.634C1494.02 899.989 1532.36 909.66 1572.06 913.695C1616.76 918.284 1656.02 910.92 1696.54 895.563C1787.31 861.239 1869.46 795.511 1973.74 789.27M-167.348 931.827C-84.59 929.461 -10.045 899.674 67.0463 878.955C120.647 864.551 200.105 844.532 250.633 874.101C265.821 883.005 278.459 893.627 296.322 899.519C328.534 910.224 366.233 909.005 400.42 906.764C449.167 903.603 497.299 891.63 546.309 892.286C579.817 892.75 612.887 898.052 645.187 904.599C710.074 917.689 773.832 937.424 841.175 941.606C911.091 945.924 981.528 929.841 1048.49 915.658C1117.3 901.057 1188.29 883.169 1260.07 882.407C1328.56 881.686 1392.01 905.02 1454.05 924.665C1492.06 936.699 1531.07 948.216 1571.99 952.348C1616.47 956.883 1656.31 949.4 1696.25 933.488C1743.36 914.731 1785.82 889.517 1830.25 867.143C1874.25 844.943 1921.11 823.661 1974.3 821.397M-166.926 964.35C-85.0403 960.815 -9.73744 934.389 67.7343 915.462C126.834 900.988 198.494 885.507 256.313 909.982C274.269 917.558 290.676 926.839 310.103 932.149C342.647 940.94 378.433 940.869 412.482 939.023C458.523 936.571 503.898 926.769 550.199 927.854C583.496 928.601 616.488 933.398 648.851 939.214C713.576 950.902 777.444 968.051 844.072 972.242C913.132 976.627 983.79 961.047 1050.34 948.162C1118.6 934.916 1189.67 917.871 1260.45 917.177C1327.87 916.527 1392.8 938.493 1454.96 956.001C1493.38 966.851 1532.52 977.129 1573.22 981.32C1617.56 985.857 1657.03 977.929 1697.34 963.08C1788.48 929.538 1871.03 867.119 1974.66 859.82M-166.505 996.816C-85.6123 993.8 -9.17255 972.415 68.7729 956.966C132.682 944.283 200.483 934.246 264.144 951.959C285.364 957.863 305.817 965.182 327.802 969.447C361.029 975.87 395.679 976.319 429.66 974.755C473.064 972.675 515.821 964.873 559.403 965.543C592.34 966.071 625.104 969.803 657.451 974.439C721.859 983.66 785.609 997.271 851.225 1000.46C919.27 1003.74 988.184 991.384 1054.48 980.636C1122.12 969.702 1191.59 955.992 1260.87 955.317C1327.72 954.619 1393.02 971.917 1456.49 985.981C1495.53 994.632 1535 1002.77 1575.54 1005.95C1618.87 1009.38 1658.79 1003.19 1699.49 991.03C1791 963.663 1875.28 913.412 1975.28 907.452M-166.083 1029.34C-19.1887 1026.25 125.556 973.083 272.874 997.182C332.217 1006.92 387.826 1015.19 449.149 1012.37C489.984 1010.54 530.192 1004.41 571.123 1004.44C603.696 1004.46 636.157 1006.91 668.413 1010.03C732.354 1016.28 795.909 1025.84 860.433 1027.48C927.172 1029.2 993.855 1021.09 1059.75 1013.15C1126.51 1005.09 1193.75 995.963 1261.39 995.086C1328.09 994.22 1393.38 1005.4 1458.51 1015.17C1540.32 1027.42 1620.28 1035.26 1702.13 1018.07C1793.45 998.856 1879.98 962.396 1975.88 959.691M-165.661 1061.86C-15.6636 1061.21 131.302 1030.59 281.677 1042.52C344.244 1047.49 405.602 1052.88 468.712 1050.15C506.906 1048.53 544.707 1044.05 582.987 1043.5C615.197 1043.08 647.427 1044.18 679.521 1045.84C742.923 1049.12 806.211 1054.59 869.786 1054.72C935.148 1054.88 1000.1 1050.89 1065.11 1045.95C1130.69 1040.94 1196.06 1036.16 1261.98 1035.25C1328.68 1034.32 1394.39 1039.43 1460.61 1044.69C1541.62 1051.11 1623.82 1055.1 1704.84 1045.4C1795.63 1034.5 1884.2 1012 1976.64 1012.32M-165.24 1094.33C-13.5158 1094.61 137.676 1081.41 289.51 1084.72C355.031 1086.12 420.419 1088.3 485.963 1085.99C553.578 1083.6 620.465 1080.26 688.264 1081.06C815.503 1082.56 942.158 1083.1 1069.32 1078.36C1200.47 1073.46 1331.02 1071.71 1462.21 1074.5C1543.59 1076.2 1625.68 1076.99 1706.99 1073.18C1797.15 1068.92 1886.81 1058.77 1977.19 1060.12M-164.818 1126.85C120.863 1123.37 406.606 1119.27 692.286 1115.73C949.254 1112.51 1206.22 1109 1463.19 1105.73C1634.66 1103.56 1806.21 1100.99 1977.69 1099.05" stroke="url(#paint0_radial_261_8558)" stroke-opacity="0.18" stroke-width="3" stroke-miterlimit="10"/>
<defs>
<radialGradient id="paint0_radial_261_8558" cx="0" cy="0" r="1" gradientUnits="userSpaceOnUse" gradientTransform="translate(918 497) rotate(90.4437) scale(516.516 945.844)">
<stop stop-color="#EE5566" stop-opacity="0"/>
<stop offset="1" stop-color="#EE5566"/>
</radialGradient>
</defs>
</svg>
