<svg width="40" height="40" viewBox="0 0 40 40" fill="none" xmlns="http://www.w3.org/2000/svg">
<circle cx="20.5714" cy="17.1427" r="4.57143" fill="black"/>
<path fill-rule="evenodd" clip-rule="evenodd" d="M25.0498 32.1736H14.9502C14.6925 32.1736 14.4816 31.9627 14.4816 31.7284V28.19C10.6151 26.1279 8.22498 22.1677 8.22498 17.7624C8.22498 11.2714 13.4974 5.99902 19.9883 5.99902C26.4792 5.99902 31.7751 11.2714 31.7751 17.7624C31.7751 22.1677 29.3849 26.1279 25.495 28.19V31.7049C25.495 31.9627 25.3076 32.1736 25.0498 32.1736ZM20.1289 20.4337C19.8711 20.4337 19.6602 20.2228 19.6602 19.965V14.5286C18.9573 15.2082 18.3949 16.0752 17.9028 15.6065C17.7387 15.4191 17.7387 15.1144 17.9028 14.927L19.7774 13.0523C20.082 12.7711 20.5976 12.982 20.5976 13.3804V19.965C20.5976 20.2228 20.3867 20.4337 20.1289 20.4337ZM19.9883 24.1595C15.8641 24.1595 12.5132 20.8086 12.5132 16.6844C12.5132 12.5368 15.8641 9.1859 19.9883 9.1859C24.1359 9.1859 27.4868 12.5368 27.4868 16.6844C27.4868 20.8086 24.1359 24.1595 19.9883 24.1595ZM19.9883 10.1232C16.3796 10.1232 13.4505 13.0523 13.4505 16.6844C13.4505 20.2931 16.3796 23.2222 19.9883 23.2222C23.597 23.2222 26.5495 20.2931 26.5495 16.6844C26.5495 13.0523 23.597 10.1232 19.9883 10.1232Z" fill="black"/>
<path fill-rule="evenodd" clip-rule="evenodd" d="M23.6204 37.3282H16.3562C15.372 37.3282 14.5519 36.5315 14.4816 35.5473H19.9883C20.5976 35.5473 20.5976 34.6334 19.9883 34.6334H14.4816V32.8525C14.6222 32.8994 14.7862 32.9463 14.9502 32.9463H25.0498C25.2138 32.9463 25.3544 32.8994 25.495 32.8525V35.4302C25.495 36.4846 24.6515 37.3282 23.6204 37.3282Z" fill="black"/>
<path fill-rule="evenodd" clip-rule="evenodd" d="M21.4881 39.9996H18.5121C17.481 39.9996 16.6375 39.156 16.6375 38.0781H23.3627C23.3627 39.156 22.5191 39.9996 21.4881 39.9996Z" fill="black"/>
<path fill-rule="evenodd" clip-rule="evenodd" d="M19.9883 5.01465C19.4962 5.01465 19.0744 4.59285 19.0744 4.07733V0.913884C19.0744 -0.304628 20.9022 -0.304628 20.9022 0.913884V4.07733C20.9022 4.59285 20.5038 5.01465 19.9883 5.01465ZM27.2759 6.95958C26.5729 6.95958 26.1277 6.18629 26.4792 5.57704L28.0727 2.83538C28.6819 1.7809 30.2754 2.69479 29.6661 3.74927L28.0727 6.49092C27.9086 6.77212 27.604 6.95958 27.2759 6.95958ZM32.6186 12.3023C31.6813 12.3023 31.3533 11.0603 32.1734 10.5917L34.9151 8.99824C35.9696 8.38899 36.8834 9.98243 35.829 10.5917C35.2666 10.8963 33.1107 12.3023 32.6186 12.3023ZM37.7505 19.5899H34.5636C33.3685 19.5899 33.3685 17.7387 34.5636 17.7387H37.7505C38.969 17.7387 38.969 19.5899 37.7505 19.5899ZM12.7007 6.95958C12.3726 6.95958 12.068 6.79555 11.9039 6.49092L10.3105 3.74927C9.72468 2.69479 11.2947 1.7809 11.9039 2.83538L13.4974 5.57704C13.8489 6.18629 13.4036 6.95958 12.7007 6.95958ZM7.35795 12.3023C6.88929 12.3023 4.71003 10.8963 4.14764 10.5917C3.11659 9.98243 4.03048 8.38899 5.06153 8.99824L7.82661 10.5917C8.62333 11.0603 8.29527 12.3023 7.35795 12.3023ZM5.41302 19.5899H2.22614C1.03106 19.5899 1.03106 17.7387 2.22614 17.7387H5.41302C6.63153 17.7387 6.63153 19.5899 5.41302 19.5899Z" fill="#D81F28"/>
</svg>
