<svg width="104" height="104" viewBox="0 0 104 104" fill="none" xmlns="http://www.w3.org/2000/svg">
<circle cx="51.8569" cy="51.8555" r="49.5" stroke="#B8B8B8"/>
<g filter="url(#filter0_d_280_97)">
<circle cx="51.8571" cy="51.8571" r="42.8571" fill="white"/>
</g>
<g clip-path="url(#clip0_280_97)">
<path d="M54.0013 53.8948C55.0956 52.8098 56.4279 51.7901 58.0496 51.8555C59.5126 51.8555 63.3393 53.3208 65.4043 54.1888H79.8546V51.8555H68.1879V34.3555C68.1879 31.1401 65.5723 28.5221 62.3546 28.5221H58.8546V27.3555C58.8546 25.4258 57.2843 23.8555 55.3546 23.8555H48.3546C46.4249 23.8555 44.8546 25.4258 44.8546 27.3555V28.5221H41.3546C38.1369 28.5221 35.5213 31.1401 35.5213 34.3555V51.8555H23.8569V54.1888H38.1323C39.9103 53.2858 43.2399 51.8695 44.8569 51.8555C46.0143 51.8555 47.1249 52.2848 47.9789 53.0641L49.8666 54.7838L44.9736 59.6208C43.6109 60.9835 43.6109 63.2048 44.9736 64.5698C46.3409 65.9371 48.5646 65.9325 49.9319 64.5651L53.6583 60.7805L63.6939 69.7918L53.7913 77.5198H49.9273L37.9689 68.1865H23.8569V70.5198H37.1639L49.1223 79.8531H54.5916L66.5499 70.5198H79.8569V68.1865H65.3973L53.5579 57.5558L48.2753 62.9201C47.8226 63.3728 47.0806 63.3775 46.6233 62.9201C46.1706 62.4651 46.1706 61.7231 46.6233 61.2681L54.0013 53.8901V53.8948ZM47.1903 27.3555C47.1903 26.7115 47.7153 26.1888 48.3569 26.1888H55.3569C55.9986 26.1888 56.5236 26.7115 56.5236 27.3555V28.5221H47.1903V27.3555ZM37.8569 34.3555C37.8569 32.4258 39.4273 30.8555 41.3569 30.8555H62.3569C64.2866 30.8555 65.8569 32.4258 65.8569 34.3555V37.8555H37.8569V34.3555ZM49.5516 51.3398C48.2636 50.1685 46.5953 49.5221 44.8033 49.5221C42.7009 49.5221 39.1986 51.0901 37.8569 51.7271V40.1888H50.6903V44.8555H53.0236V40.1888H65.8569V51.7621C64.4313 51.1835 60.1636 49.5221 58.0496 49.5221C56.2646 49.5221 54.5683 50.1965 53.2943 51.3958L51.5093 53.1248L49.5493 51.3398H49.5516Z" fill="#D81F28"/>
</g>
<defs>
<filter id="filter0_d_280_97" x="0" y="0" width="103.714" height="103.714" filterUnits="userSpaceOnUse" color-interpolation-filters="sRGB">
<feFlood flood-opacity="0" result="BackgroundImageFix"/>
<feColorMatrix in="SourceAlpha" type="matrix" values="0 0 0 0 0 0 0 0 0 0 0 0 0 0 0 0 0 0 127 0" result="hardAlpha"/>
<feOffset/>
<feGaussianBlur stdDeviation="4.5"/>
<feComposite in2="hardAlpha" operator="out"/>
<feColorMatrix type="matrix" values="0 0 0 0 0 0 0 0 0 0 0 0 0 0 0 0 0 0 0.1 0"/>
<feBlend mode="normal" in2="BackgroundImageFix" result="effect1_dropShadow_280_97"/>
<feBlend mode="normal" in="SourceGraphic" in2="effect1_dropShadow_280_97" result="shape"/>
</filter>
<clipPath id="clip0_280_97">
<rect width="56" height="56" fill="white" transform="translate(23.8569 23.8555)"/>
</clipPath>
</defs>
</svg>
