<svg width="24" height="24" viewBox="0 0 24 24" fill="none" xmlns="http://www.w3.org/2000/svg">
<path d="M12 1C9.82441 1 7.69767 1.64514 5.88873 2.85383C4.07979 4.06253 2.66989 5.7805 1.83733 7.79048C1.00477 9.80047 0.786929 12.0122 1.21137 14.146C1.6358 16.2798 2.68345 18.2398 4.22183 19.7782C5.76021 21.3166 7.72022 22.3642 9.85401 22.7886C11.9878 23.2131 14.1995 22.9952 16.2095 22.1627C18.2195 21.3301 19.9375 19.9202 21.1462 18.1113C22.3549 16.3023 23 14.1756 23 12C22.9967 9.08364 21.8367 6.28766 19.7745 4.22548C17.7123 2.1633 14.9164 1.00331 12 1ZM12 21C10.22 21 8.47992 20.4722 6.99987 19.4832C5.51983 18.4943 4.36628 17.0887 3.68509 15.4442C3.0039 13.7996 2.82567 11.99 3.17294 10.2442C3.5202 8.49836 4.37737 6.89471 5.63604 5.63604C6.89472 4.37737 8.49836 3.5202 10.2442 3.17293C11.99 2.82567 13.7996 3.0039 15.4442 3.68508C17.0887 4.36627 18.4943 5.51983 19.4832 6.99987C20.4722 8.47991 21 10.22 21 12C20.9974 14.3861 20.0483 16.6738 18.361 18.361C16.6738 20.0483 14.3861 20.9974 12 21Z" fill="#D81F28"/>
<path d="M13 11.586V8C13 7.73478 12.8946 7.48043 12.7071 7.29289C12.5196 7.10536 12.2652 7 12 7C11.7348 7 11.4804 7.10536 11.2929 7.29289C11.1054 7.48043 11 7.73478 11 8V12L11.001 12.0048C11.0027 12.2682 11.1077 12.5204 11.2933 12.7073L14.1211 15.5356C14.2134 15.6308 14.3238 15.7067 14.4457 15.7588C14.5676 15.8109 14.6987 15.8383 14.8313 15.8393C14.9639 15.8403 15.0953 15.815 15.218 15.7647C15.3407 15.7144 15.4522 15.6402 15.546 15.5465C15.6398 15.4527 15.7139 15.3413 15.7642 15.2186C15.8145 15.0959 15.8399 14.9644 15.8389 14.8318C15.8379 14.6992 15.8105 14.5681 15.7584 14.4462C15.7062 14.3243 15.6304 14.2139 15.5352 14.1216L13 11.586Z" fill="#D81F28"/>
</svg>
