<svg width="104" height="104" viewBox="0 0 104 104" fill="none" xmlns="http://www.w3.org/2000/svg">
<circle cx="51.8571" cy="51.8555" r="49.5" stroke="#B8B8B8"/>
<g filter="url(#filter0_d_280_64)">
<circle cx="51.8571" cy="51.8571" r="42.8571" fill="white"/>
</g>
<g clip-path="url(#clip0_280_64)">
<path d="M40.1904 70.5221C37.6167 70.5221 35.5237 72.6151 35.5237 75.1888C35.5237 77.7625 37.6167 79.8555 40.1904 79.8555C42.7641 79.8555 44.8571 77.7625 44.8571 75.1888C44.8571 72.6151 42.7641 70.5221 40.1904 70.5221ZM40.1904 77.5221C38.9047 77.5221 37.8571 76.4745 37.8571 75.1888C37.8571 73.9031 38.9047 72.8555 40.1904 72.8555C41.4761 72.8555 42.5237 73.9031 42.5237 75.1888C42.5237 76.4745 41.4761 77.5221 40.1904 77.5221ZM63.5237 70.5221C60.9501 70.5221 58.8571 72.6151 58.8571 75.1888C58.8571 77.7625 60.9501 79.8555 63.5237 79.8555C66.0974 79.8555 68.1904 77.7625 68.1904 75.1888C68.1904 72.6151 66.0974 70.5221 63.5237 70.5221ZM63.5237 77.5221C62.2381 77.5221 61.1904 76.4745 61.1904 75.1888C61.1904 73.9031 62.2381 72.8555 63.5237 72.8555C64.8094 72.8555 65.8571 73.9031 65.8571 75.1888C65.8571 76.4745 64.8094 77.5221 63.5237 77.5221ZM70.5237 23.8555C65.3764 23.8555 61.1904 28.0415 61.1904 33.1888C61.1904 38.3361 65.3764 42.5221 70.5237 42.5221C75.6711 42.5221 79.8571 38.3361 79.8571 33.1888C79.8571 28.0415 75.6711 23.8555 70.5237 23.8555ZM70.5237 40.1888C66.6644 40.1888 63.5237 37.0481 63.5237 33.1888C63.5237 29.3295 66.6644 26.1888 70.5237 26.1888C74.3831 26.1888 77.5237 29.3295 77.5237 33.1888C77.5237 37.0481 74.3831 40.1888 70.5237 40.1888ZM74.3177 46.6545C75.2184 46.4001 76.0817 46.0618 76.9007 45.6418L74.2594 58.8555H37.8991L38.4521 62.8361C38.6924 64.5581 40.1834 65.8555 41.9194 65.8555H70.5237V68.1888H41.9194C39.0261 68.1888 36.5411 66.0258 36.1421 63.1581L31.4287 29.2081C31.1884 27.4861 29.6974 26.1888 27.9614 26.1888H23.8571V23.8555H27.9614C30.8547 23.8555 33.3397 26.0185 33.7387 28.8861L34.3361 33.1888H56.5237C56.5237 33.9845 56.6054 34.7615 56.7337 35.5221H34.6604L37.5771 56.5221H72.3437L74.3177 46.6545Z" fill="#D81F28"/>
</g>
<defs>
<filter id="filter0_d_280_64" x="0" y="0" width="103.714" height="103.714" filterUnits="userSpaceOnUse" color-interpolation-filters="sRGB">
<feFlood flood-opacity="0" result="BackgroundImageFix"/>
<feColorMatrix in="SourceAlpha" type="matrix" values="0 0 0 0 0 0 0 0 0 0 0 0 0 0 0 0 0 0 127 0" result="hardAlpha"/>
<feOffset/>
<feGaussianBlur stdDeviation="4.5"/>
<feComposite in2="hardAlpha" operator="out"/>
<feColorMatrix type="matrix" values="0 0 0 0 0 0 0 0 0 0 0 0 0 0 0 0 0 0 0.1 0"/>
<feBlend mode="normal" in2="BackgroundImageFix" result="effect1_dropShadow_280_64"/>
<feBlend mode="normal" in="SourceGraphic" in2="effect1_dropShadow_280_64" result="shape"/>
</filter>
<clipPath id="clip0_280_64">
<rect width="56" height="56" fill="white" transform="translate(23.8571 23.8555)"/>
</clipPath>
</defs>
</svg>
