<svg width="104" height="104" viewBox="0 0 104 104" fill="none" xmlns="http://www.w3.org/2000/svg">
<circle cx="51.8569" cy="51.8555" r="49.5" stroke="#B8B8B8"/>
<g filter="url(#filter0_d_280_91)">
<circle cx="51.8571" cy="51.8571" r="42.8571" fill="white"/>
</g>
<g clip-path="url(#clip0_280_91)">
<path d="M65.8569 62.1105C65.8569 63.7088 67.0003 65.0575 68.5776 65.3188L75.1879 66.4225C77.8923 66.8705 79.8569 69.1898 79.8569 71.9338C79.8569 75.0161 77.3509 77.5221 74.2686 77.5221H72.8569V78.6888C72.8569 79.3328 72.3343 79.8555 71.6903 79.8555C71.0463 79.8555 70.5236 79.3328 70.5236 78.6888V77.5221H69.3569C66.1416 77.5221 63.5236 74.9041 63.5236 71.6888C63.5236 71.0448 64.0463 70.5221 64.6903 70.5221C65.3343 70.5221 65.8569 71.0448 65.8569 71.6888C65.8569 73.6185 67.4273 75.1888 69.3569 75.1888H74.2686C76.0629 75.1888 77.5236 73.7281 77.5236 71.9338C77.5236 70.3355 76.3803 68.9868 74.8029 68.7255L68.1926 67.6218C65.4883 67.1738 63.5236 64.8545 63.5236 62.1105C63.5236 59.0281 66.0296 56.5221 69.1119 56.5221H70.5236V55.3555C70.5236 54.7115 71.0463 54.1888 71.6903 54.1888C72.3343 54.1888 72.8569 54.7115 72.8569 55.3555V56.5221H74.0236C77.2389 56.5221 79.8569 59.1401 79.8569 62.3555C79.8569 62.9995 79.3343 63.5221 78.6903 63.5221C78.0463 63.5221 77.5236 62.9995 77.5236 62.3555C77.5236 60.4258 75.9533 58.8555 74.0236 58.8555H69.1119C67.3176 58.8555 65.8569 60.3161 65.8569 62.1105ZM50.6623 49.5221C53.8939 49.5221 56.5236 52.1518 56.5236 55.3835V62.3555C56.5236 65.5708 53.9056 68.1888 50.6903 68.1888H47.1903C45.9046 68.1888 44.8569 67.1411 44.8569 65.8555V51.8555C44.8569 50.5698 45.9046 49.5221 47.1903 49.5221H50.6623ZM50.6623 51.8555H47.1903V65.8555H50.6903C52.6199 65.8555 54.1903 64.2851 54.1903 62.3555V55.3835C54.1903 53.4375 52.6083 51.8555 50.6623 51.8555ZM42.5003 66.8238C42.6449 67.5331 42.0966 68.1935 41.3686 68.1888C40.8249 68.1865 40.3583 67.8061 40.2486 67.2788L39.4716 63.5221H33.9276L33.1739 67.2298C33.0643 67.7641 32.5906 68.1468 32.0423 68.1445H32.0003C31.2769 68.1398 30.7379 67.4818 30.8803 66.7795L33.8646 52.0608C34.0536 51.1298 34.8959 49.5221 36.6809 49.5221C38.4659 49.5221 39.2966 51.0598 39.5136 52.1331L42.5003 66.8238ZM38.9886 61.1888L37.2083 52.5951C37.1196 52.1635 37.0263 51.8578 36.6786 51.8578C36.3309 51.8578 36.2236 52.2451 36.1676 52.5205L34.4013 61.1888H38.9886ZM79.8569 34.3555V50.6888C79.8569 51.3328 79.3343 51.8555 78.6903 51.8555C78.0463 51.8555 77.5236 51.3328 77.5236 50.6888V42.5221H26.1903V64.6888C26.1903 69.1921 29.8536 72.8555 34.3569 72.8555H57.6903C58.3343 72.8555 58.8569 73.3781 58.8569 74.0221C58.8569 74.6661 58.3343 75.1888 57.6903 75.1888H34.3569C28.5679 75.1888 23.8569 70.4778 23.8569 64.6888V34.3555C23.8569 28.5665 28.5679 23.8555 34.3569 23.8555H69.3569C75.1459 23.8555 79.8569 28.5665 79.8569 34.3555ZM77.5236 40.1888V34.3555C77.5236 29.8521 73.8603 26.1888 69.3569 26.1888H34.3569C29.8536 26.1888 26.1903 29.8521 26.1903 34.3555V40.1888H77.5236ZM33.1903 30.8555C31.9023 30.8555 30.8569 31.9008 30.8569 33.1888C30.8569 34.4768 31.9023 35.5221 33.1903 35.5221C34.4783 35.5221 35.5236 34.4768 35.5236 33.1888C35.5236 31.9008 34.4783 30.8555 33.1903 30.8555ZM40.1903 30.8555C38.9023 30.8555 37.8569 31.9008 37.8569 33.1888C37.8569 34.4768 38.9023 35.5221 40.1903 35.5221C41.4783 35.5221 42.5236 34.4768 42.5236 33.1888C42.5236 31.9008 41.4783 30.8555 40.1903 30.8555ZM47.1903 30.8555C45.9023 30.8555 44.8569 31.9008 44.8569 33.1888C44.8569 34.4768 45.9023 35.5221 47.1903 35.5221C48.4783 35.5221 49.5236 34.4768 49.5236 33.1888C49.5236 31.9008 48.4783 30.8555 47.1903 30.8555Z" fill="#D81F28"/>
</g>
<defs>
<filter id="filter0_d_280_91" x="0" y="0" width="103.714" height="103.714" filterUnits="userSpaceOnUse" color-interpolation-filters="sRGB">
<feFlood flood-opacity="0" result="BackgroundImageFix"/>
<feColorMatrix in="SourceAlpha" type="matrix" values="0 0 0 0 0 0 0 0 0 0 0 0 0 0 0 0 0 0 127 0" result="hardAlpha"/>
<feOffset/>
<feGaussianBlur stdDeviation="4.5"/>
<feComposite in2="hardAlpha" operator="out"/>
<feColorMatrix type="matrix" values="0 0 0 0 0 0 0 0 0 0 0 0 0 0 0 0 0 0 0.1 0"/>
<feBlend mode="normal" in2="BackgroundImageFix" result="effect1_dropShadow_280_91"/>
<feBlend mode="normal" in="SourceGraphic" in2="effect1_dropShadow_280_91" result="shape"/>
</filter>
<clipPath id="clip0_280_91">
<rect width="56" height="56" fill="white" transform="translate(23.8569 23.8555)"/>
</clipPath>
</defs>
</svg>
