<svg width="40" height="40" viewBox="0 0 40 40" fill="none" xmlns="http://www.w3.org/2000/svg">
<path d="M34.8166 14.3999C34.6 14.0166 34.2333 13.7333 33.8 13.6166C28.4166 12.1499 22.8833 14.4333 19.9833 18.8666C18.9166 17.2166 17.4666 15.8333 15.7 14.8333C12.7833 13.1666 9.39996 12.7333 6.16663 13.6166C5.2833 13.8666 4.74996 14.7666 4.99996 15.6666C6.51663 21.2499 11.6 24.9333 17.1166 24.9333C17.5166 24.9333 17.9166 24.8999 18.3 24.8499V28.3333C13.9833 28.9499 10.3 31.9166 8.8333 36.0999C8.5333 36.9666 8.98329 37.9166 9.84996 38.2166C10.7166 38.5166 11.6666 38.0666 11.9666 37.1999C13.15 33.8166 16.35 31.5333 19.95 31.5333C23.55 31.5333 26.75 33.8166 27.9333 37.1999C28.1666 37.8833 28.8166 38.3166 29.5 38.3166C29.6833 38.3166 29.8666 38.2833 30.05 38.2166C30.9166 37.9166 31.3833 36.9666 31.0833 36.0999C29.6166 31.8999 25.9333 28.9499 21.6166 28.3333V24.8499C22.0166 24.8833 22.4333 24.9333 22.8333 24.9333C25 24.9333 27.1333 24.3666 29.05 23.2666C31.9666 21.5999 34.05 18.8999 34.9333 15.6666C35.05 15.2333 35 14.7833 34.7666 14.3999H34.8166Z" fill="black"/>
<path d="M13.9001 11.6503C14.2834 11.6503 14.6668 11.517 14.9834 11.2503L17.0334 9.48366L20.0168 11.017C20.6501 11.3503 21.4334 11.2337 21.9334 10.7337L25.4001 7.35033V8.33366C25.4001 9.25033 26.1501 10.0003 27.0668 10.0003C27.9834 10.0003 28.7334 9.25033 28.7334 8.33366V3.33366C28.7334 2.41699 27.9834 1.66699 27.0668 1.66699H22.0668C21.1501 1.66699 20.4001 2.41699 20.4001 3.33366C20.4001 4.25033 21.1501 5.00033 22.0668 5.00033H23.0334L20.4668 7.51699L17.5501 6.01699C16.9501 5.70033 16.2168 5.80033 15.7001 6.23366L12.8001 8.71699C12.1001 9.31699 12.0168 10.367 12.6168 11.067C12.9501 11.4503 13.4168 11.6503 13.8834 11.6503H13.9001Z" fill="#D81F28"/>
</svg>
