<svg width="40" height="40" viewBox="0 0 40 40" fill="none" xmlns="http://www.w3.org/2000/svg">
<g clip-path="url(#clip0_312_60)">
<circle cx="27.4219" cy="11.9531" r="4.375" fill="#D81F28"/>
<path d="M10.31 33.3319C10.5268 33.1152 10.5268 32.7639 10.31 32.5473C10.0934 32.3306 9.74209 32.3306 9.52543 32.5473L3.87587 38.1968C3.65921 38.4135 3.65921 38.7648 3.87587 38.9814C4.09253 39.1981 4.44391 39.1981 4.66057 38.9814L10.31 33.3319Z" fill="black"/>
<path d="M7.45247 30.4745C7.66913 30.2579 7.66913 29.9065 7.45247 29.6898C7.23571 29.4732 6.88443 29.4732 6.66777 29.6898L1.01821 35.3394C0.801548 35.5561 0.801548 35.9073 1.01821 36.124C1.23487 36.3407 1.58625 36.3407 1.8029 36.124L7.45247 30.4745Z" fill="black"/>
<path d="M6.59675 34.1874C6.81341 33.9707 6.81341 33.6194 6.59675 33.4027C6.38 33.1861 6.02872 33.1861 5.81206 33.4027L0.162494 39.0523C-0.0541648 39.2689 -0.0541648 39.6202 0.162494 39.8369C0.379153 40.0536 0.730533 40.0536 0.947192 39.8369L6.59675 34.1874Z" fill="black"/>
<path fill-rule="evenodd" clip-rule="evenodd" d="M18.3483 10.2285C13.7209 11.0487 6.27818 12.2873 1.85596 21.8022C1.85596 21.8022 7.01665 21.5874 10.5709 22.4904C10.7432 21.8919 10.9991 21.2591 11.2412 20.6879C11.8874 19.1636 12.678 17.6838 13.5571 16.2818L13.6653 16.1093L13.6602 16.1043L13.8039 15.8883L14.1491 15.3378L14.162 15.3507C15.3943 13.5183 16.7996 11.8026 18.3483 10.2285Z" fill="black"/>
<path fill-rule="evenodd" clip-rule="evenodd" d="M18.1978 38.1436C27.7137 33.7208 28.9366 26.2928 29.7536 21.6689C28.1844 23.2107 26.4747 24.6101 24.6492 25.8377L24.6621 25.8506L24.1109 26.1963L23.8956 26.3395L23.8906 26.3344L23.7182 26.4426C22.3162 27.3216 20.8364 28.1122 19.312 28.7583C18.7408 29.0005 18.108 29.2564 17.5095 29.4287C18.4126 32.983 18.1978 38.1436 18.1978 38.1436Z" fill="black"/>
<path fill-rule="evenodd" clip-rule="evenodd" d="M11.3556 23.9287L10.1783 25.106C9.82209 25.4622 9.82209 26.045 10.1783 26.4012L10.2405 26.4634L11.8884 28.1113L13.5364 29.7593L13.5986 29.8215C13.9548 30.1776 14.5376 30.1776 14.8936 29.8215L16.0711 28.6441L11.3556 23.9287Z" fill="black"/>
<path fill-rule="evenodd" clip-rule="evenodd" d="M9.61291 27.0918L8.43559 28.2691C8.07941 28.6253 8.07941 29.2081 8.43559 29.5642L9.43602 30.5647L10.4365 31.5651C10.7926 31.9213 11.3754 31.9212 11.7316 31.5651L12.9088 30.3878L9.61291 27.0918Z" fill="black"/>
<path fill-rule="evenodd" clip-rule="evenodd" d="M37.6003 8.17371C38.5797 5.73353 39.4023 3.01828 40.0002 0C36.9825 0.597843 34.2677 1.42028 31.8279 2.3994C31.9806 3.83656 32.7036 5.20037 33.7492 6.24639C34.797 7.29444 36.1636 8.01879 37.6003 8.17371Z" fill="black"/>
<path fill-rule="evenodd" clip-rule="evenodd" d="M30.0522 20.0971C32.6817 17.3142 35.2532 13.6928 37.2496 9.02029C35.7014 8.78923 34.2465 7.99411 33.124 6.87132C32.0033 5.75029 31.2095 4.29808 30.9806 2.75C26.3188 4.74155 22.7031 7.30575 19.9228 9.929C17.7314 11.9967 16.0589 14.101 14.802 15.9907L24.0093 25.1978C25.8931 23.9449 27.9904 22.2787 30.0522 20.0971ZM24.4378 9.49135C25.9471 7.98202 28.3942 7.98202 29.9035 9.49135C31.4129 11.0006 31.4129 13.4477 29.9035 14.957C28.3942 16.4663 25.9471 16.4663 24.4379 14.957C22.9286 13.4477 22.9286 11.0006 24.4378 9.49135Z" fill="black"/>
<path fill-rule="evenodd" clip-rule="evenodd" d="M23.2466 25.6911L14.3094 16.7539C12.1562 20.1879 11.4229 22.7409 11.4229 22.7409L11.9835 23.3016L14.3412 25.6593L16.6989 28.0169L17.2595 28.5776C17.2595 28.5776 19.8126 27.8443 23.2466 25.6911Z" fill="black"/>
</g>
<defs>
<clipPath id="clip0_312_60">
<rect width="40" height="40" fill="white"/>
</clipPath>
</defs>
</svg>
