<svg width="104" height="104" viewBox="0 0 104 104" fill="none" xmlns="http://www.w3.org/2000/svg">
<circle cx="51.8569" cy="51.8555" r="49.5" stroke="#B8B8B8"/>
<g filter="url(#filter0_d_280_82)">
<circle cx="51.8571" cy="51.8571" r="42.8571" fill="white"/>
</g>
<g clip-path="url(#clip0_280_82)">
<path d="M69.3569 26.1875H34.3569C28.5679 26.1875 23.8569 30.8985 23.8569 36.6875V67.0208C23.8569 72.8098 28.5679 77.5208 34.3569 77.5208H50.6903C51.3343 77.5208 51.8569 76.9982 51.8569 76.3542C51.8569 75.7102 51.3343 75.1875 50.6903 75.1875H34.3569C29.8536 75.1875 26.1903 71.5242 26.1903 67.0208V44.8542H77.5236V55.3542C77.5236 55.9982 78.0463 56.5208 78.6903 56.5208C79.3343 56.5208 79.8569 55.9982 79.8569 55.3542V36.6875C79.8569 30.8985 75.1459 26.1875 69.3569 26.1875ZM26.1903 42.5208V36.6875C26.1903 32.1842 29.8536 28.5208 34.3569 28.5208H69.3569C73.8603 28.5208 77.5236 32.1842 77.5236 36.6875V42.5208H26.1903ZM35.5236 35.5208C35.5236 36.8088 34.4783 37.8542 33.1903 37.8542C31.9023 37.8542 30.8569 36.8088 30.8569 35.5208C30.8569 34.2328 31.9023 33.1875 33.1903 33.1875C34.4783 33.1875 35.5236 34.2328 35.5236 35.5208ZM42.5236 35.5208C42.5236 36.8088 41.4783 37.8542 40.1903 37.8542C38.9023 37.8542 37.8569 36.8088 37.8569 35.5208C37.8569 34.2328 38.9023 33.1875 40.1903 33.1875C41.4783 33.1875 42.5236 34.2328 42.5236 35.5208ZM49.5236 35.5208C49.5236 36.8088 48.4783 37.8542 47.1903 37.8542C45.9023 37.8542 44.8569 36.8088 44.8569 35.5208C44.8569 34.2328 45.9023 33.1875 47.1903 33.1875C48.4783 33.1875 49.5236 34.2328 49.5236 35.5208ZM72.5536 70.9012C74.2009 68.8898 75.1903 66.3185 75.1903 63.5208C75.1903 57.0878 69.9566 51.8542 63.5236 51.8542C57.0906 51.8542 51.8569 57.0878 51.8569 63.5208C51.8569 69.9538 57.0906 75.1875 63.5236 75.1875C66.3213 75.1875 68.8903 74.1982 70.9039 72.5508L77.8666 79.5135C78.0953 79.7422 78.3939 79.8542 78.6926 79.8542C78.9913 79.8542 79.2899 79.7398 79.5186 79.5135C79.9736 79.0585 79.9736 78.3188 79.5186 77.8638L72.5536 70.9012ZM63.5236 72.8542C58.3763 72.8542 54.1903 68.6682 54.1903 63.5208C54.1903 58.3735 58.3763 54.1875 63.5236 54.1875C68.6709 54.1875 72.8569 58.3735 72.8569 63.5208C72.8569 68.6682 68.6709 72.8542 63.5236 72.8542Z" fill="#D81F28"/>
</g>
<defs>
<filter id="filter0_d_280_82" x="0" y="0" width="103.714" height="103.714" filterUnits="userSpaceOnUse" color-interpolation-filters="sRGB">
<feFlood flood-opacity="0" result="BackgroundImageFix"/>
<feColorMatrix in="SourceAlpha" type="matrix" values="0 0 0 0 0 0 0 0 0 0 0 0 0 0 0 0 0 0 127 0" result="hardAlpha"/>
<feOffset/>
<feGaussianBlur stdDeviation="4.5"/>
<feComposite in2="hardAlpha" operator="out"/>
<feColorMatrix type="matrix" values="0 0 0 0 0 0 0 0 0 0 0 0 0 0 0 0 0 0 0.1 0"/>
<feBlend mode="normal" in2="BackgroundImageFix" result="effect1_dropShadow_280_82"/>
<feBlend mode="normal" in="SourceGraphic" in2="effect1_dropShadow_280_82" result="shape"/>
</filter>
<clipPath id="clip0_280_82">
<rect width="56" height="56" fill="white" transform="translate(23.8569 23.8555)"/>
</clipPath>
</defs>
</svg>
