<svg width="82" height="82" viewBox="0 0 82 82" fill="none" xmlns="http://www.w3.org/2000/svg">
<g clip-path="url(#clip0_243_7010)">
<path d="M59.3826 55.5205C77.9583 34.2555 62.2095 -0.245603 33.7146 0.00329237C15.1263 0.00303612 0.00117735 15.1268 0.00117735 33.7171C-0.232061 62.2236 34.2429 77.9525 55.5188 59.3839C55.5186 59.3845 77.3134 81.1793 77.3134 81.1793C79.8331 83.6835 83.7048 79.8638 81.1773 77.3151C81.1774 77.3152 59.3826 55.5205 59.3826 55.5205ZM5.4663 33.7171C5.4663 18.1409 18.1391 5.46816 33.7152 5.46816C71.1905 7.02039 71.1809 60.4186 33.715 61.9647C18.1391 61.9646 5.4663 49.2932 5.4663 33.7171Z" fill="#D81F28"/>
</g>
<defs>
<clipPath id="clip0_243_7010">
<rect width="82" height="82" fill="white"/>
</clipPath>
</defs>
</svg>
