<svg width="104" height="104" viewBox="0 0 104 104" fill="none" xmlns="http://www.w3.org/2000/svg">
<circle cx="51.8569" cy="51.8555" r="49.5" stroke="#B8B8B8"/>
<g filter="url(#filter0_d_280_70)">
<circle cx="51.8571" cy="51.8571" r="42.8571" fill="white"/>
</g>
<g clip-path="url(#clip0_280_70)">
<path d="M67.0236 63.5221H33.1903V34.3555C33.1903 29.8521 36.8536 26.1888 41.3569 26.1888H57.6903C60.6583 26.1888 63.3953 27.8011 64.8349 30.4005C65.1476 30.9651 65.8593 31.1705 66.4216 30.8555C66.9863 30.5428 67.1893 29.8335 66.8766 29.2688C65.0263 25.9298 61.5053 23.8555 57.6903 23.8555H41.3569C35.5679 23.8555 30.8569 28.5665 30.8569 34.3555V69.3555C30.8569 75.1445 35.5679 79.8555 41.3569 79.8555H57.6903C63.4793 79.8555 68.1903 75.1445 68.1903 69.3555V64.6888C68.1903 64.0448 67.6676 63.5221 67.0236 63.5221ZM65.8569 69.3555C65.8569 73.8588 62.1936 77.5221 57.6903 77.5221H41.3569C36.8536 77.5221 33.1903 73.8588 33.1903 69.3555V65.8555H65.8569V69.3555ZM44.8569 71.6888C44.8569 71.0448 45.3796 70.5221 46.0236 70.5221H53.0236C53.6676 70.5221 54.1903 71.0448 54.1903 71.6888C54.1903 72.3328 53.6676 72.8555 53.0236 72.8555H46.0236C45.3796 72.8555 44.8569 72.3328 44.8569 71.6888ZM77.5236 40.1888V32.0221C77.5423 31.2405 76.7723 30.7458 76.0466 30.8555C75.5263 30.8555 75.0689 31.1985 74.9266 31.7001C74.2289 34.1291 72.1989 35.5221 69.3593 35.5221H63.5259C59.6666 35.5221 56.5259 38.6628 56.5259 42.5221C56.5259 44.0155 57.0043 45.3968 57.8069 46.5331L61.7503 56.5828C62.2916 57.9641 63.6006 58.8555 65.0846 58.8555C67.5416 58.9278 69.3873 56.1931 68.4049 53.9415L66.6316 49.5221H69.3639C72.2036 49.5221 74.2336 50.9151 74.9313 53.3441C75.1016 53.9811 75.7479 54.2588 76.3616 54.1888C77.0056 54.1888 77.5283 53.6661 77.5283 53.0221V44.8555C78.8139 44.8555 79.8616 43.8078 79.8616 42.5221C79.8616 41.2365 78.8139 40.1888 77.5283 40.1888H77.5236ZM66.2349 54.8118C66.3913 55.2038 66.3469 55.6285 66.1113 55.9738C65.5886 56.7508 64.2586 56.6061 63.9203 55.7311L61.3326 49.1371C62.0256 49.3681 62.7536 49.5221 63.5236 49.5221H64.1116L66.2349 54.8118ZM69.3569 47.1888H63.5236C60.9499 47.1888 58.8569 45.0958 58.8569 42.5221C58.8569 39.9485 60.9499 37.8555 63.5236 37.8555H69.3569C71.7393 37.8555 73.7553 37.0855 75.1903 35.7018V49.3425C73.7553 47.9588 71.7393 47.1888 69.3569 47.1888Z" fill="#D81F28"/>
</g>
<defs>
<filter id="filter0_d_280_70" x="0" y="0" width="103.714" height="103.714" filterUnits="userSpaceOnUse" color-interpolation-filters="sRGB">
<feFlood flood-opacity="0" result="BackgroundImageFix"/>
<feColorMatrix in="SourceAlpha" type="matrix" values="0 0 0 0 0 0 0 0 0 0 0 0 0 0 0 0 0 0 127 0" result="hardAlpha"/>
<feOffset/>
<feGaussianBlur stdDeviation="4.5"/>
<feComposite in2="hardAlpha" operator="out"/>
<feColorMatrix type="matrix" values="0 0 0 0 0 0 0 0 0 0 0 0 0 0 0 0 0 0 0.1 0"/>
<feBlend mode="normal" in2="BackgroundImageFix" result="effect1_dropShadow_280_70"/>
<feBlend mode="normal" in="SourceGraphic" in2="effect1_dropShadow_280_70" result="shape"/>
</filter>
<clipPath id="clip0_280_70">
<rect width="56" height="56" fill="white" transform="translate(23.8569 23.8555)"/>
</clipPath>
</defs>
</svg>
