<svg width="40" height="40" viewBox="0 0 40 40" fill="none" xmlns="http://www.w3.org/2000/svg">
<path d="M38.2814 32.9581L33.409 28.0791C32.8671 27.5372 32.025 27.2148 31.2586 27.254L23.0529 27.2473C21.6743 27.2473 20.5526 28.368 20.5526 29.7454C20.5526 29.7677 20.5529 29.7899 20.5535 29.8121L16.0425 25.2911C14.9664 24.2151 13.2143 24.2138 12.1364 25.2889C11.061 26.3644 11.0607 28.1163 12.1361 29.1945L19.6527 36.7245C20.292 37.3638 21.1402 37.7174 22.0428 37.7202L30.2253 37.7245C30.76 37.748 30.8794 37.7761 31.1529 38.051L32.1694 39.0676C32.2914 39.1895 32.4511 39.2505 32.611 39.2505C32.7708 39.2505 32.9306 39.1896 33.0525 39.0677L38.2811 33.8413C38.5249 33.5976 38.525 33.2023 38.2814 32.9584L38.2814 32.9581ZM32.611 37.7427L32.0371 37.1688C31.4411 36.5696 30.9489 36.5055 30.2661 36.4759C30.2571 36.4755 30.2482 36.4754 30.2393 36.4753L22.0448 36.4709C21.476 36.4692 20.9401 36.2455 20.536 35.8414L13.02 28.3121C12.4306 27.7211 12.4303 26.761 13.0188 26.1724C13.3138 25.8782 13.701 25.7313 14.0882 25.7313C14.4753 25.7313 14.8638 25.8787 15.1586 26.1736L20.1662 31.1923C20.9328 31.9588 21.2916 32.198 22.0436 32.2013L23.0052 32.2034C23.0052 32.2034 23.0058 32.2034 23.0062 32.2034L29.2048 32.2255H29.2071C29.5508 32.2255 29.8303 31.9473 29.8315 31.6032C29.8328 31.2583 29.5541 30.9777 29.2092 30.9765L23.0334 30.9545C23.0329 30.9545 23.0324 30.9545 23.0318 30.9545H23.0316C22.3418 30.9528 21.8014 30.4218 21.8014 29.7452C21.8014 29.0566 22.3628 28.4963 23.0521 28.4963L31.2748 28.503H31.2753C31.2878 28.503 31.3002 28.5026 31.3126 28.5018C31.7318 28.4773 32.2296 28.6662 32.5253 28.962L36.9564 33.399L32.6108 37.7427H32.611ZM9.88363 24.9969L12.6546 22.2263C14.8693 24.2309 17.8043 25.4536 21.0199 25.4536C27.8984 25.4536 33.4946 19.8574 33.4946 12.9789C33.4946 6.10039 27.8984 0.501953 21.0199 0.501953C14.1414 0.501953 8.543 6.09906 8.543 12.9789C8.543 16.1941 9.76613 19.1289 11.7713 21.3432L8.99972 24.1144L5.39394 23.1473C5.17863 23.0895 4.94847 23.1512 4.79058 23.3089L0.981519 27.118C0.823706 27.2758 0.762144 27.5056 0.819878 27.7212C0.877613 27.9366 1.04589 28.105 1.26136 28.1627L4.1705 28.943L2.86613 30.2472C2.62222 30.491 2.62222 30.8865 2.86613 31.1304C2.98808 31.2523 3.14785 31.3134 3.30769 31.3134C3.46753 31.3134 3.6273 31.2523 3.74925 31.1304L5.05441 29.8254L5.83363 32.7349C5.89136 32.9505 6.05972 33.1188 6.27519 33.1766C6.32863 33.1909 6.38293 33.1979 6.43683 33.1979C6.60027 33.1979 6.7598 33.1336 6.87839 33.0149L10.6875 29.2059C10.8453 29.048 10.9068 28.8182 10.8491 28.6027L9.88347 24.9968L9.88363 24.9969ZM21.0199 6.1093C24.8066 6.1093 27.8872 9.19094 27.8872 12.9789C27.8872 16.7669 24.8065 19.8462 21.0199 19.8462C19.3506 19.8462 17.8186 19.2477 16.627 18.2544L19.1758 15.7059C19.7023 16.063 20.3371 16.272 21.0199 16.272C22.8357 16.272 24.3129 14.7947 24.3129 12.9789C24.3129 11.1631 22.8357 9.68578 21.0199 9.68578C19.2041 9.68578 17.7268 11.1631 17.7268 12.9789C17.7268 13.6615 17.9357 14.2962 18.2927 14.8227L15.7436 17.3715C14.7494 16.1801 14.1503 14.6482 14.1503 12.979C14.1503 9.19109 17.232 6.10938 21.02 6.10938L21.0199 6.1093Z" fill="black"/>
<circle cx="21.0156" cy="12.9688" r="3.28125" fill="#D81F28"/>
</svg>
