<svg width="104" height="104" viewBox="0 0 104 104" fill="none" xmlns="http://www.w3.org/2000/svg">
<circle cx="51.8571" cy="51.8555" r="49.5" stroke="#B8B8B8"/>
<g filter="url(#filter0_d_280_76)">
<circle cx="51.8571" cy="51.8571" r="42.8571" fill="white"/>
</g>
<g clip-path="url(#clip0_280_76)">
<path d="M55.2077 77.3051C54.2534 77.4288 53.2874 77.4731 52.3261 77.4918C51.0194 76.1198 46.0914 70.6645 42.9227 63.5221H50.6927C51.3367 63.5221 51.8594 62.9995 51.8594 62.3555C51.8594 61.7115 51.3367 61.1888 50.6927 61.1888H41.9847C40.9091 58.2441 40.1927 55.0871 40.1927 51.8555C40.1927 48.6238 40.9114 45.4691 41.9871 42.5221H61.7247C62.6791 45.1331 63.3604 47.9005 63.4981 50.7448C63.5284 51.3701 64.0417 51.8555 64.6624 51.8555H64.7184C65.3601 51.8228 65.8571 51.2768 65.8267 50.6328C65.6891 47.8188 65.0824 45.0958 64.2191 42.5221H75.7551C76.2311 43.7308 76.6301 44.9791 76.9171 46.2741C77.0571 46.9018 77.6754 47.3031 78.3101 47.1608C78.9401 47.0208 79.3344 46.3978 79.1967 45.7678C76.3781 33.0745 64.8864 23.8601 51.8664 23.8555H51.8594C51.8594 23.8555 51.8571 23.8555 51.8547 23.8555C36.4151 23.8601 23.8571 36.4181 23.8571 51.8555C23.8571 67.2928 36.4174 79.8555 51.8571 79.8555C53.0704 79.8555 54.3001 79.7761 55.5064 79.6198C56.1434 79.5381 56.5961 78.9525 56.5144 78.3108C56.4304 77.6738 55.8541 77.2118 55.2054 77.3028L55.2077 77.3051ZM42.9251 40.1888C45.7904 33.7371 50.0884 28.6598 51.8571 26.7231C53.6257 28.6575 57.9167 33.7418 60.7821 40.1888H42.9251ZM74.7097 40.1888H63.3464C60.8241 34.0568 56.9997 29.0635 54.6711 26.3661C63.2624 27.3298 70.8107 32.6241 74.7074 40.1888H74.7097ZM49.0571 26.3498C46.7307 29.0401 42.9017 34.0428 40.3724 40.1888H29.0231C32.8754 32.6801 40.3047 27.3041 49.0571 26.3498ZM27.9731 42.5221H39.5021C38.5127 45.4668 37.8571 48.6098 37.8571 51.8555C37.8571 55.1011 38.5127 58.2441 39.5021 61.1888H27.9731C26.8367 58.2908 26.1904 55.1501 26.1904 51.8555C26.1904 48.5608 26.8367 45.4201 27.9731 42.5221ZM29.0231 63.5221H40.3724C42.9017 69.6705 46.7284 74.6708 49.0571 77.3611C40.3047 76.4068 32.8754 71.0285 29.0231 63.5221ZM77.5237 61.1888V53.0221C77.5424 52.2405 76.7724 51.7458 76.0467 51.8555C75.5264 51.8555 75.0691 52.1985 74.9267 52.7001C74.2291 55.1315 72.1991 56.5221 69.3594 56.5221H63.5261C59.6667 56.5221 56.5261 59.6628 56.5261 63.5221C56.5261 65.0155 57.0044 66.3968 57.8071 67.5331L61.7504 77.5828C62.2917 78.9641 63.6007 79.8555 65.0847 79.8555C67.5417 79.9278 69.3874 77.1931 68.4051 74.9415L66.6317 70.5221H69.3641C72.2061 70.5221 74.2337 71.9151 74.9314 74.3441C75.1017 74.9811 75.7481 75.2588 76.3617 75.1888C77.0057 75.1888 77.5284 74.6661 77.5284 74.0221V65.8555C78.8141 65.8555 79.8617 64.8078 79.8617 63.5221C79.8617 62.2365 78.8141 61.1888 77.5284 61.1888H77.5237ZM66.2351 75.8118C66.3914 76.2038 66.3471 76.6285 66.1114 76.9738C65.5911 77.7531 64.2587 77.6061 63.9204 76.7311L61.3327 70.1371C62.0257 70.3681 62.7537 70.5221 63.5237 70.5221H64.1117L66.2351 75.8118ZM69.3571 68.1888H63.5237C60.9501 68.1888 58.8571 66.0958 58.8571 63.5221C58.8571 60.9485 60.9501 58.8555 63.5237 58.8555H69.3571C71.7394 58.8555 73.7554 58.0855 75.1904 56.6995V70.3425C73.7554 68.9565 71.7394 68.1888 69.3571 68.1888Z" fill="#D81F28"/>
</g>
<defs>
<filter id="filter0_d_280_76" x="0" y="0" width="103.714" height="103.714" filterUnits="userSpaceOnUse" color-interpolation-filters="sRGB">
<feFlood flood-opacity="0" result="BackgroundImageFix"/>
<feColorMatrix in="SourceAlpha" type="matrix" values="0 0 0 0 0 0 0 0 0 0 0 0 0 0 0 0 0 0 127 0" result="hardAlpha"/>
<feOffset/>
<feGaussianBlur stdDeviation="4.5"/>
<feComposite in2="hardAlpha" operator="out"/>
<feColorMatrix type="matrix" values="0 0 0 0 0 0 0 0 0 0 0 0 0 0 0 0 0 0 0.1 0"/>
<feBlend mode="normal" in2="BackgroundImageFix" result="effect1_dropShadow_280_76"/>
<feBlend mode="normal" in="SourceGraphic" in2="effect1_dropShadow_280_76" result="shape"/>
</filter>
<clipPath id="clip0_280_76">
<rect width="56" height="56" fill="white" transform="translate(23.8571 23.8555)"/>
</clipPath>
</defs>
</svg>
