<svg width="40" height="40" viewBox="0 0 40 40" fill="none" xmlns="http://www.w3.org/2000/svg">
<rect width="40" height="40" rx="20" fill="#E53935" fill-opacity="0.0705882"/>
<path d="M20.0369 25.1591C19.2339 25.1591 18.518 25.0114 17.8892 24.7159C17.2642 24.4205 16.768 24.0133 16.4006 23.4943C16.0331 22.9754 15.8419 22.3807 15.8267 21.7102H18.2131C18.2396 22.161 18.429 22.5265 18.7812 22.8068C19.1335 23.0871 19.5521 23.2273 20.0369 23.2273C20.4233 23.2273 20.7642 23.142 21.0597 22.9716C21.3589 22.7973 21.5919 22.5568 21.7585 22.25C21.929 21.9394 22.0142 21.5833 22.0142 21.1818C22.0142 20.7727 21.9271 20.4129 21.7528 20.1023C21.5824 19.7917 21.3456 19.5492 21.0426 19.375C20.7396 19.2008 20.393 19.1117 20.0028 19.108C19.6619 19.108 19.3305 19.178 19.0085 19.3182C18.6903 19.4583 18.4422 19.6496 18.2642 19.892L16.0767 19.5L16.6278 13.3636H23.7415V15.375H18.6562L18.3551 18.2898H18.4233C18.6278 18.0019 18.9366 17.7633 19.3494 17.5739C19.7623 17.3845 20.2244 17.2898 20.7358 17.2898C21.4366 17.2898 22.0616 17.4545 22.6108 17.7841C23.16 18.1136 23.5938 18.5663 23.9119 19.142C24.2301 19.714 24.3873 20.3731 24.3835 21.1193C24.3873 21.9034 24.2055 22.6004 23.8381 23.2102C23.4744 23.8163 22.965 24.2936 22.3097 24.642C21.6581 24.9867 20.9006 25.1591 20.0369 25.1591Z" fill="#D81F28"/>
</svg>
