<svg width="140" height="140" viewBox="0 0 140 140" fill="none" xmlns="http://www.w3.org/2000/svg">
<circle cx="70" cy="70" r="69.5" stroke="#B8B8B8"/>
<g filter="url(#filter0_d_261_9218)">
<circle cx="70" cy="70" r="60" fill="white"/>
</g>
<path d="M50.1169 97.6664C52.4944 97.6664 54.4218 95.739 54.4218 93.3615C54.4218 90.984 52.4944 89.0566 50.1169 89.0566C47.7394 89.0566 45.812 90.984 45.812 93.3615C45.812 95.739 47.7394 97.6664 50.1169 97.6664Z" fill="black"/>
<path d="M81.7351 92.7459C81.71 92.7459 81.6851 92.7451 81.66 92.745C81.6442 92.7452 81.6279 92.7459 81.6121 92.7459C81.5618 92.7459 81.5106 92.7447 81.4589 92.7424C80.0628 92.7185 78.7103 92.513 77.4231 92.1504C77.3106 92.5344 77.25 92.9405 77.25 93.3609C77.25 95.7385 79.1774 97.6658 81.5549 97.6658C83.9324 97.6658 85.8598 95.7385 85.8598 93.3609C85.8598 92.9741 85.808 92.5996 85.7122 92.243C84.4404 92.5713 83.1077 92.7459 81.7351 92.7459Z" fill="black"/>
<path d="M69.6445 74.9815H75.1153C75.2516 71.7206 75.746 68.6857 76.5443 66.291C76.6186 66.0678 76.6949 65.856 76.7722 65.6504C73.0336 67.3169 70.2791 70.8054 69.6445 74.9815Z" fill="#D81F28"/>
<path d="M45.812 81.6768V85.3667H68.3059C67.5784 84.2268 66.9926 82.9885 66.5721 81.6768H45.812Z" fill="black"/>
<path d="M75.1155 78.6719H69.6448C70.2793 82.8479 73.0338 86.3364 76.7724 88.0031C76.6952 87.7974 76.6189 87.5856 76.5445 87.3626C75.7463 84.9677 75.2517 81.9328 75.1155 78.6719Z" fill="#D81F28"/>
<path d="M79.879 85.6685C80.5713 87.9954 81.324 88.8539 81.6122 89.0336C81.9005 88.8539 82.6531 87.9953 83.3452 85.6684C83.9275 83.711 84.2976 81.276 84.4166 78.6719H78.8076C78.9267 81.2761 79.2968 83.7112 79.879 85.6685Z" fill="#D81F28"/>
<path d="M90.4205 42.333L88.9083 51.5578H42L45.1841 71.0471C45.5326 73.1727 47.58 74.9119 49.734 74.9119H65.9312C66.8694 67.1232 73.4536 61.0481 81.459 60.9112C81.5107 60.9089 81.5619 60.9076 81.6122 60.9076C81.6279 60.9076 81.6442 60.9083 81.6601 60.9086C81.6852 60.9085 81.7101 60.9076 81.7352 60.9076C85.0422 60.9076 88.1167 61.9216 90.6647 63.6545L93.5547 46.023H98V42.3331L90.4205 42.333Z" fill="black"/>
<path d="M86.6798 87.3624C86.5904 87.6307 86.4986 87.8857 86.405 88.129C90.2921 86.5168 93.1745 82.9562 93.8255 78.6719H88.1088C87.9725 81.9326 87.4781 84.9677 86.6798 87.3624Z" fill="#D81F28"/>
<path d="M83.3452 67.9853C82.6532 65.6585 81.9005 64.7999 81.6122 64.6201C81.324 64.7998 80.5713 65.6583 79.879 67.9852C79.2968 69.9426 78.9267 72.3778 78.8076 74.9818H84.4166C84.2974 72.3776 83.9275 69.9427 83.3452 67.9853Z" fill="#D81F28"/>
<path d="M86.405 65.5244C86.4986 65.7677 86.5904 66.0225 86.6798 66.2909C87.4781 68.6857 87.9725 71.7207 88.1088 74.9815H93.8255C93.1745 70.6972 90.2921 67.1364 86.405 65.5244Z" fill="#D81F28"/>
<defs>
<filter id="filter0_d_261_9218" x="1" y="1" width="138" height="138" filterUnits="userSpaceOnUse" color-interpolation-filters="sRGB">
<feFlood flood-opacity="0" result="BackgroundImageFix"/>
<feColorMatrix in="SourceAlpha" type="matrix" values="0 0 0 0 0 0 0 0 0 0 0 0 0 0 0 0 0 0 127 0" result="hardAlpha"/>
<feOffset/>
<feGaussianBlur stdDeviation="4.5"/>
<feComposite in2="hardAlpha" operator="out"/>
<feColorMatrix type="matrix" values="0 0 0 0 0 0 0 0 0 0 0 0 0 0 0 0 0 0 0.1 0"/>
<feBlend mode="normal" in2="BackgroundImageFix" result="effect1_dropShadow_261_9218"/>
<feBlend mode="normal" in="SourceGraphic" in2="effect1_dropShadow_261_9218" result="shape"/>
</filter>
</defs>
</svg>
