<svg width="140" height="140" viewBox="0 0 140 140" fill="none" xmlns="http://www.w3.org/2000/svg">
<circle cx="70" cy="70" r="69.5" stroke="#B8B8B8"/>
<g filter="url(#filter0_d_261_9291)">
<circle cx="70" cy="70" r="60" fill="white"/>
</g>
<path d="M40 59.4531L70 71.7578L100 59.4531L70 47.1484L40 59.4531ZM70 61.9388L67.5143 59.4531L70 56.9675L72.4857 59.4531L70 61.9388Z" fill="black"/>
<path d="M85.0417 82.0803L85.9375 81.5753V69.0459L70 75.5603L54.1797 69.0459V81.5753L55.0755 82.0803C59.6779 84.6689 64.8396 85.963 70 85.963C75.1604 85.963 80.4393 84.6689 85.0417 82.0803Z" fill="black"/>
<path d="M96.4844 64.7031L92.9688 66.1506V80.3852L89.4531 87.925L94.7266 92.8515L100 87.925L96.4844 80.3852V64.7031Z" fill="#D81F28"/>
<defs>
<filter id="filter0_d_261_9291" x="1" y="1" width="138" height="138" filterUnits="userSpaceOnUse" color-interpolation-filters="sRGB">
<feFlood flood-opacity="0" result="BackgroundImageFix"/>
<feColorMatrix in="SourceAlpha" type="matrix" values="0 0 0 0 0 0 0 0 0 0 0 0 0 0 0 0 0 0 127 0" result="hardAlpha"/>
<feOffset/>
<feGaussianBlur stdDeviation="4.5"/>
<feComposite in2="hardAlpha" operator="out"/>
<feColorMatrix type="matrix" values="0 0 0 0 0 0 0 0 0 0 0 0 0 0 0 0 0 0 0.1 0"/>
<feBlend mode="normal" in2="BackgroundImageFix" result="effect1_dropShadow_261_9291"/>
<feBlend mode="normal" in="SourceGraphic" in2="effect1_dropShadow_261_9291" result="shape"/>
</filter>
</defs>
</svg>
