<svg width="140" height="140" viewBox="0 0 140 140" fill="none" xmlns="http://www.w3.org/2000/svg">
<circle cx="70" cy="70" r="69.5" stroke="#B8B8B8"/>
<g filter="url(#filter0_d_261_9189)">
<circle cx="70" cy="70" r="60" fill="white"/>
</g>
<path d="M79.6787 51.9531C78.9165 48.2134 75.6022 45.3906 71.6406 45.3906H68.3594C64.3978 45.3906 61.0835 48.2134 60.3213 51.9531H42V94.6094H98V51.9531H79.6787ZM68.3594 48.6719H71.6406C73.7797 48.6719 75.6043 50.0433 76.2814 51.9531H63.7186C64.3957 50.0433 66.2203 48.6719 68.3594 48.6719ZM70 84.2188C63.9593 84.2188 59.0625 79.3219 59.0625 73.2812C59.0625 67.2406 63.9593 62.3438 70 62.3438C76.0407 62.3438 80.9375 67.2406 80.9375 73.2812C80.9375 79.3219 76.0407 84.2188 70 84.2188Z" fill="black"/>
<path d="M71.6406 71.6406V67.8125H68.3594V71.6406H64.5312V74.9219H68.3594V78.75H71.6406V74.9219H75.4688V71.6406H71.6406Z" fill="#D81F28"/>
<defs>
<filter id="filter0_d_261_9189" x="1" y="1" width="138" height="138" filterUnits="userSpaceOnUse" color-interpolation-filters="sRGB">
<feFlood flood-opacity="0" result="BackgroundImageFix"/>
<feColorMatrix in="SourceAlpha" type="matrix" values="0 0 0 0 0 0 0 0 0 0 0 0 0 0 0 0 0 0 127 0" result="hardAlpha"/>
<feOffset/>
<feGaussianBlur stdDeviation="4.5"/>
<feComposite in2="hardAlpha" operator="out"/>
<feColorMatrix type="matrix" values="0 0 0 0 0 0 0 0 0 0 0 0 0 0 0 0 0 0 0.1 0"/>
<feBlend mode="normal" in2="BackgroundImageFix" result="effect1_dropShadow_261_9189"/>
<feBlend mode="normal" in="SourceGraphic" in2="effect1_dropShadow_261_9189" result="shape"/>
</filter>
</defs>
</svg>
