<svg width="140" height="140" viewBox="0 0 140 140" fill="none" xmlns="http://www.w3.org/2000/svg">
<circle cx="70" cy="70" r="69.5" stroke="#B8B8B8"/>
<g filter="url(#filter0_d_261_9256)">
<circle cx="70" cy="70" r="60" fill="white"/>
</g>
<path d="M92.0124 65.4454L70 51.0818L47.9875 65.4454C47.1576 65.9868 46.0494 65.7856 45.4628 64.9869L43.1675 61.861C42.5333 60.9974 42.7546 59.7785 43.652 59.193L70 42L96.3479 59.193C97.2451 59.7785 97.4665 60.9974 96.8325 61.861L94.5372 64.9869C93.9507 65.7856 92.8423 65.9868 92.0124 65.4454Z" fill="black"/>
<path d="M75.4789 82.0222L72.3464 85.1547C72.1014 85.3997 71.9614 85.7322 71.9614 86.0822V97.9997H68.0414V86.0822C68.0414 85.7322 67.9014 85.3997 67.6564 85.1547L64.5239 82.0222C62.5814 80.0797 61.5139 77.5072 61.5139 74.7597C61.5139 73.5172 61.8639 72.2748 62.5112 71.2073C63.1937 70.1223 64.1562 69.2648 65.2762 68.7048L65.4162 68.6348V76.2997C65.4162 76.7897 65.6962 77.2447 66.1512 77.4722L69.4237 79.0999C69.7912 79.2924 70.2112 79.2924 70.5787 79.0999L73.8512 77.4722C74.3062 77.2449 74.5862 76.7897 74.5862 76.2997V68.6348L74.7437 68.7048C77.0537 69.8598 78.4887 72.1698 78.4887 74.7597C78.4887 77.5072 77.4214 80.0797 75.4789 82.0222Z" fill="#D81F28"/>
<path d="M92.4009 68.5123V94.2722C92.4009 96.3197 90.5634 97.9997 88.3234 97.9997H74.586V86.6247L77.3335 83.8772C79.766 81.4447 81.1135 78.2072 81.1135 74.7597C81.1135 71.1723 79.1185 67.9523 75.916 66.3598L73.8685 65.3273C73.466 65.1173 72.976 65.1348 72.591 65.3798C72.1885 65.6248 71.961 66.0448 71.961 66.4998V75.4772L70.001 76.4572L68.041 75.4772V66.4998C68.041 66.0448 67.8135 65.6248 67.411 65.3798C67.026 65.1348 66.536 65.1173 66.1335 65.3273L64.086 66.3598C62.546 67.1298 61.2335 68.3198 60.2885 69.8248C59.3785 71.3298 58.8885 73.0272 58.8885 74.7597C58.8885 78.2072 60.236 81.4447 62.6685 83.8772L65.416 86.6247V97.9997H51.6786C49.4386 97.9997 47.6011 96.3197 47.6011 94.2722V68.5123C48.2661 68.4073 48.9311 68.1623 49.5261 67.7948L70.001 54.4248L90.4759 67.7948C91.0709 68.1973 91.7359 68.4073 92.4009 68.5123Z" fill="black"/>
<path d="M88.6676 43.8669V50.8294L81.2009 45.9574V43.8667C81.2009 42.84 82.0409 42 83.0676 42H86.8009C87.8276 42 88.6676 42.8402 88.6676 43.8669Z" fill="black"/>
<defs>
<filter id="filter0_d_261_9256" x="1" y="1" width="138" height="138" filterUnits="userSpaceOnUse" color-interpolation-filters="sRGB">
<feFlood flood-opacity="0" result="BackgroundImageFix"/>
<feColorMatrix in="SourceAlpha" type="matrix" values="0 0 0 0 0 0 0 0 0 0 0 0 0 0 0 0 0 0 127 0" result="hardAlpha"/>
<feOffset/>
<feGaussianBlur stdDeviation="4.5"/>
<feComposite in2="hardAlpha" operator="out"/>
<feColorMatrix type="matrix" values="0 0 0 0 0 0 0 0 0 0 0 0 0 0 0 0 0 0 0.1 0"/>
<feBlend mode="normal" in2="BackgroundImageFix" result="effect1_dropShadow_261_9256"/>
<feBlend mode="normal" in="SourceGraphic" in2="effect1_dropShadow_261_9256" result="shape"/>
</filter>
</defs>
</svg>
