<svg width="140" height="140" viewBox="0 0 140 140" fill="none" xmlns="http://www.w3.org/2000/svg">
<circle cx="70" cy="70" r="69.5" stroke="#B8B8B8"/>
<g filter="url(#filter0_d_261_9300)">
<circle cx="70" cy="70" r="60" fill="white"/>
</g>
<path d="M84.7661 81.4844V78.2031H81.3904C81.1559 77.4379 80.9666 75.9276 79.8571 74.0503L79.2081 72.9561L81.6019 70.5623L79.282 68.2423L76.8898 70.6328C76.1652 70.2469 74.9476 69.3057 72.8716 68.7725L71.6411 68.4555V65.0781H68.3599V68.4555L67.1294 68.7725C65.0278 69.3121 63.8101 70.2602 63.1111 70.6328L60.719 68.2423L58.399 70.5623L60.7895 72.9544L60.1439 74.0486C59.0194 75.9537 58.8464 77.4366 58.6122 78.2031H55.2349V81.4844H61.7974V79.8438C61.7974 75.3209 65.4777 71.6406 70.0005 71.6406C74.5233 71.6406 78.2036 75.3209 78.2036 79.8438V81.4844H84.7661Z" fill="#D81F28"/>
<path d="M65.0781 79.8438V81.4844H74.9219V79.8438C74.9219 77.1299 72.7139 74.9219 70 74.9219C67.2861 74.9219 65.0781 77.1299 65.0781 79.8438Z" fill="#D81F28"/>
<path d="M45.2812 81.4844H51.9531V74.9219H56.1286C56.2982 74.4446 56.4922 73.9764 56.7118 73.5167L53.7587 70.5623L60.7185 63.6024L63.6729 66.5551C64.1331 66.3355 64.6009 66.142 65.0781 65.9719V61.7969H74.9219V65.9724C75.3995 66.142 75.8674 66.3359 76.3271 66.5555L79.2815 63.6024L86.2413 70.5623L83.2869 73.5167C83.5065 73.9751 83.7018 74.4446 83.8718 74.9219H88.0469V81.4844H94.7188V48.6719H45.2812V81.4844Z" fill="black"/>
<path d="M42 86.4062C42 89.1244 44.2037 91.3281 46.9219 91.3281H93.0781C95.7963 91.3281 98 89.1244 98 86.4062V84.7656H42V86.4062Z" fill="black"/>
<defs>
<filter id="filter0_d_261_9300" x="1" y="1" width="138" height="138" filterUnits="userSpaceOnUse" color-interpolation-filters="sRGB">
<feFlood flood-opacity="0" result="BackgroundImageFix"/>
<feColorMatrix in="SourceAlpha" type="matrix" values="0 0 0 0 0 0 0 0 0 0 0 0 0 0 0 0 0 0 127 0" result="hardAlpha"/>
<feOffset/>
<feGaussianBlur stdDeviation="4.5"/>
<feComposite in2="hardAlpha" operator="out"/>
<feColorMatrix type="matrix" values="0 0 0 0 0 0 0 0 0 0 0 0 0 0 0 0 0 0 0.1 0"/>
<feBlend mode="normal" in2="BackgroundImageFix" result="effect1_dropShadow_261_9300"/>
<feBlend mode="normal" in="SourceGraphic" in2="effect1_dropShadow_261_9300" result="shape"/>
</filter>
</defs>
</svg>
