<svg width="140" height="140" viewBox="0 0 140 140" fill="none" xmlns="http://www.w3.org/2000/svg">
<circle cx="70" cy="70" r="69.5" stroke="#B8B8B8"/>
<g filter="url(#filter0_d_261_9266)">
<circle cx="70" cy="70" r="60" fill="white"/>
</g>
<path d="M84.7657 42H42V55.125H84.7657V42ZM56.875 50.2031H50.3125V46.9219H56.875V50.2031ZM66.7188 50.2031H60.1563V46.9219H66.7188V50.2031ZM76.5625 50.2031H70V46.9219H76.5625V50.2031Z" fill="black"/>
<path d="M63.4375 66.8281C58.9147 66.8281 55.2344 70.5084 55.2344 75.0313C55.2344 79.5541 58.9147 83.2344 63.4375 83.2344C64.9418 83.2344 66.3342 82.7982 67.548 82.0885C65.9792 80.0817 65.0781 77.6114 65.0781 75.0313C65.0781 72.4511 65.9792 69.9808 67.548 67.974C66.3342 67.2643 64.9418 66.8281 63.4375 66.8281Z" fill="black"/>
<path d="M69.9859 70.1426C68.9434 71.5465 68.3594 73.2572 68.3594 75.0311C68.3594 76.8051 68.9434 78.5158 69.9859 79.9197C71.0109 78.5504 71.6406 76.8691 71.6406 75.0311C71.6406 73.1931 71.0109 71.5119 69.9859 70.1426Z" fill="black"/>
<path d="M71.7735 89.808C72.5362 85.125 76.862 81.5938 81.8352 81.5938H84.7657V58.4062H42V91.4375H71.6859C71.6851 90.8958 71.6851 90.3527 71.7735 89.808ZM63.4375 86.5156C57.1057 86.5156 51.9531 81.3631 51.9531 75.0313C51.9531 68.6995 57.1057 63.5469 63.4375 63.5469C69.7693 63.5469 74.9219 68.6995 74.9219 75.0313C74.9219 81.3631 69.7693 86.5156 63.4375 86.5156Z" fill="black"/>
<path d="M95.5391 84.875H81.8356C78.5668 84.875 75.5368 87.1086 75.0117 90.3352C74.343 94.4466 77.4987 98 81.4844 98H95.5391C96.8982 98 98.0001 96.8981 98.0001 95.5391C98.0001 94.18 96.8982 93.0781 95.5391 93.0781H79.8438V89.7969H95.5391C96.8982 89.7969 98.0001 88.695 98.0001 87.3359C98.0001 85.9769 96.8982 84.875 95.5391 84.875Z" fill="#D81F28"/>
<defs>
<filter id="filter0_d_261_9266" x="1" y="1" width="138" height="138" filterUnits="userSpaceOnUse" color-interpolation-filters="sRGB">
<feFlood flood-opacity="0" result="BackgroundImageFix"/>
<feColorMatrix in="SourceAlpha" type="matrix" values="0 0 0 0 0 0 0 0 0 0 0 0 0 0 0 0 0 0 127 0" result="hardAlpha"/>
<feOffset/>
<feGaussianBlur stdDeviation="4.5"/>
<feComposite in2="hardAlpha" operator="out"/>
<feColorMatrix type="matrix" values="0 0 0 0 0 0 0 0 0 0 0 0 0 0 0 0 0 0 0.1 0"/>
<feBlend mode="normal" in2="BackgroundImageFix" result="effect1_dropShadow_261_9266"/>
<feBlend mode="normal" in="SourceGraphic" in2="effect1_dropShadow_261_9266" result="shape"/>
</filter>
</defs>
</svg>
