<svg width="140" height="140" viewBox="0 0 140 140" fill="none" xmlns="http://www.w3.org/2000/svg">
<circle cx="70" cy="70" r="69.5" stroke="#B8B8B8"/>
<g filter="url(#filter0_d_261_9201)">
<circle cx="70" cy="70" r="60" fill="white"/>
</g>
<path d="M79.7964 93.6279C79.7964 95.6217 78.1737 97.2445 76.1799 97.2445H68.9468C66.953 97.2445 65.3303 95.6217 65.3303 93.6279H68.7349L71.704 69.7598C69.2355 71.0256 66.4812 71.8082 63.522 71.8082C60.5629 71.8082 57.8086 71.0256 55.3401 69.7598L58.3091 93.6279H61.7138C61.7138 97.6169 64.9578 100.861 68.9468 100.861H76.1799C80.1689 100.861 83.4129 97.6169 83.4129 93.6279C83.4129 91.6341 85.1562 90.0114 87.15 90.0114H97.9996V86.3949H87.15C83.161 86.3949 79.7964 89.6389 79.7964 93.6279Z" fill="black"/>
<path d="M87.1505 56.2246V68.5025C86.5845 68.3018 85.9761 68.1917 85.3423 68.1917C82.3511 68.1917 79.9175 70.6253 79.9175 73.6165C79.9175 76.6076 82.3511 79.0413 85.3423 79.0413C88.3335 79.0413 90.7671 76.6076 90.7671 73.6165V62.076L95.3833 64.3844L97.0004 61.1498L87.1505 56.2246Z" fill="#D81F28"/>
<path d="M63.5222 39.1387C56.8019 39.1387 51.1874 43.8873 49.5698 50.1088H77.4746C75.857 43.8873 70.2424 39.1387 63.5222 39.1387Z" fill="black"/>
<path d="M63.5224 68.1917C70.2427 68.1917 75.8573 63.5637 77.4748 57.3421H79.7968V53.7256H47.248V57.3421H49.5701C51.1876 63.5637 56.8022 68.1917 63.5224 68.1917Z" fill="black"/>
<defs>
<filter id="filter0_d_261_9201" x="1" y="1" width="138" height="138" filterUnits="userSpaceOnUse" color-interpolation-filters="sRGB">
<feFlood flood-opacity="0" result="BackgroundImageFix"/>
<feColorMatrix in="SourceAlpha" type="matrix" values="0 0 0 0 0 0 0 0 0 0 0 0 0 0 0 0 0 0 127 0" result="hardAlpha"/>
<feOffset/>
<feGaussianBlur stdDeviation="4.5"/>
<feComposite in2="hardAlpha" operator="out"/>
<feColorMatrix type="matrix" values="0 0 0 0 0 0 0 0 0 0 0 0 0 0 0 0 0 0 0.1 0"/>
<feBlend mode="normal" in2="BackgroundImageFix" result="effect1_dropShadow_261_9201"/>
<feBlend mode="normal" in="SourceGraphic" in2="effect1_dropShadow_261_9201" result="shape"/>
</filter>
</defs>
</svg>
