<svg width="140" height="140" viewBox="0 0 140 140" fill="none" xmlns="http://www.w3.org/2000/svg">
<circle cx="70" cy="70" r="69.5" stroke="#B8B8B8"/>
<g filter="url(#filter0_d_261_9211)">
<circle cx="70" cy="70" r="60" fill="white"/>
</g>
<path d="M75.0872 67.2676V72.3206H64.9128V67.2676C62.68 69.0452 61.2771 71.7189 61.1338 74.6372L65.1288 80.4572V94.1715H68.3469V86.3468H71.6531V94.1715H74.8712V80.4572L78.8662 74.6372C78.723 71.7189 77.3211 69.0452 75.0872 67.2676Z" fill="#D81F28"/>
<path d="M98 63.1963L69.9999 45.8291L42 63.1963L43.7427 66.0059L50.1968 62.0028V94.1719H61.8226V81.4825L57.8155 75.6448C57.6267 70.1593 60.7954 65.0687 65.8408 62.885L68.2191 61.8501V69.0147H71.781V61.8501L74.1593 62.885C79.2046 65.0686 82.3735 70.1596 82.1846 75.6448L78.1775 81.4825V94.1719H89.8033V62.0028L96.2574 66.0059L98 63.1963Z" fill="black"/>
<defs>
<filter id="filter0_d_261_9211" x="1" y="1" width="138" height="138" filterUnits="userSpaceOnUse" color-interpolation-filters="sRGB">
<feFlood flood-opacity="0" result="BackgroundImageFix"/>
<feColorMatrix in="SourceAlpha" type="matrix" values="0 0 0 0 0 0 0 0 0 0 0 0 0 0 0 0 0 0 127 0" result="hardAlpha"/>
<feOffset/>
<feGaussianBlur stdDeviation="4.5"/>
<feComposite in2="hardAlpha" operator="out"/>
<feColorMatrix type="matrix" values="0 0 0 0 0 0 0 0 0 0 0 0 0 0 0 0 0 0 0.1 0"/>
<feBlend mode="normal" in2="BackgroundImageFix" result="effect1_dropShadow_261_9211"/>
<feBlend mode="normal" in="SourceGraphic" in2="effect1_dropShadow_261_9211" result="shape"/>
</filter>
</defs>
</svg>
